<svg width="59" height="53" viewBox="0 0 59 53" fill="none" xmlns="http://www.w3.org/2000/svg">
<path fill-rule="evenodd" clip-rule="evenodd" d="M16.4312 48.4155C16.4312 48.0947 16.6969 47.8347 17.0246 47.8347H38.3727C38.7004 47.8347 38.9661 48.0947 38.9661 48.4155C38.9661 48.7363 38.7004 48.9963 38.3727 48.9963H17.0246C16.6969 48.9963 16.4312 48.7363 16.4312 48.4155Z" fill="#151F4F"/>
<path fill-rule="evenodd" clip-rule="evenodd" d="M2.78001 6.09772C2.12033 6.09772 1.58686 6.62023 1.58686 7.26321V40.6025C1.58686 41.2454 2.12033 41.7679 2.78001 41.7679H52.6175C53.2772 41.7679 53.8106 41.2454 53.8106 40.6025V7.26321C53.8106 6.62023 53.2772 6.09772 52.6175 6.09772H2.78001ZM0.399902 7.26321C0.399902 5.97724 1.46623 4.93604 2.78001 4.93604H52.6175C53.9313 4.93604 54.9976 5.97724 54.9976 7.26321V40.6025C54.9976 41.8884 53.9313 42.9296 52.6175 42.9296H2.78001C1.46623 42.9296 0.399902 41.8884 0.399902 40.6025V7.26321Z" fill="#151F4F"/>
<path fill-rule="evenodd" clip-rule="evenodd" d="M26.5558 14.5984V24.2495H36.4344V24.8304C36.4344 26.8539 35.8205 28.832 34.6706 30.5145C33.5206 32.197 31.8861 33.5083 29.974 34.2827C28.0618 35.0572 25.9576 35.2601 23.9276 34.8658C21.8975 34.4715 20.0325 33.4977 18.5684 32.0673C17.1043 30.637 16.1068 28.8144 15.7023 26.8298C15.2978 24.8453 15.5043 22.7881 16.2958 20.9183C17.0873 19.0485 18.4281 17.4503 20.1487 16.3255C21.8692 15.2007 23.8923 14.5998 25.962 14.5987L26.5558 14.5984ZM25.3689 15.7793C23.7424 15.882 22.1685 16.402 20.808 17.2915C19.2825 18.2887 18.0939 19.7056 17.3924 21.3629C16.6908 23.0202 16.5078 24.8436 16.8663 26.6025C17.2249 28.3615 18.109 29.9771 19.4069 31.2452C20.7049 32.5132 22.3585 33.3767 24.1586 33.7263C25.9588 34.076 27.8246 33.896 29.5201 33.2093C31.2156 32.5226 32.6646 31.36 33.684 29.8686C34.593 28.5386 35.124 27.0004 35.2284 25.4112H25.3689V15.7793Z" fill="#151F4F"/>
<path fill-rule="evenodd" clip-rule="evenodd" d="M28.8386 11.1592H29.4321C32.2079 11.1592 34.8701 12.237 36.8331 14.1557C38.7961 16.0744 39.899 18.677 39.899 21.3908V21.9716H28.8386V11.1592ZM30.0256 12.3394V20.81H38.6931C38.5491 18.6167 37.5939 16.5412 35.9943 14.9776C34.3944 13.4139 32.2704 12.4799 30.0256 12.3394Z" fill="#151F4F"/>
<path fill-rule="evenodd" clip-rule="evenodd" d="M30.2637 41.8188C30.5627 41.6873 30.9139 41.8179 31.0483 42.1105L33.8337 48.1767C33.9681 48.4693 33.8346 48.8131 33.5356 48.9446C33.2367 49.0761 32.8854 48.9455 32.751 48.6529L29.9656 42.5867C29.8313 42.2941 29.9647 41.9503 30.2637 41.8188Z" fill="#151F4F"/>
<path fill-rule="evenodd" clip-rule="evenodd" d="M25.1335 41.8188C25.4325 41.9503 25.566 42.2941 25.4316 42.5867L22.6462 48.6529C22.5118 48.9455 22.1606 49.0761 21.8616 48.9446C21.5626 48.8131 21.4292 48.4693 21.5635 48.1767L24.3489 42.1105C24.4833 41.8179 24.8346 41.6873 25.1335 41.8188Z" fill="#151F4F"/>
<path fill-rule="evenodd" clip-rule="evenodd" d="M0.4021 37.572C0.4021 37.2512 0.66781 36.9911 0.99558 36.9911H54.4063C54.7341 36.9911 54.9998 37.2512 54.9998 37.572C54.9998 37.8928 54.7341 38.1528 54.4063 38.1528H0.99558C0.66781 38.1528 0.4021 37.8928 0.4021 37.572Z" fill="#151F4F"/>
<path fill-rule="evenodd" clip-rule="evenodd" d="M27.7969 39.5453C27.7037 39.5272 27.6071 39.5366 27.5195 39.5722C27.4318 39.6078 27.3571 39.668 27.3046 39.745C27.2522 39.8221 27.2243 39.9125 27.2246 40.0049L27.2246 40.0063C27.2246 40.1293 27.2746 40.2475 27.3638 40.3348C27.4531 40.4221 27.5744 40.4712 27.701 40.4712H27.7024V40.4712C27.7974 40.4714 27.8903 40.4441 27.9693 40.3927C28.0482 40.3413 28.1097 40.2683 28.146 40.1829C28.1823 40.0976 28.1918 40.0036 28.1734 39.913C28.1551 39.8224 28.1095 39.739 28.0425 39.6735C27.9755 39.608 27.89 39.5633 27.7969 39.5453ZM27.0645 38.4993C27.3689 38.3756 27.7041 38.343 28.0275 38.4057C28.3509 38.4684 28.648 38.6235 28.8813 38.8515C29.1146 39.0796 29.2735 39.3702 29.3377 39.6867C29.4019 40.0033 29.3685 40.3313 29.2419 40.6292C29.1152 40.9272 28.9009 41.1815 28.6264 41.3601C28.3518 41.5388 28.0293 41.6337 27.6996 41.6329L27.701 41.0521V41.6329C27.2601 41.6329 26.8371 41.4617 26.5251 41.1567C26.2132 40.8519 26.0378 40.4384 26.0376 40.0069C26.037 39.6845 26.1342 39.3691 26.3169 39.1008C26.4998 38.8323 26.76 38.623 27.0645 38.4993ZM26.0376 40.0069C26.0376 40.0067 26.0376 40.0065 26.0376 40.0063H26.6311L26.0376 40.0076C26.0376 40.0074 26.0376 40.0072 26.0376 40.0069Z" fill="#151F4F"/>
<path fill-rule="evenodd" clip-rule="evenodd" d="M0.399902 8.85861C0.399902 8.53782 0.665613 8.27777 0.993383 8.27777H54.4016C54.7293 8.27777 54.995 8.53782 54.995 8.85861C54.995 9.1794 54.7293 9.43945 54.4016 9.43945H0.993383C0.665613 9.43945 0.399902 9.1794 0.399902 8.85861Z" fill="#151F4F"/>
</svg>
