<svg width="54" height="53" viewBox="0 0 54 53" fill="none" xmlns="http://www.w3.org/2000/svg">
<g clip-path="url(#clip0_465_2077)">
<g clip-path="url(#clip1_465_2077)">
<path d="M27.0511 1.96686C31.5574 2.00556 35.7814 3.11313 39.6797 5.38177C39.8209 5.46373 40.0213 5.53089 40.0725 5.6561C40.1579 5.86555 40.241 6.17517 40.1454 6.33225C40.0497 6.48934 39.7344 6.55991 39.5112 6.57016C39.3552 6.57699 39.1913 6.41876 39.0319 6.33111C31.0432 1.97976 23.0548 1.97976 15.0668 6.33111C14.9871 6.37437 14.9086 6.42104 14.8312 6.46885C14.4953 6.67716 14.1606 6.71586 13.9329 6.34022C13.6824 5.92702 13.9169 5.64472 14.2801 5.46373C15.4824 4.86839 16.6619 4.21159 17.9018 3.7096C20.8278 2.52007 23.8939 1.98735 27.0511 1.96686Z" fill="#151F4F"/>
<path d="M52.1215 27.1939C52.0967 31.5876 50.9139 35.897 48.6922 39.6879C48.6012 39.8428 48.5124 40.0533 48.3712 40.1103C48.1799 40.1865 47.8827 40.2241 47.7359 40.1216C47.589 40.0192 47.5207 39.7369 47.5082 39.5263C47.4979 39.3874 47.6391 39.236 47.7177 39.0926C52.12 31.0577 52.12 23.022 47.7177 14.9856C47.6744 14.9059 47.6266 14.8285 47.581 14.75C47.3898 14.4085 47.4205 14.1012 47.7678 13.9076C48.115 13.7141 48.4076 13.8598 48.5829 14.1968C49.0793 15.145 49.6133 16.0784 50.0425 17.0562C51.4384 20.2412 52.101 23.5878 52.1215 27.1939Z" fill="#151F4F"/>
<path d="M1.9668 27.0312C2.00437 22.5429 3.10533 18.3425 5.35394 14.4484C5.39038 14.3858 5.42795 14.3232 5.4678 14.2606C5.67046 13.902 5.94826 13.6766 6.35358 13.9259C6.72816 14.1536 6.65301 14.478 6.46743 14.8274C5.92207 15.8929 5.31751 16.9379 4.88259 18.0477C2.08065 25.2201 2.56567 32.1877 6.28299 38.931C6.35244 39.0585 6.42758 39.1826 6.50045 39.3089C6.69172 39.639 6.68375 39.9498 6.33764 40.1581C5.99152 40.3664 5.70233 40.2253 5.51903 39.894C5.13193 39.1951 4.73002 38.503 4.38846 37.7825C2.79637 34.4217 1.9693 30.7499 1.9668 27.0312Z" fill="#151F4F"/>
<path d="M27.0634 52.1217C22.5753 52.0853 18.373 50.9834 14.4781 48.7421C14.3642 48.6783 14.2572 48.6157 14.1513 48.5451C13.8519 48.3471 13.7312 48.0784 13.9236 47.7551C14.116 47.4319 14.3961 47.3852 14.7206 47.5594C15.3445 47.894 15.9536 48.2594 16.5946 48.5565C24.1826 52.0708 31.6407 51.8143 38.9691 47.787C39.6705 47.4034 40.0188 47.3761 40.1862 47.7768C40.4435 48.3892 39.9323 48.5588 39.5475 48.7808C35.7475 50.9609 31.4446 52.1124 27.0634 52.1217Z" fill="#151F4F"/>
<path d="M7.88724 7.09604C8.55442 7.7555 9.22084 8.41496 9.88651 9.07441C10.5173 9.70162 11.1389 10.3379 11.7765 10.9606C12.0759 11.2543 12.3025 11.5798 11.9507 11.9407C11.5989 12.3015 11.2676 12.0886 10.9704 11.787C9.68385 10.4836 8.3882 9.18825 6.97641 7.7722C6.97641 8.56332 6.96616 9.20304 6.97641 9.84277C6.98438 10.2708 6.89444 10.6532 6.3969 10.6498C5.89935 10.6464 5.83787 10.2378 5.83787 9.82114C5.83787 8.71357 5.81738 7.60714 5.81396 6.49957C5.81396 6.0636 6.04167 5.81659 6.48229 5.81659C7.59008 5.81659 8.69674 5.83822 9.80453 5.84277C10.2224 5.84277 10.6015 5.90196 10.5901 6.43127C10.5765 6.91847 10.2144 6.98563 9.81592 6.98107C9.19656 6.97538 8.57947 6.97538 7.96238 6.97538L7.88724 7.09604Z" fill="#151F4F"/>
<path d="M46.3117 47.112C45.6365 46.4404 45.0741 45.8826 44.5128 45.3225C43.8058 44.6179 43.1022 43.9088 42.3917 43.2053C42.0854 42.9014 41.7564 42.5974 42.1299 42.1444C42.3792 41.8405 42.7447 41.9304 43.1898 42.3721C44.4604 43.6413 45.7299 44.9128 47.1144 46.2969C47.1144 45.524 47.1246 44.8843 47.1144 44.248C47.1053 43.82 47.1941 43.4409 47.6927 43.4398C48.1618 43.4398 48.262 43.8029 48.262 44.2081C48.262 45.3339 48.2825 46.4597 48.2848 47.5855C48.2848 48.0215 48.0571 48.2685 47.6153 48.2685C46.5075 48.2685 45.3997 48.2468 44.2931 48.2434C43.8741 48.2434 43.4961 48.1808 43.5086 47.6527C43.5223 47.1632 43.8866 47.0994 44.284 47.104C44.8897 47.1165 45.5102 47.112 46.3117 47.112Z" fill="#151F4F"/>
<path d="M46.9561 7.84506C46.5007 8.33226 46.0589 8.8297 45.5898 9.30551C44.7929 10.1217 43.9708 10.9219 43.1659 11.7358C42.8665 12.0386 42.5386 12.3311 42.148 11.9532C41.7575 11.5753 42.0262 11.2418 42.3336 10.9356C43.4949 9.78511 44.6513 8.63011 45.8027 7.47056C45.9303 7.34307 46.0509 7.21103 46.2741 6.97654C45.5033 6.97654 44.8441 6.9902 44.1872 6.96743C43.9755 6.96869 43.7693 6.89985 43.6008 6.77164C43.487 6.66464 43.4095 6.35844 43.487 6.24916C43.6008 6.06703 43.8536 5.86897 44.0562 5.861C45.0172 5.82002 45.9826 5.87807 46.9424 5.83254C48.3303 5.76538 48.303 5.98621 48.262 7.13704C48.229 8.04768 48.2529 8.95263 48.2552 9.861C48.2552 10.2708 48.1413 10.6066 47.6586 10.5884C47.2031 10.5713 47.1121 10.2469 47.1155 9.86214C47.1234 9.22696 47.1155 8.59179 47.1155 7.95662L46.9561 7.84506Z" fill="#151F4F"/>
<path d="M7.81649 47.112C8.60435 47.112 9.25446 47.1188 9.90456 47.112C10.3247 47.1052 10.6549 47.244 10.6469 47.7028C10.6401 48.1331 10.3133 48.2514 9.9205 48.2514C8.78196 48.2514 7.63318 48.2753 6.48895 48.2765C6.05175 48.2765 5.81152 48.034 5.81152 47.5935C5.81152 46.4689 5.82974 45.3431 5.83771 44.2173C5.83771 43.8348 5.93107 43.5047 6.38648 43.4967C6.86809 43.4888 6.9808 43.8155 6.97625 44.2298C6.96941 44.865 6.97625 45.499 6.97625 46.2674C7.17663 46.083 7.30187 45.9748 7.41914 45.8576C8.58879 44.6897 9.75693 43.5203 10.9236 42.3493C11.223 42.0477 11.5509 41.754 11.9414 42.1342C12.3319 42.5144 12.0621 42.8468 11.7547 43.1518C10.5934 44.3046 9.43624 45.4607 8.28329 46.6202C8.15691 46.7466 8.03736 46.8786 7.81649 47.112Z" fill="#151F4F"/>
<path d="M46.142 27.0312C46.1318 16.9094 38.1984 8.60203 28.2317 7.98848C27.2287 7.92678 25.9159 7.98848 25.9159 7.98848C15.923 8.56902 7.96119 16.8934 7.95094 27.0289C7.93955 37.3875 16.2247 45.8348 26.5478 46.1285C26.7192 46.1512 26.8918 46.1626 27.0647 46.1626C27.2306 46.1627 27.3964 46.1524 27.5611 46.1319C37.8159 45.886 46.1488 37.3681 46.142 27.0312ZM41.4478 37.7415C39.2254 37.079 36.8367 36.4301 34.6815 35.7893C35.2691 33.1123 35.579 30.3819 35.606 27.6413H44.9693C44.8615 31.2904 43.6306 34.8174 41.4444 37.7415H41.4478ZM26.3645 44.9401C24.0965 44.3926 22.0904 41.2292 20.8767 36.7443C24.9821 36.1736 29.147 36.1767 33.2515 36.7534C32.113 40.9481 30.2913 43.9862 28.1975 44.8058C27.6061 44.9965 26.9774 45.0426 26.3645 44.9401ZM23.9736 10.8126C24.2959 10.4172 24.6431 10.0427 25.013 9.69139C25.6677 9.21444 26.3554 8.95718 27.0624 8.95718C29.6332 8.95718 31.9445 12.3357 33.2765 17.334C29.1547 17.9232 24.9702 17.9274 20.8471 17.3465C21.2376 15.8255 21.7867 14.3498 22.4855 12.9435C22.9166 12.1898 23.415 11.4765 23.9747 10.8126H23.9736ZM34.4629 27.6413C34.4314 30.3313 34.1185 33.0107 33.5293 35.6356C29.2408 35.0192 24.8863 35.0192 20.5978 35.6356C20.0085 33.0123 19.6959 30.3344 19.6653 27.6459L34.4629 27.6413ZM19.6619 26.4495C19.6862 23.7603 19.9915 21.081 20.5728 18.4552C24.8772 19.0701 29.247 19.0724 33.5521 18.462C34.1315 21.0858 34.4368 23.7626 34.4629 26.4495H19.6619ZM44.967 26.4495H35.6857C35.663 24.7456 35.515 23.0457 35.2428 21.3636C35.1028 20.3152 34.9229 19.2987 34.7065 18.322C36.8367 17.6891 39.1468 17.0346 41.4421 16.3527C43.6122 19.2691 44.8281 22.6385 44.9693 26.4461L44.967 26.4495ZM40.5985 15.2941C38.6208 16.1444 36.4143 16.6931 34.4003 17.0733C34.0925 15.8936 33.6995 14.7378 33.2242 13.6151C32.4682 11.8507 31.5801 10.4609 30.6055 9.48535C34.4572 10.2901 37.8546 12.2275 40.6007 15.2907L40.5985 15.2941ZM23.5022 9.50243C22.5344 10.4768 21.6544 11.8599 20.9029 13.6117C20.4165 14.7646 20.0154 15.9516 19.7029 17.1632C17.6945 16.5872 15.5097 16.0147 13.3954 15.4023C16.2122 12.2344 19.5162 10.2981 23.5022 9.50243ZM12.6508 16.3379C14.8755 17.005 17.2721 17.6572 19.4274 18.3015C18.8494 20.9765 18.5473 23.7038 18.5257 26.4404H9.12022C9.22768 22.7896 10.4608 19.2612 12.6508 16.3379ZM9.11452 27.6333H18.5268C18.5535 30.3738 18.8629 33.1043 19.4502 35.7813C17.337 36.4097 14.9302 37.0608 12.6497 37.7392C10.4751 34.8297 9.26709 31.4489 9.11452 27.6333ZM13.5468 38.8581C13.5468 38.7853 13.5468 38.7113 13.5468 38.6385C15.5495 38.0591 17.6627 37.4785 19.7245 36.8832C20.0342 38.0724 20.4296 39.2376 20.9075 40.3698C21.3065 41.3199 21.7961 42.2294 22.3694 43.0858C22.7165 43.6174 23.1073 44.1192 23.5375 44.5861C19.5378 43.8041 16.2338 41.8633 13.5468 38.8581ZM30.5645 44.5906C30.7205 44.4188 30.8685 44.2423 31.0131 44.0636C31.8295 43.1256 32.5763 41.886 33.2264 40.3698C33.7076 39.2317 34.1049 38.0599 34.4151 36.8638L40.6975 38.6851C37.8751 41.8564 34.5676 43.7938 30.5645 44.5906Z" fill="#151F4F"/>
</g>
</g>
<defs>
<clipPath id="clip0_465_2077">
<rect width="54" height="52.6134" fill="white"/>
</clipPath>
<clipPath id="clip1_465_2077">
<rect width="50.1548" height="50.1548" fill="white" transform="translate(1.9668 1.96686)"/>
</clipPath>
</defs>
</svg>
