<svg width="62" height="53" viewBox="0 0 62 53" fill="none" xmlns="http://www.w3.org/2000/svg">
<path d="M58.4195 49.0512H4.51614C4.36216 49.0512 4.21448 48.99 4.1056 48.8811C3.99672 48.7723 3.93555 48.6246 3.93555 48.4706C3.93555 48.3166 3.99672 48.1689 4.1056 48.0601C4.21448 47.9512 4.36216 47.89 4.51614 47.89H58.4195C58.5735 47.89 58.7212 47.9512 58.8301 48.0601C58.9389 48.1689 59.0001 48.3166 59.0001 48.4706C59.0001 48.6246 58.9389 48.7723 58.8301 48.8811C58.7212 48.99 58.5735 49.0512 58.4195 49.0512Z" fill="#151F4F"/>
<path d="M18.0159 40.3153H13.5498C13.3958 40.3153 13.2482 40.2541 13.1393 40.1452C13.0304 40.0363 12.9692 39.8887 12.9692 39.7347V25.997C12.9692 25.843 13.0304 25.6953 13.1393 25.5864C13.2482 25.4776 13.3958 25.4164 13.5498 25.4164H18.0159C18.1699 25.4164 18.3176 25.4776 18.4265 25.5864C18.5353 25.6953 18.5965 25.843 18.5965 25.997V39.7347C18.5965 39.8887 18.5353 40.0363 18.4265 40.1452C18.3176 40.2541 18.1699 40.3153 18.0159 40.3153ZM14.1215 39.1541H17.4085V26.5776H14.1215V39.1541Z" fill="#151F4F"/>
<path d="M25.8582 40.3153H21.3921C21.2381 40.3153 21.0905 40.2541 20.9816 40.1452C20.8727 40.0363 20.8115 39.8887 20.8115 39.7347V23.1476C20.8115 22.9936 20.8727 22.8459 20.9816 22.7371C21.0905 22.6282 21.2381 22.567 21.3921 22.567H25.8582C26.0122 22.567 26.1599 22.6282 26.2688 22.7371C26.3776 22.8459 26.4388 22.9936 26.4388 23.1476V39.7347C26.4388 39.8887 26.3776 40.0363 26.2688 40.1452C26.1599 40.2541 26.0122 40.3153 25.8582 40.3153ZM21.9638 39.1541H25.2776V23.6835H21.9638V39.1541Z" fill="#151F4F"/>
<path d="M33.7098 40.3152H29.2437C29.0897 40.3152 28.942 40.254 28.8331 40.1451C28.7243 40.0363 28.6631 39.8886 28.6631 39.7346V20.2088C28.6631 20.0548 28.7243 19.9072 28.8331 19.7983C28.942 19.6894 29.0897 19.6282 29.2437 19.6282H33.7098C33.8638 19.6282 34.0114 19.6894 34.1203 19.7983C34.2292 19.9072 34.2904 20.0548 34.2904 20.2088V39.7346C34.2904 39.8886 34.2292 40.0363 34.1203 40.1451C34.0114 40.254 33.8638 40.3152 33.7098 40.3152ZM29.8064 39.154H33.1292V20.7894H29.8064V39.154Z" fill="#151F4F"/>
<path d="M41.5254 40.3151H37.0594C36.9054 40.3151 36.7577 40.2539 36.6488 40.145C36.5399 40.0362 36.4788 39.8885 36.4788 39.7345V17.2254C36.4788 17.0714 36.5399 16.9237 36.6488 16.8148C36.7577 16.7059 36.9054 16.6448 37.0594 16.6448H41.5254C41.6794 16.6448 41.8271 16.7059 41.936 16.8148C42.0449 16.9237 42.106 17.0714 42.106 17.2254V39.7345C42.106 39.8885 42.0449 40.0362 41.936 40.145C41.8271 40.2539 41.6794 40.3151 41.5254 40.3151ZM37.6221 39.1539H40.9449V17.7881H37.6489L37.6221 39.1539Z" fill="#151F4F"/>
<path d="M49.4034 40.3154H44.9373C44.7833 40.3154 44.6356 40.2542 44.5267 40.1453C44.4179 40.0365 44.3567 39.8888 44.3567 39.7348V13.8314C44.3567 13.6775 44.4179 13.5298 44.5267 13.4209C44.6356 13.312 44.7833 13.2509 44.9373 13.2509H49.4034C49.5566 13.2532 49.703 13.3151 49.8114 13.4235C49.9198 13.5318 49.9817 13.6782 49.984 13.8314V39.7348C49.9817 39.8881 49.9198 40.0344 49.8114 40.1428C49.703 40.2512 49.5566 40.3131 49.4034 40.3154ZM45.4911 39.1542H48.8228V14.3942H45.4911V39.1542Z" fill="#151F4F"/>
<path d="M13.1392 19.3607C13.012 19.3573 12.8893 19.3128 12.7895 19.2339C12.6897 19.155 12.6181 19.046 12.5854 18.923C12.5652 18.8497 12.5599 18.7731 12.5697 18.6977C12.5796 18.6223 12.6043 18.5496 12.6426 18.4839C12.6809 18.4182 12.7318 18.3608 12.7926 18.315C12.8533 18.2692 12.9225 18.2361 12.9963 18.2174C13.2464 18.1459 38.3012 11.3843 44.9824 5.64979C45.1009 5.54911 45.2545 5.49961 45.4094 5.51217C45.5644 5.52474 45.708 5.59834 45.8087 5.71679C45.9093 5.83523 45.9588 5.98883 45.9463 6.14377C45.9337 6.29872 45.8601 6.44233 45.7417 6.54301C38.846 12.4204 14.3361 19.0391 13.291 19.3607C13.2408 19.3699 13.1894 19.3699 13.1392 19.3607Z" fill="#151F4F"/>
<path d="M44.9554 9.39284C44.8692 9.3932 44.7839 9.37492 44.7053 9.33924C44.5674 9.27345 44.4609 9.15588 44.409 9.01206C44.3572 8.86824 44.3642 8.70978 44.4284 8.57107L45.7236 5.78423L42.6599 6.0522C42.5063 6.06213 42.355 6.01164 42.2382 5.9115C42.1213 5.81137 42.0483 5.66953 42.0346 5.51627C42.0222 5.36361 42.0707 5.21224 42.1694 5.09512C42.2681 4.97801 42.4091 4.90465 42.5616 4.89101L46.6258 4.54266C46.7273 4.53026 46.8303 4.54623 46.9233 4.5888C47.0164 4.63137 47.0958 4.69887 47.1528 4.78383C47.2113 4.86765 47.247 4.96525 47.2564 5.06703C47.2658 5.16882 47.2485 5.2713 47.2064 5.36442L45.4824 9.06235C45.4333 9.16044 45.3582 9.24316 45.2653 9.30144C45.1723 9.35973 45.0651 9.39134 44.9554 9.39284Z" fill="#151F4F"/>
</svg>
