<svg width="54" height="53" viewBox="0 0 54 53" fill="none" xmlns="http://www.w3.org/2000/svg">
<g clip-path="url(#clip0_465_2318)">
<path d="M9.37077 32.2319C8.88256 32.7533 8.29747 33.0669 7.55431 32.8272C7.29967 32.7408 7.0617 32.6114 6.85067 32.4448C5.79521 31.6263 4.74654 30.7993 3.70468 29.9639C2.90416 29.3264 2.77032 28.3869 3.3809 27.5569C6.02636 23.9584 8.67775 20.3633 11.3351 16.7716C11.9903 15.8856 12.9706 15.7517 13.8361 16.4274C14.9043 17.2561 15.9598 18.0988 17.0229 18.9389C17.5939 19.3915 17.8502 19.9588 17.6883 20.702C17.6105 21.0552 18.0707 21.458 18.5729 21.4669C19.4142 21.4835 20.2581 21.4669 21.1007 21.4746C21.1963 21.4746 21.2919 21.4669 21.3862 21.4746C22.3614 21.5664 23.1708 21.3828 23.9496 20.6383C25.0739 19.5699 26.5424 19.5215 28.0364 19.7637C30.466 20.1589 32.9058 20.4955 35.3405 20.8614C36.2825 21.0042 36.9708 20.4356 37.7076 20.0174C37.7777 19.9779 37.7841 19.7943 37.7879 19.677C37.8109 18.9402 38.1372 18.4022 38.8153 18.0949C40.2341 17.4575 41.6516 16.8201 43.0792 16.1992C44.0416 15.7836 44.9441 16.152 45.3419 17.1299C47.1868 21.6599 49.0228 26.1924 50.8499 30.7275C51.2323 31.6798 50.8677 32.5557 49.9295 32.9776C48.5274 33.6151 47.1112 34.2194 45.7051 34.8466C45.2042 35.0697 44.7313 35.0276 44.2316 34.8236C43.9501 34.7032 43.645 34.6483 43.3393 34.663C42.7083 34.7115 42.0824 34.8326 41.4094 34.9307C41.5152 35.9086 41.3609 36.8112 40.6751 37.5531C39.9893 38.2951 39.1621 38.573 38.1487 38.5564C38.229 39.5496 38.0327 40.4585 37.3609 41.2132C36.6891 41.968 35.8542 42.2956 34.8178 42.2994C34.9083 43.2403 34.7222 44.0842 34.0721 44.7803C33.422 45.4764 32.596 45.7428 31.6056 45.6906C31.6209 46.9539 31.1951 48.0057 30.0619 48.6431C28.9287 49.2806 27.8375 49.1696 26.777 48.4838C24.5704 50.7951 22.3295 50.4381 21.1198 47.5914C19.4193 48.3461 17.3492 47.4919 16.8355 45.28C15.7877 45.6625 14.7755 45.5988 13.8463 44.955C12.917 44.3112 12.5142 43.4098 12.4747 42.2778C11.4893 42.4881 10.5907 42.3351 9.78123 41.7678C9.42386 41.5206 9.119 41.205 8.88426 40.8392C8.64952 40.4735 8.48954 40.0649 8.41357 39.637C8.3376 39.2091 8.34714 38.7704 8.44164 38.3462C8.53614 37.922 8.71372 37.5207 8.96414 37.1656C9.31851 36.6556 9.72897 36.1903 10.0872 35.6829C10.2054 35.5036 10.2752 35.2967 10.2898 35.0824C10.3217 34.6719 10.2694 34.2538 10.3064 33.8433C10.3714 33.0949 10.0744 32.5646 9.37077 32.2319ZM24.4748 42.7826C27.1517 42.5085 28.7515 45.1207 27.4627 47.404C27.6924 47.5877 27.9657 47.709 28.256 47.7561C28.5463 47.8033 28.8439 47.7746 29.1199 47.673C29.4128 47.5876 29.6751 47.4201 29.876 47.1903C30.0768 46.9606 30.2076 46.6782 30.2531 46.3764C30.3908 45.6115 30.0976 45.0162 29.4883 44.547C28.1677 43.5271 26.8505 42.4987 25.5367 41.4618C25.1402 41.1495 25.0574 40.7938 25.2817 40.4802C25.5061 40.1666 25.9 40.1385 26.3244 40.4611C26.6788 40.7301 27.0281 41.0067 27.3786 41.2808C28.5577 42.1987 29.7279 43.1306 30.9198 44.032C31.9803 44.8351 33.371 44.2806 33.5215 43.0057C33.5992 42.3415 33.2946 41.8443 32.7566 41.4657C31.2797 40.4143 29.8048 39.3604 28.3321 38.304C27.7292 37.8718 27.5851 37.5238 27.8605 37.1566C28.1358 36.7895 28.4812 36.8392 29.0676 37.2586C30.6317 38.3792 32.1894 39.5075 33.7624 40.6153C34.8918 41.4121 36.3437 40.9557 36.7567 39.6974C37.0256 38.879 36.7414 38.0643 35.96 37.4817C34.2646 36.2183 32.5616 34.9652 30.8611 33.703C30.4265 33.3805 30.3347 33.021 30.582 32.6959C30.8293 32.3708 31.19 32.3606 31.6298 32.6819C32.1562 33.0643 32.6776 33.4583 33.2015 33.8471C34.582 34.867 35.9562 35.8958 37.3456 36.9068C37.6234 37.1263 37.9627 37.2538 38.3163 37.2716C38.67 37.2895 39.0204 37.1967 39.3188 37.0062C39.9409 36.6454 40.192 36.0679 40.1487 35.3553C40.1334 35.0939 40.0658 34.9409 39.7395 34.9014C39.2857 34.8297 38.8397 34.7153 38.4074 34.5597C37.352 34.2168 36.5451 33.4812 35.7025 32.8068C33.578 31.107 31.4568 29.4072 29.3391 27.7074C28.5335 27.0585 27.6909 26.9425 26.7731 27.4524C26.4812 27.613 26.1842 27.766 25.8808 27.9037C24.0962 28.7069 22.3116 28.726 20.527 27.9356C19.0382 27.2765 18.7424 25.5452 19.8986 24.4017C20.3511 23.9555 20.8177 23.522 21.274 23.0784C21.3705 22.9725 21.4615 22.8619 21.5468 22.7469C21.1568 22.7469 20.8572 22.766 20.5602 22.7469C19.2944 22.6551 17.9266 23.1204 16.8635 22.0126L10.0897 31.1916C11.0585 31.7704 11.6194 32.5671 11.5403 33.7413C13.9967 31.5218 17.404 33.1944 17.3823 36.2209C19.2944 35.9379 21.2396 37.2268 21.195 39.7637C23.4958 40.0582 24.1026 40.623 24.4723 42.7826H24.4748ZM38.2749 21.1877C37.9256 21.3815 37.6375 21.5371 37.3443 21.7041C36.6469 22.1013 35.8329 22.2433 35.0422 22.1056C32.4176 21.7232 29.7929 21.328 27.1683 20.9442C26.276 20.8168 25.4156 21.0016 24.754 21.5944C23.3798 22.8247 22.0592 24.1148 20.7399 25.4037C20.3295 25.8053 20.4569 26.4134 20.9553 26.6964C21.109 26.7799 21.2698 26.8495 21.4359 26.9042C23.0038 27.4511 24.5041 27.2714 25.9293 26.4465C27.5112 25.5299 28.9542 25.6893 30.3691 26.8558C32.6878 28.7681 35.046 30.6319 37.403 32.497C37.8175 32.8159 38.267 33.0866 38.7427 33.304C40.2048 33.9899 41.6898 33.6023 43.2131 33.3741C41.5623 29.3022 39.9294 25.2724 38.2749 21.1877ZM44.9352 33.7757C45.1557 33.6928 45.2756 33.6482 45.3903 33.6023C46.6828 33.0337 47.9746 32.4635 49.2654 31.8915C49.7562 31.6735 49.8008 31.5549 49.5943 31.045C47.8148 26.6424 46.0349 22.2408 44.2545 17.84C44.02 17.2586 43.9129 17.2191 43.324 17.4804C42.062 18.0405 40.8013 18.6019 39.5419 19.1645C38.9963 19.408 38.9657 19.4794 39.1875 20.0289C40.1317 22.3687 41.0784 24.7059 42.0276 27.0406C42.8676 29.1225 43.7038 31.1967 44.5528 33.2658C44.6344 33.4583 44.8077 33.61 44.9352 33.7757ZM12.685 17.2357C12.5571 17.328 12.4391 17.4336 12.3332 17.5506C9.70305 21.1202 7.07502 24.6898 4.44911 28.2594C4.21839 28.573 4.2732 28.7987 4.56511 29.0243C5.59168 29.8275 6.61145 30.6349 7.62442 31.4465C7.9431 31.7015 8.18657 31.6594 8.41856 31.3267C8.76528 30.8321 9.12985 30.3514 9.48805 29.8657C11.7417 26.806 13.9971 23.7515 16.2542 20.702C16.462 20.4228 16.5487 20.1806 16.2249 19.9269C15.1618 19.0944 14.1038 18.2556 13.0381 17.4231C12.9253 17.3518 12.8073 17.2891 12.685 17.2357ZM9.55051 39.0358C9.64993 39.9091 10.1649 40.6574 10.9438 40.9608C11.7226 41.2642 12.6009 41.1023 13.1567 40.4356C14.049 39.3583 14.9081 38.2581 15.7252 37.1209C16.0288 36.6946 16.1516 36.1655 16.0668 35.649C15.9821 35.1324 15.6966 34.6704 15.2727 34.3634C14.8496 34.0435 14.3171 33.9042 13.7916 33.9758C13.2661 34.0475 12.7903 34.3244 12.4683 34.7459C11.6665 35.7505 10.8673 36.7589 10.1139 37.8055C9.84752 38.1663 9.72897 38.6202 9.54541 39.0358H9.55051ZM20.0363 39.38C19.9937 38.9774 19.8405 38.5945 19.5937 38.2736C19.3469 37.9527 19.0161 37.7064 18.6379 37.562C18.2786 37.4248 17.8845 37.4074 17.5144 37.5124C17.1444 37.6174 16.8182 37.8392 16.5844 38.1447C15.7804 39.1492 14.9906 40.1649 14.2147 41.1916C13.5289 42.098 13.6564 43.211 14.4951 43.8599C15.2982 44.482 16.439 44.3379 17.1299 43.4978C17.9279 42.5302 18.7246 41.5587 19.4767 40.5554C19.7329 40.2163 19.8514 39.7752 20.0312 39.3851L20.0363 39.38ZM19.9088 46.699C20.281 46.4861 20.7437 46.3522 21.0063 46.045C21.6755 45.2405 22.3018 44.4013 22.8827 43.5309C23.1086 43.1928 23.1969 42.7812 23.1294 42.3801C23.0619 41.9791 22.8438 41.619 22.5197 41.3735C22.1955 41.1279 21.7898 41.0155 21.3856 41.0592C20.9813 41.1029 20.609 41.2994 20.3448 41.6085C19.693 42.3734 19.0637 43.1527 18.4569 43.9465C18.2628 44.1832 18.1464 44.474 18.1236 44.7793C18.1007 45.0845 18.1726 45.3894 18.3294 45.6523C18.6456 46.2362 19.1478 46.5664 19.8999 46.699H19.9088ZM26.7068 45.7377C26.6938 45.3883 26.578 45.0505 26.374 44.7666C26.1699 44.4827 25.8866 44.2653 25.5596 44.1416C25.2376 44.0216 24.8855 44.0079 24.5552 44.1027C24.2248 44.1975 23.9335 44.3956 23.724 44.6681C23.3786 45.1028 23.0306 45.5376 22.7043 45.9876C22.1255 46.7895 22.3053 47.8004 23.1134 48.3729C23.9216 48.9453 24.935 48.7859 25.5048 47.9777C25.8235 47.5238 26.1281 47.0572 26.3971 46.5753C26.545 46.3203 26.6036 46.0144 26.7068 45.7377Z" fill="#151F4F"/>
<path d="M18.9998 10.4864C19.0027 9.00324 19.4746 7.5542 20.3558 6.32246C21.237 5.09072 22.488 4.13158 23.9506 3.5663C25.4133 3.00102 27.0218 2.85497 28.5729 3.14663C30.1241 3.43829 31.5481 4.15455 32.6651 5.20487C33.7821 6.25519 34.5418 7.59241 34.8482 9.04746C35.1547 10.5025 34.9941 12.0101 34.3867 13.3796C33.7793 14.7491 32.7525 15.919 31.436 16.7414C30.1195 17.5639 28.5724 18.0019 26.9904 18.0002C24.8701 17.9906 22.84 17.1951 21.343 15.7875C19.846 14.3798 19.0036 12.4741 18.9998 10.4864ZM20.3594 10.4738C20.3544 11.7045 20.7386 12.909 21.4635 13.9351C22.1884 14.9612 23.2214 15.7628 24.4321 16.2387C25.6427 16.7145 26.9767 16.8433 28.2654 16.6088C29.5541 16.3742 30.7397 15.7868 31.6724 14.9208C32.6051 14.0547 33.2431 12.9489 33.5058 11.7431C33.7684 10.5373 33.644 9.28552 33.1481 8.14599C32.6522 7.00646 31.8072 6.0303 30.7197 5.34083C29.6323 4.65137 28.3513 4.27955 27.0386 4.27235C26.1649 4.26573 25.2984 4.42117 24.4891 4.72974C23.6797 5.03831 22.9435 5.4939 22.3227 6.07029C21.7019 6.64667 21.2089 7.33248 20.8719 8.08823C20.535 8.84397 20.3608 9.65473 20.3594 10.4738Z" fill="#151F4F"/>
<path d="M25.9577 11.5082L28.7212 8.47981C28.8044 8.3892 28.883 8.29476 28.9709 8.2118C29.2582 7.93742 29.6087 7.92593 29.8291 8.20032C30.0636 8.49895 30.0566 8.82311 29.8069 9.09366C28.686 10.3273 27.5593 11.5546 26.4267 12.7755C26.1406 13.0818 25.8205 13.0716 25.5321 12.7653C25.0788 12.2906 24.634 11.809 24.1979 11.3206C23.9481 11.0411 23.9294 10.7246 24.1709 10.4273C24.4124 10.1299 24.743 10.1363 25.0233 10.4273C25.3387 10.7591 25.6259 11.1203 25.9577 11.5082Z" fill="#151F4F"/>
</g>
<defs>
<clipPath id="clip0_465_2318">
<rect width="54" height="52.8511" fill="white"/>
</clipPath>
</defs>
</svg>
