<svg width="1040" height="520" viewBox="0 0 1040 520" fill="none" xmlns="http://www.w3.org/2000/svg">
<g filter="url(#filter0_d_910_807)">
<rect x="15" y="13" width="1010" height="490" rx="12" fill="white"/>
<path d="M739.009 116.755C738.442 83.6919 764.893 56.2971 797.767 55.7303C830.64 55.1635 857.846 81.6137 858.413 114.676C858.98 147.739 832.53 175.134 799.656 175.701C766.782 176.268 739.576 149.817 739.009 116.755ZM827.428 115.243C827.239 99.3731 814.203 86.7148 798.333 87.0927C782.652 87.2816 769.994 100.507 770.183 116.188C770.372 132.058 783.408 144.716 799.278 144.338C814.959 144.149 827.617 131.113 827.428 115.243Z" fill="#C4C4C4"/>
<path d="M739.02 116.754C738.453 83.6914 764.904 56.2966 797.777 55.7298L798.344 87.0922C782.663 87.2811 770.005 100.506 770.193 116.187C770.382 132.057 783.419 144.716 799.289 144.338L799.855 175.7C766.793 176.267 739.587 149.817 739.02 116.754Z" fill="#E8E8E8"/>
<path d="M792.485 51.0078C831.026 50.441 861.822 80.2919 862.389 119.023L825.925 119.589C825.547 101.074 811.567 89.3606 793.052 89.7384L792.485 51.0078Z" fill="#D1DAF7"/>
<path d="M142.47 246.768L117.326 230.625L142.47 214.482L144.036 216.928L122.609 230.625L144.036 244.322L142.47 246.768Z" fill="#D1DAF7"/>
<path d="M137.09 215.166C137.09 218.591 139.83 221.33 143.254 221.33C146.678 221.33 149.418 218.591 149.418 215.166C149.418 211.742 146.678 209.003 143.254 209.003C139.83 208.905 137.09 211.742 137.09 215.166Z" fill="#D1DAF7"/>
<path d="M114 230.038C114 234.049 117.229 237.278 121.24 237.278C125.252 237.278 128.48 234.049 128.48 230.038C128.48 226.026 125.252 222.798 121.24 222.798C117.229 222.798 114 226.026 114 230.038Z" fill="#D1DAF7"/>
<path d="M137.09 245.594C137.09 249.018 139.83 251.757 143.254 251.757C146.678 251.757 149.418 249.018 149.418 245.594C149.418 242.169 146.678 239.43 143.254 239.43C139.83 239.332 137.09 242.169 137.09 245.594Z" fill="#D1DAF7"/>
<path d="M355.707 153.119H341.148V226.074H355.707V153.119Z" fill="#D1DAF7"/>
<path d="M282.004 183.537H267.446V226.312H282.004V183.537Z" fill="#D1DAF7"/>
<path d="M331.139 163.1H316.581V226.312H331.139V163.1Z" fill="#D1DAF7"/>
<path d="M306.572 172.13H292.013V226.312H306.572V172.13Z" fill="#D1DAF7"/>
<path d="M257.436 191.616H242.877V226.074H257.436V191.616Z" fill="#D1DAF7"/>
<path d="M845.057 198.564L887.663 198.564C889.406 198.564 890.375 196.434 889.019 195.272L867.716 173.581C866.941 172.806 865.585 172.806 864.811 173.581L843.507 195.272C842.345 196.627 843.314 198.564 845.057 198.564Z" fill="#EBEBEB"/>
<path d="M880.497 194.691L853.19 194.691L853.19 229.949L880.497 229.949L880.497 194.691Z" fill="#EBEBEB"/>
<path d="M866.647 314.541C887.922 314.248 904.916 296.801 904.605 275.573C904.294 254.344 886.795 237.373 865.521 237.666C844.246 237.96 827.252 255.407 827.563 276.635C827.874 297.863 845.373 314.834 866.647 314.541Z" fill="#D1DAF7"/>
<path d="M868.26 272.703C864.939 271.379 862.651 270.269 861.212 268.945C861.064 268.837 860.954 268.73 860.843 268.587C859.773 267.477 859.256 266.26 859.219 264.614C859.182 261.751 861.212 258.386 866.747 258.314C871.397 258.243 874.349 259.782 875.899 260.641L877.596 255.845C875.53 254.664 872.541 253.554 868.186 253.482L868.112 246.503H867.153L863.611 246.575L863.684 250.225L863.721 253.876C857.116 255.022 852.909 259.603 853.02 265.58C853.02 266.94 853.278 268.157 853.721 269.267C853.758 269.446 853.832 269.589 853.906 269.768C855.566 273.455 859.551 275.781 865.087 277.857C870.437 279.933 873.279 282.331 873.315 286.268C873.389 290.385 869.958 293.355 864.865 293.427C860.843 293.499 857.079 292.174 854.459 290.492L852.872 295.181L852.799 295.36C855.345 297.114 859.699 298.366 863.869 298.366L863.98 305.632L868.518 305.561L868.408 298.08C870.511 297.722 872.393 297.006 873.906 296.04C877.744 293.713 879.662 289.812 879.626 285.732C879.515 279.289 875.751 275.638 868.26 272.703Z" fill="white"/>
<path d="M467.906 425.273H464.562C464.265 423.644 463.842 422.058 463.292 420.536L466.192 418.865L460.54 409.075L457.64 410.745C456.582 409.497 455.417 408.334 454.168 407.277L455.841 404.38L446.04 398.713L444.368 401.61C442.844 401.06 441.256 400.637 439.626 400.341V397H428.301V400.341C426.671 400.637 425.084 401.06 423.56 401.61L421.887 398.713L412.087 404.359L413.759 407.256C412.51 408.313 411.346 409.476 410.288 410.724L407.388 409.053L401.736 418.844L404.636 420.515C404.085 422.037 403.662 423.623 403.366 425.251H400V436.565H403.345C403.641 438.193 404.064 439.779 404.615 441.302L401.715 442.972L407.366 452.763L410.266 451.092C411.325 452.34 412.489 453.503 413.738 454.56L412.066 457.457L421.866 463.103L423.539 460.206C425.063 460.756 426.65 461.179 428.28 461.475V464.816H439.605V461.475C441.235 461.179 442.822 460.756 444.347 460.206L446.019 463.103L455.819 457.457L454.147 454.56C455.396 453.503 456.56 452.34 457.619 451.092L460.519 452.763L466.171 442.972L463.271 441.302C463.821 439.779 464.244 438.193 464.541 436.565H467.885V425.273H467.906ZM452.454 431.532C452.136 441.217 444.241 449.105 434.546 449.422C423.835 449.76 415.093 441.027 415.431 430.327C415.749 420.642 423.644 412.754 433.339 412.437C444.05 412.077 452.814 420.832 452.454 431.532Z" fill="#D1DAF7"/>
<path d="M381.614 96.6543H780.636C783.121 96.6543 785.136 98.669 785.136 101.154V358.171C785.136 360.656 783.121 362.671 780.636 362.671H381.614C379.128 362.671 377.114 360.656 377.114 358.171V101.154C377.114 98.669 379.128 96.6543 381.614 96.6543Z" fill="#C4C4C4" stroke="#151F4F"/>
<path d="M772.808 328.44V107.956L389.445 107.956L389.445 328.44L772.808 328.44Z" fill="white"/>
<path d="M623.958 367.981H611.909C611.909 373.407 604.576 377.805 595.546 377.805H566.674C557.645 377.805 550.312 373.407 550.312 367.981H538.263L526.214 401.951V405.169H636.007V401.951L623.958 367.981Z" fill="#E8E8E8"/>
<path d="M773 108H389V130H773V108Z" fill="#D1DAF7"/>
<path d="M389.946 108.456L772.308 108.456V327.94L389.946 327.94L389.946 108.456Z" stroke="#151F4F"/>
<rect x="402.254" y="139.54" width="354.171" height="10.6251" fill="#E8E8E8"/>
<rect x="473.087" y="196.202" width="162.919" height="5.73114" fill="#E8E8E8"/>
<rect x="473.087" y="183.785" width="162.919" height="5.73114" fill="#E8E8E8"/>
<rect x="473.087" y="172.323" width="162.919" height="5.73114" fill="#E8E8E8"/>
<rect x="473.087" y="159.905" width="162.919" height="5.73114" fill="#E8E8E8"/>
<rect x="402.254" y="159.905" width="64.6363" height="42.0283" fill="#E8E8E8"/>
<rect x="473.087" y="253.514" width="162.919" height="5.73114" fill="#E8E8E8"/>
<rect x="473.087" y="241.096" width="162.919" height="5.73114" fill="#E8E8E8"/>
<rect x="473.087" y="228.679" width="162.919" height="5.73114" fill="#E8E8E8"/>
<rect x="473.087" y="216.261" width="162.919" height="5.73114" fill="#E8E8E8"/>
<rect x="402.254" y="216.261" width="64.6363" height="42.0283" fill="#E8E8E8"/>
<rect x="473.087" y="311.78" width="162.919" height="5.73114" fill="#E8E8E8"/>
<rect x="473.087" y="299.363" width="162.919" height="5.73114" fill="#E8E8E8"/>
<rect x="473.087" y="287.9" width="162.919" height="5.73114" fill="#E8E8E8"/>
<rect x="473.087" y="275.483" width="162.919" height="5.73114" fill="#E8E8E8"/>
<rect x="402.254" y="275.483" width="64.6363" height="42.0283" fill="#E8E8E8"/>
<g filter="url(#filter1_d_910_807)">
<rect x="656.372" y="159.905" width="100.053" height="157.606" rx="5" fill="#D1DAF7"/>
<rect x="656.872" y="160.405" width="99.0534" height="156.606" rx="4.5" stroke="#151F4F"/>
</g>
<path d="M701.874 225.75L700.632 221.671H694.386L693.144 225.75H689.23L695.277 208.546H699.718L705.789 225.75H701.874ZM699.765 218.625L698.523 214.64C698.445 214.375 698.339 214.035 698.207 213.621C698.082 213.199 697.953 212.773 697.82 212.343C697.695 211.906 697.593 211.527 697.515 211.207C697.437 211.527 697.328 211.925 697.187 212.402C697.054 212.871 696.925 213.316 696.8 213.738C696.675 214.16 696.585 214.46 696.531 214.64L695.3 218.625H699.765ZM722.171 217.019C722.171 218.949 721.8 220.562 721.058 221.859C720.324 223.148 719.257 224.121 717.859 224.777C716.46 225.425 714.777 225.75 712.808 225.75H707.957V208.617H713.335C715.132 208.617 716.691 208.937 718.011 209.578C719.332 210.21 720.355 211.152 721.082 212.402C721.808 213.644 722.171 215.183 722.171 217.019ZM718.398 217.113C718.398 215.847 718.21 214.808 717.835 213.996C717.468 213.175 716.921 212.57 716.195 212.179C715.476 211.789 714.585 211.593 713.523 211.593H711.589V222.75H713.148C714.921 222.75 716.238 222.277 717.097 221.332C717.964 220.386 718.398 218.98 718.398 217.113ZM688.773 253.992C688.773 255.007 688.527 255.89 688.035 256.64C687.542 257.39 686.824 257.968 685.878 258.375C684.941 258.781 683.8 258.984 682.457 258.984C681.863 258.984 681.281 258.945 680.71 258.867C680.148 258.789 679.605 258.675 679.082 258.527C678.566 258.371 678.074 258.179 677.605 257.953V254.578C678.417 254.937 679.261 255.261 680.136 255.55C681.011 255.839 681.878 255.984 682.738 255.984C683.332 255.984 683.808 255.906 684.167 255.75C684.535 255.593 684.8 255.378 684.964 255.105C685.128 254.832 685.21 254.519 685.21 254.167C685.21 253.738 685.066 253.371 684.777 253.066C684.488 252.761 684.089 252.476 683.582 252.21C683.082 251.945 682.515 251.66 681.882 251.355C681.484 251.167 681.05 250.941 680.582 250.675C680.113 250.402 679.667 250.07 679.246 249.679C678.824 249.289 678.476 248.816 678.203 248.261C677.937 247.699 677.804 247.027 677.804 246.246C677.804 245.222 678.039 244.347 678.507 243.621C678.976 242.894 679.644 242.339 680.511 241.957C681.386 241.566 682.417 241.371 683.605 241.371C684.496 241.371 685.343 241.476 686.148 241.687C686.96 241.89 687.808 242.187 688.691 242.578L687.519 245.402C686.73 245.082 686.023 244.835 685.398 244.664C684.773 244.484 684.136 244.394 683.488 244.394C683.035 244.394 682.648 244.468 682.328 244.617C682.007 244.757 681.765 244.96 681.601 245.226C681.437 245.484 681.355 245.785 681.355 246.128C681.355 246.535 681.472 246.878 681.707 247.16C681.949 247.433 682.308 247.699 682.785 247.957C683.269 248.214 683.871 248.515 684.589 248.859C685.464 249.273 686.21 249.707 686.828 250.16C687.453 250.605 687.933 251.132 688.269 251.742C688.605 252.343 688.773 253.093 688.773 253.992ZM691.878 258.75V241.617H695.511V255.75H702.46V258.75H691.878ZM720.999 250.16C720.999 251.48 720.835 252.683 720.507 253.769C720.179 254.847 719.679 255.777 719.007 256.558C718.343 257.339 717.499 257.941 716.476 258.363C715.453 258.777 714.242 258.984 712.843 258.984C711.445 258.984 710.234 258.777 709.21 258.363C708.187 257.941 707.339 257.339 706.667 256.558C706.003 255.777 705.507 254.843 705.179 253.757C704.851 252.671 704.687 251.464 704.687 250.136C704.687 248.363 704.976 246.82 705.554 245.507C706.14 244.187 707.039 243.164 708.249 242.437C709.46 241.71 710.999 241.347 712.867 241.347C714.726 241.347 716.253 241.71 717.449 242.437C718.652 243.164 719.542 244.187 720.121 245.507C720.707 246.828 720.999 248.378 720.999 250.16ZM708.496 250.16C708.496 251.355 708.644 252.386 708.941 253.253C709.246 254.113 709.718 254.777 710.359 255.246C710.999 255.707 711.828 255.937 712.843 255.937C713.874 255.937 714.71 255.707 715.351 255.246C715.992 254.777 716.457 254.113 716.746 253.253C717.042 252.386 717.191 251.355 717.191 250.16C717.191 248.363 716.855 246.949 716.183 245.917C715.511 244.886 714.406 244.371 712.867 244.371C711.843 244.371 711.007 244.605 710.359 245.074C709.718 245.535 709.246 246.199 708.941 247.066C708.644 247.925 708.496 248.957 708.496 250.16ZM731.16 258.75H727.527V244.64H722.874V241.617H735.812V244.64H731.16V258.75Z" fill="#151F4F"/>
<path d="M412.429 122.782C414.302 120.91 414.302 117.876 412.429 116.005C410.556 114.134 407.519 114.134 405.645 116.005C403.772 117.876 403.772 120.91 405.645 122.782C407.519 124.653 410.556 124.653 412.429 122.782Z" fill="white"/>
<path d="M428.366 122.793C430.239 120.922 430.239 117.888 428.366 116.016C426.493 114.145 423.456 114.145 421.583 116.016C419.709 117.888 419.709 120.922 421.583 122.793C423.456 124.664 426.493 124.664 428.366 122.793Z" fill="white"/>
<path d="M444.304 122.793C446.177 120.922 446.177 117.888 444.304 116.016C442.431 114.145 439.394 114.145 437.521 116.016C435.647 117.888 435.647 120.922 437.521 122.793C439.394 124.664 442.431 124.664 444.304 122.793Z" fill="white"/>
<path d="M511.588 124.51H468.533C465.903 124.51 463.765 122.373 463.765 119.747V119.689C463.765 117.062 465.903 114.926 468.533 114.926H511.588C514.217 114.926 516.356 117.062 516.356 119.689V119.747C516.384 122.373 514.246 124.51 511.588 124.51Z" fill="white"/>
<path d="M834.252 455.388H746.495C741.785 455.388 738 451.578 738 446.901V269.487C738 264.782 741.814 261 746.495 261H834.252C838.962 261 842.748 264.81 842.748 269.487V446.873C842.777 451.578 838.962 455.388 834.252 455.388Z" fill="#C4C4C4"/>
<path d="M835.456 444.707H744V272.315H764.603H814.853H835.456V444.707Z" fill="white"/>
<path d="M833.888 456.659H746.131C741.103 456.659 737 452.559 737 447.537V270.122C737 265.099 741.103 261 746.131 261H833.888C838.916 261 843.019 265.099 843.019 270.122V447.508C843.019 452.559 838.916 456.659 833.888 456.659ZM746.131 262.27C741.797 262.27 738.271 265.792 738.271 270.122V447.508C738.271 451.838 741.797 455.36 746.131 455.36H833.888C838.223 455.36 841.748 451.838 841.748 447.508V270.122C841.748 265.792 838.223 262.27 833.888 262.27H746.131Z" fill="#151F4F"/>
<path d="M835.713 272.171H744.113V281.322H835.713V272.171Z" fill="#D1DAF7"/>
<rect x="751.997" y="380.116" width="29.2191" height="24.792" fill="#E8E8E8"/>
<rect x="785.644" y="401.366" width="42.5006" height="3.54171" fill="#E8E8E8"/>
<rect x="785.644" y="387.2" width="42.5006" height="3.54171" fill="#E8E8E8"/>
<rect x="785.644" y="394.283" width="42.5006" height="3.54171" fill="#E8E8E8"/>
<rect x="785.644" y="380.116" width="42.5006" height="3.54171" fill="#E8E8E8"/>
<rect x="785.644" y="433.242" width="42.5006" height="3.54171" fill="#E8E8E8"/>
<rect x="785.644" y="419.075" width="42.5006" height="3.54171" fill="#E8E8E8"/>
<rect x="785.644" y="426.158" width="42.5006" height="3.54171" fill="#E8E8E8"/>
<rect x="785.644" y="411.991" width="42.5006" height="3.54171" fill="#E8E8E8"/>
<rect x="751.997" y="411.991" width="29.2191" height="24.792" fill="#E8E8E8"/>
<path d="M322.067 105.051L354.946 99.9762C357.705 117.96 345.127 135.062 327.143 137.82C309.158 140.579 292.057 128.001 289.299 110.016C286.54 92.0323 299.118 74.9307 317.102 72.1724C319.971 71.7311 322.84 71.6207 325.819 71.9517L322.067 105.051Z" fill="#E8E8E8"/>
<path d="M332.77 72.1726L328.798 97.6594L353.843 92.9151C353.733 92.9151 350.092 78.5719 332.77 72.1726Z" fill="#D1DAF7"/>
<path d="M429.045 435.099H173.431C167.652 435.099 163 430.423 163 424.679V251.421C163 245.648 167.681 241 173.431 241H429.016C434.796 241 439.448 245.676 439.448 251.421V424.679C439.477 430.423 434.796 435.099 429.045 435.099Z" fill="#C4C4C4"/>
<path d="M431.473 255.531H175.584V421.107H431.473V255.531Z" fill="white"/>
<rect x="185.323" y="278.552" width="235.524" height="7.96885" fill="#E8E8E8"/>
<rect x="232.428" y="320.482" width="108.341" height="4.24104" fill="#E8E8E8"/>
<rect x="232.428" y="311.293" width="108.341" height="4.24104" fill="#E8E8E8"/>
<rect x="232.428" y="302.811" width="108.341" height="4.24104" fill="#E8E8E8"/>
<rect x="232.428" y="293.623" width="108.341" height="4.24104" fill="#E8E8E8"/>
<rect x="185.323" y="293.623" width="42.9831" height="31.101" fill="#E8E8E8"/>
<rect x="232.428" y="362.893" width="108.341" height="4.24104" fill="#E8E8E8"/>
<rect x="232.428" y="353.704" width="108.341" height="4.24104" fill="#E8E8E8"/>
<rect x="232.428" y="344.515" width="108.341" height="4.24104" fill="#E8E8E8"/>
<rect x="232.428" y="335.326" width="108.341" height="4.24104" fill="#E8E8E8"/>
<rect x="185.323" y="335.326" width="42.9831" height="31.101" fill="#E8E8E8"/>
<rect x="232.428" y="406.01" width="108.341" height="4.24104" fill="#E8E8E8"/>
<rect x="232.428" y="396.821" width="108.341" height="4.24104" fill="#E8E8E8"/>
<rect x="232.428" y="388.339" width="108.341" height="4.24104" fill="#E8E8E8"/>
<rect x="232.428" y="379.15" width="108.341" height="4.24104" fill="#E8E8E8"/>
<rect x="185.323" y="379.15" width="42.9831" height="31.101" fill="#E8E8E8"/>
<g filter="url(#filter2_d_910_807)">
<rect x="349.128" y="293.605" width="71.7197" height="115.991" rx="5" fill="#D1DAF7"/>
<rect x="349.628" y="294.105" width="70.7197" height="114.991" rx="4.5" stroke="#151F4F"/>
</g>
<g filter="url(#filter3_d_910_807)">
<rect x="751.112" y="288.032" width="78.8031" height="83.2303" rx="5" fill="#D1DAF7"/>
<rect x="751.612" y="288.532" width="77.8031" height="82.2303" rx="4.5" stroke="#151F4F"/>
</g>
<path d="M380.841 341.511L379.703 337.773H373.977L372.838 341.511H369.251L374.794 325.742H378.865L384.429 341.511H380.841ZM378.908 334.98L377.769 331.328C377.697 331.084 377.601 330.773 377.479 330.393C377.364 330.006 377.246 329.616 377.125 329.222C377.01 328.821 376.917 328.474 376.845 328.18C376.774 328.474 376.673 328.839 376.544 329.276C376.423 329.706 376.305 330.114 376.19 330.5C376.075 330.887 375.993 331.163 375.943 331.328L374.815 334.98H378.908ZM399.447 333.508C399.447 335.277 399.107 336.756 398.426 337.945C397.753 339.126 396.776 340.018 395.494 340.62C394.212 341.214 392.669 341.511 390.864 341.511H386.417V325.806H391.347C392.994 325.806 394.423 326.1 395.633 326.687C396.844 327.267 397.782 328.13 398.448 329.276C399.114 330.415 399.447 331.825 399.447 333.508ZM395.988 333.594C395.988 332.434 395.816 331.482 395.472 330.737C395.136 329.985 394.634 329.43 393.968 329.072C393.309 328.714 392.493 328.535 391.519 328.535H389.747V338.761H391.175C392.801 338.761 394.008 338.328 394.795 337.461C395.59 336.595 395.988 335.306 395.988 333.594ZM368.832 367.15C368.832 368.081 368.606 368.89 368.155 369.578C367.704 370.265 367.045 370.795 366.178 371.167C365.319 371.54 364.273 371.726 363.042 371.726C362.497 371.726 361.964 371.69 361.441 371.619C360.925 371.547 360.428 371.443 359.948 371.307C359.475 371.164 359.024 370.988 358.594 370.781V367.687C359.339 368.016 360.113 368.314 360.915 368.579C361.717 368.844 362.512 368.976 363.299 368.976C363.844 368.976 364.28 368.904 364.61 368.761C364.947 368.618 365.19 368.421 365.34 368.17C365.491 367.92 365.566 367.633 365.566 367.311C365.566 366.917 365.433 366.581 365.169 366.301C364.904 366.022 364.538 365.761 364.073 365.517C363.614 365.274 363.095 365.012 362.515 364.733C362.15 364.561 361.752 364.353 361.323 364.11C360.893 363.859 360.485 363.555 360.098 363.197C359.711 362.839 359.393 362.405 359.142 361.897C358.899 361.381 358.777 360.765 358.777 360.049C358.777 359.111 358.992 358.309 359.421 357.643C359.851 356.977 360.463 356.469 361.258 356.118C362.06 355.76 363.006 355.581 364.094 355.581C364.911 355.581 365.688 355.677 366.425 355.871C367.17 356.057 367.947 356.329 368.756 356.687L367.682 359.276C366.959 358.982 366.311 358.757 365.738 358.599C365.165 358.434 364.581 358.352 363.987 358.352C363.572 358.352 363.217 358.42 362.923 358.556C362.63 358.685 362.408 358.871 362.257 359.115C362.107 359.351 362.032 359.627 362.032 359.942C362.032 360.314 362.139 360.629 362.354 360.887C362.576 361.138 362.905 361.381 363.342 361.618C363.786 361.854 364.338 362.13 364.997 362.445C365.799 362.824 366.483 363.222 367.048 363.637C367.621 364.045 368.062 364.529 368.37 365.087C368.678 365.639 368.832 366.326 368.832 367.15ZM371.678 371.511V355.806H375.008V368.761H381.378V371.511H371.678ZM398.373 363.637C398.373 364.847 398.222 365.95 397.921 366.946C397.621 367.934 397.162 368.786 396.546 369.502C395.938 370.219 395.164 370.77 394.226 371.157C393.288 371.536 392.178 371.726 390.896 371.726C389.614 371.726 388.504 371.536 387.566 371.157C386.628 370.77 385.851 370.219 385.235 369.502C384.626 368.786 384.171 367.931 383.871 366.935C383.57 365.94 383.419 364.833 383.419 363.616C383.419 361.99 383.684 360.576 384.214 359.373C384.752 358.162 385.575 357.224 386.685 356.558C387.795 355.892 389.206 355.559 390.918 355.559C392.622 355.559 394.022 355.892 395.118 356.558C396.221 357.224 397.037 358.162 397.567 359.373C398.104 360.583 398.373 362.004 398.373 363.637ZM386.911 363.637C386.911 364.733 387.047 365.678 387.319 366.473C387.598 367.261 388.031 367.87 388.619 368.299C389.206 368.722 389.965 368.933 390.896 368.933C391.841 368.933 392.608 368.722 393.195 368.299C393.782 367.87 394.208 367.261 394.473 366.473C394.745 365.678 394.881 364.733 394.881 363.637C394.881 361.99 394.573 360.694 393.958 359.749C393.342 358.803 392.328 358.331 390.918 358.331C389.979 358.331 389.213 358.545 388.619 358.975C388.031 359.398 387.598 360.006 387.319 360.801C387.047 361.589 386.911 362.534 386.911 363.637ZM407.686 371.511H404.356V358.578H400.091V355.806H411.951V358.578H407.686V371.511Z" fill="#151F4F"/>
<path d="M786.367 320.886L785.229 317.148H779.503L778.364 320.886H774.776L780.319 305.117H784.391L789.955 320.886H786.367ZM784.434 314.355L783.295 310.703C783.223 310.459 783.127 310.148 783.005 309.768C782.89 309.381 782.772 308.991 782.65 308.597C782.536 308.196 782.443 307.849 782.371 307.555C782.3 307.849 782.199 308.214 782.07 308.651C781.949 309.081 781.83 309.489 781.716 309.875C781.601 310.262 781.519 310.538 781.469 310.703L780.341 314.355H784.434ZM804.973 312.883C804.973 314.652 804.633 316.131 803.952 317.32C803.279 318.501 802.301 319.393 801.02 319.995C799.738 320.589 798.194 320.886 796.39 320.886H791.942V305.181H796.873C798.52 305.181 799.949 305.475 801.159 306.062C802.37 306.642 803.308 307.505 803.974 308.651C804.64 309.79 804.973 311.2 804.973 312.883ZM801.514 312.969C801.514 311.809 801.342 310.857 800.998 310.112C800.662 309.36 800.16 308.805 799.494 308.447C798.835 308.089 798.019 307.91 797.045 307.91H795.273V318.136H796.701C798.327 318.136 799.534 317.703 800.321 316.836C801.116 315.97 801.514 314.681 801.514 312.969ZM774.357 346.525C774.357 347.456 774.132 348.265 773.681 348.953C773.23 349.64 772.571 350.17 771.704 350.542C770.845 350.915 769.799 351.101 768.567 351.101C768.023 351.101 767.49 351.065 766.967 350.994C766.451 350.922 765.954 350.818 765.474 350.682C765.001 350.539 764.55 350.363 764.12 350.156V347.062C764.865 347.391 765.638 347.689 766.44 347.954C767.243 348.219 768.037 348.351 768.825 348.351C769.37 348.351 769.806 348.279 770.136 348.136C770.472 347.993 770.716 347.796 770.866 347.545C771.017 347.295 771.092 347.008 771.092 346.686C771.092 346.292 770.959 345.956 770.694 345.676C770.429 345.397 770.064 345.136 769.599 344.892C769.14 344.649 768.621 344.387 768.041 344.108C767.676 343.936 767.278 343.728 766.849 343.485C766.419 343.234 766.011 342.93 765.624 342.572C765.237 342.214 764.919 341.78 764.668 341.272C764.425 340.756 764.303 340.14 764.303 339.424C764.303 338.486 764.518 337.684 764.947 337.018C765.377 336.352 765.989 335.844 766.784 335.493C767.586 335.135 768.532 334.956 769.62 334.956C770.437 334.956 771.214 335.052 771.951 335.246C772.696 335.432 773.473 335.704 774.282 336.062L773.208 338.651C772.485 338.357 771.837 338.132 771.264 337.974C770.691 337.809 770.107 337.727 769.513 337.727C769.097 337.727 768.743 337.795 768.449 337.931C768.156 338.06 767.934 338.246 767.783 338.49C767.633 338.726 767.558 339.002 767.558 339.317C767.558 339.689 767.665 340.004 767.88 340.262C768.102 340.513 768.431 340.756 768.868 340.993C769.312 341.229 769.864 341.505 770.523 341.82C771.325 342.199 772.009 342.597 772.574 343.012C773.147 343.42 773.588 343.904 773.896 344.462C774.204 345.014 774.357 345.701 774.357 346.525ZM777.204 350.886V335.181H780.534V348.136H786.904V350.886H777.204ZM803.898 343.012C803.898 344.222 803.748 345.325 803.447 346.321C803.147 347.309 802.688 348.161 802.072 348.877C801.464 349.594 800.69 350.145 799.752 350.532C798.814 350.911 797.704 351.101 796.422 351.101C795.14 351.101 794.03 350.911 793.092 350.532C792.154 350.145 791.377 349.594 790.761 348.877C790.152 348.161 789.697 347.306 789.397 346.31C789.096 345.315 788.945 344.208 788.945 342.991C788.945 341.365 789.21 339.951 789.74 338.748C790.277 337.537 791.101 336.599 792.211 335.933C793.321 335.267 794.732 334.934 796.443 334.934C798.148 334.934 799.548 335.267 800.644 335.933C801.746 336.599 802.563 337.537 803.093 338.748C803.63 339.958 803.898 341.379 803.898 343.012ZM792.437 343.012C792.437 344.108 792.573 345.053 792.845 345.848C793.124 346.636 793.557 347.245 794.145 347.674C794.732 348.097 795.491 348.308 796.422 348.308C797.367 348.308 798.134 348.097 798.721 347.674C799.308 347.245 799.734 346.636 799.999 345.848C800.271 345.053 800.407 344.108 800.407 343.012C800.407 341.365 800.099 340.069 799.483 339.124C798.868 338.178 797.854 337.706 796.443 337.706C795.505 337.706 794.739 337.92 794.145 338.35C793.557 338.773 793.124 339.381 792.845 340.176C792.573 340.964 792.437 341.909 792.437 343.012ZM813.212 350.886H809.882V337.953H805.617V335.181H817.477V337.953H813.212V350.886Z" fill="#151F4F"/>
<path d="M431.473 254.646H175.584V268.813H431.473V254.646Z" fill="#D1DAF7"/>
<path d="M191.931 263.601C193.163 262.466 193.24 260.549 192.105 259.318C190.969 258.088 189.05 258.01 187.818 259.144C186.586 260.279 186.508 262.196 187.643 263.427C188.779 264.658 190.699 264.736 191.931 263.601Z" fill="white"/>
<path d="M202.387 261.855C202.657 260.203 201.534 258.645 199.88 258.376C198.227 258.107 196.668 259.229 196.398 260.881C196.129 262.533 197.251 264.09 198.905 264.359C200.559 264.628 202.118 263.507 202.387 261.855Z" fill="white"/>
<path d="M212.64 262.056C212.909 260.404 211.785 258.847 210.131 258.578C208.477 258.31 206.919 259.432 206.65 261.085C206.382 262.737 207.505 264.294 209.159 264.562C210.813 264.83 212.372 263.708 212.64 262.056Z" fill="white"/>
<path d="M254.895 264.602H227.386C225.797 264.602 224.497 263.303 224.497 261.715V261.398C224.497 259.81 225.797 258.511 227.386 258.511H254.895C256.485 258.511 257.785 259.81 257.785 261.398V261.715C257.756 263.303 256.485 264.602 254.895 264.602Z" fill="white"/>
<path d="M429.681 436.37H174.067C167.97 436.37 163 431.405 163 425.314V252.056C163 245.965 167.97 241 174.067 241H429.652C435.749 241 440.719 245.965 440.719 252.056V425.314C440.748 431.405 435.778 436.37 429.681 436.37ZM174.067 242.27C168.664 242.27 164.271 246.658 164.271 252.056V425.314C164.271 430.712 168.664 435.1 174.067 435.1H429.652C435.056 435.1 439.448 430.712 439.448 425.314V252.056C439.448 246.658 435.056 242.27 429.652 242.27H174.067Z" fill="#363E44"/>
<path d="M175.5 421.5V254.5H431.5V421.5H175.5Z" stroke="#151F4F"/>
<path d="M834.956 444.207H744.5V272.815H764.603H814.853H834.956V444.207Z" stroke="#151F4F"/>
</g>
<defs>
<filter id="filter0_d_910_807" x="0" y="0" width="1040" height="520" filterUnits="userSpaceOnUse" color-interpolation-filters="sRGB">
<feFlood flood-opacity="0" result="BackgroundImageFix"/>
<feColorMatrix in="SourceAlpha" type="matrix" values="0 0 0 0 0 0 0 0 0 0 0 0 0 0 0 0 0 0 127 0" result="hardAlpha"/>
<feOffset dy="2"/>
<feGaussianBlur stdDeviation="7.5"/>
<feComposite in2="hardAlpha" operator="out"/>
<feColorMatrix type="matrix" values="0 0 0 0 0.0823529 0 0 0 0 0.121569 0 0 0 0 0.309804 0 0 0 0.1 0"/>
<feBlend mode="normal" in2="BackgroundImageFix" result="effect1_dropShadow_910_807"/>
<feBlend mode="normal" in="SourceGraphic" in2="effect1_dropShadow_910_807" result="shape"/>
</filter>
<filter id="filter1_d_910_807" x="656.372" y="159.905" width="108.053" height="165.606" filterUnits="userSpaceOnUse" color-interpolation-filters="sRGB">
<feFlood flood-opacity="0" result="BackgroundImageFix"/>
<feColorMatrix in="SourceAlpha" type="matrix" values="0 0 0 0 0 0 0 0 0 0 0 0 0 0 0 0 0 0 127 0" result="hardAlpha"/>
<feOffset dx="4" dy="4"/>
<feGaussianBlur stdDeviation="2"/>
<feComposite in2="hardAlpha" operator="out"/>
<feColorMatrix type="matrix" values="0 0 0 0 0 0 0 0 0 0 0 0 0 0 0 0 0 0 0.2 0"/>
<feBlend mode="normal" in2="BackgroundImageFix" result="effect1_dropShadow_910_807"/>
<feBlend mode="normal" in="SourceGraphic" in2="effect1_dropShadow_910_807" result="shape"/>
</filter>
<filter id="filter2_d_910_807" x="349.128" y="293.605" width="79.7197" height="123.991" filterUnits="userSpaceOnUse" color-interpolation-filters="sRGB">
<feFlood flood-opacity="0" result="BackgroundImageFix"/>
<feColorMatrix in="SourceAlpha" type="matrix" values="0 0 0 0 0 0 0 0 0 0 0 0 0 0 0 0 0 0 127 0" result="hardAlpha"/>
<feOffset dx="4" dy="4"/>
<feGaussianBlur stdDeviation="2"/>
<feComposite in2="hardAlpha" operator="out"/>
<feColorMatrix type="matrix" values="0 0 0 0 0 0 0 0 0 0 0 0 0 0 0 0 0 0 0.2 0"/>
<feBlend mode="normal" in2="BackgroundImageFix" result="effect1_dropShadow_910_807"/>
<feBlend mode="normal" in="SourceGraphic" in2="effect1_dropShadow_910_807" result="shape"/>
</filter>
<filter id="filter3_d_910_807" x="751.112" y="288.032" width="86.8032" height="91.2302" filterUnits="userSpaceOnUse" color-interpolation-filters="sRGB">
<feFlood flood-opacity="0" result="BackgroundImageFix"/>
<feColorMatrix in="SourceAlpha" type="matrix" values="0 0 0 0 0 0 0 0 0 0 0 0 0 0 0 0 0 0 127 0" result="hardAlpha"/>
<feOffset dx="4" dy="4"/>
<feGaussianBlur stdDeviation="2"/>
<feComposite in2="hardAlpha" operator="out"/>
<feColorMatrix type="matrix" values="0 0 0 0 0 0 0 0 0 0 0 0 0 0 0 0 0 0 0.2 0"/>
<feBlend mode="normal" in2="BackgroundImageFix" result="effect1_dropShadow_910_807"/>
<feBlend mode="normal" in="SourceGraphic" in2="effect1_dropShadow_910_807" result="shape"/>
</filter>
</defs>
</svg>
