<svg width="294" height="78" viewBox="0 0 294 78" fill="none" xmlns="http://www.w3.org/2000/svg">
<path d="M14.9723 32.1738V54.6752C14.9723 55.6029 14.6053 56.4926 13.9521 57.1486C13.2988 57.8046 12.4128 58.1732 11.489 58.1732C10.5651 58.1732 9.67912 57.8046 9.02586 57.1486C8.37261 56.4926 8.00561 55.6029 8.00561 54.6752V20.6035H0V54.6752C0.00386713 57.1222 0.782557 59.5044 2.22349 61.4777C3.66443 63.451 5.69295 64.913 8.0158 65.6523C10.2812 66.382 12.7171 66.382 14.9825 65.6523C17.3054 64.913 19.3339 63.451 20.7748 61.4777C22.2158 59.5044 22.9944 57.1222 22.9983 54.6752V26.3644H14.9723V32.1738Z" fill="#151F4F"/>
<path d="M53.2258 29.5659H45.21V66.1997H53.2258V29.5659Z" fill="#151F4F"/>
<path d="M87.7051 29.5655C86.5164 29.5813 85.3358 29.7664 84.1989 30.1153C81.8816 30.8783 79.8613 32.3527 78.4231 34.3305C76.9849 36.3083 76.2014 38.6895 76.1831 41.1384V54.629H76.1347C76.1354 55.092 76.0451 55.5506 75.869 55.9786C75.6929 56.4065 75.4346 56.7954 75.1086 57.1229C74.7827 57.4504 74.3957 57.7102 73.9696 57.8873C73.5436 58.0644 73.087 58.1554 72.6259 58.1551C72.1679 58.1541 71.7146 58.062 71.2922 57.8842C70.8698 57.7063 70.4867 57.4462 70.1649 57.1188C69.8432 56.7914 69.5892 56.4033 69.4177 55.9769C69.2461 55.5504 69.1604 55.094 69.1654 54.6341V37.6149H72.5342V29.5655H69.1654V21.8818H61.1496V29.5655H57.7783V37.6149H61.1496V54.629C61.1525 57.0817 61.93 59.4703 63.3704 61.4511C64.8108 63.4318 66.8398 64.9027 69.1654 65.6521C70.2824 66.0189 71.4507 66.2036 72.6259 66.1993C75.4017 66.198 78.0826 65.1849 80.1706 63.3483C81.3468 64.3778 82.7166 65.1603 84.1989 65.6496C85.3308 66.0198 86.5147 66.2046 87.7051 66.1968C90.7528 66.1839 93.6714 64.9593 95.8221 62.7909C97.9729 60.6225 99.1807 57.6869 99.1814 54.6265H91.1579C91.164 55.0864 91.0793 55.5429 90.9087 55.9698C90.738 56.3966 90.4849 56.7853 90.1639 57.1134C89.8429 57.4415 89.4603 57.7024 89.0383 57.8812C88.6163 58.06 88.1632 58.1531 87.7051 58.1551C86.7754 58.1544 85.884 57.7832 85.2266 57.1231C84.5692 56.4629 84.1995 55.5677 84.1989 54.6341V50.1006H99.1814V41.1384C99.1807 38.0777 97.973 35.1418 95.8223 32.973C93.6716 30.8042 90.7531 29.5791 87.7051 29.5655ZM91.1579 42.0461H84.1989V41.1333C84.2068 40.2017 84.5787 39.3105 85.2345 38.6515C85.8902 37.9926 86.7775 37.6185 87.7051 37.6098C88.6277 37.6219 89.5082 37.9995 90.1549 38.6604C90.8015 39.3213 91.1621 40.2119 91.1579 41.1384V42.0461Z" fill="#151F4F"/>
<path d="M192.751 29.5659H184.735V66.1997H192.751V29.5659Z" fill="#151F4F"/>
<path d="M213.154 30.1153C210.89 29.3822 208.453 29.3822 206.188 30.1153C203.865 30.8698 201.84 32.342 200.4 34.3217C198.96 36.3013 198.181 38.6871 198.172 41.1384V51.3816C198.182 53.827 198.963 56.2063 200.403 58.1784C201.843 60.1504 203.868 61.6138 206.188 62.3587C208.453 63.0884 210.889 63.0884 213.154 62.3587V66.4754C213.154 67.4032 212.787 68.2929 212.134 68.9489C211.481 69.6049 210.595 69.9734 209.671 69.9734C208.747 69.9734 207.861 69.6049 207.208 68.9489C206.555 68.2929 206.188 67.4032 206.188 66.4754H198.172C198.168 67.6555 198.352 68.8287 198.717 69.9504C199.278 71.7073 200.248 73.3044 201.548 74.6088C202.847 75.9132 204.438 76.8873 206.188 77.45C208.453 78.1831 210.89 78.1831 213.154 77.45C214.9 76.8802 216.488 75.9037 217.786 74.6003C219.084 73.2969 220.057 71.7035 220.625 69.9504C220.968 68.8235 221.152 67.6537 221.17 66.4754V29.5655H213.154V30.1153ZM213.154 51.3816C213.154 52.3093 212.787 53.1991 212.134 53.855C211.481 54.511 210.595 54.8796 209.671 54.8796C208.747 54.8796 207.861 54.511 207.208 53.855C206.555 53.1991 206.188 52.3093 206.188 51.3816V41.1384C206.188 40.2107 206.555 39.321 207.208 38.665C207.861 38.009 208.747 37.6404 209.671 37.6404C210.595 37.6404 211.481 38.009 212.134 38.665C212.787 39.321 213.154 40.2107 213.154 41.1384V51.3816Z" fill="#151F4F"/>
<path d="M234.607 29.5659H226.591V66.1997H234.607V29.5659Z" fill="#151F4F"/>
<path d="M272.547 30.1153C270.282 29.3823 267.844 29.3823 265.578 30.1153C263.832 30.6849 262.245 31.6613 260.947 32.9648C259.649 34.2683 258.677 35.8617 258.11 37.6149C257.792 38.5762 257.608 39.5769 257.562 40.5887H265.624C265.754 39.713 266.21 38.9196 266.9 38.3684C267.59 37.8173 268.462 37.5496 269.341 37.6194C270.22 37.6892 271.04 38.0913 271.635 38.7444C272.23 39.3976 272.556 40.2532 272.547 41.1384V42.9667C270.282 42.2337 267.844 42.2337 265.578 42.9667C263.255 43.7056 261.226 45.1675 259.785 47.1409C258.344 49.1142 257.566 51.4967 257.562 53.9437V54.629H257.514C257.514 55.0917 257.424 55.55 257.248 55.9776C257.072 56.4052 256.814 56.7938 256.488 57.1213C256.162 57.4487 255.776 57.7085 255.35 57.8859C254.925 58.0633 254.468 58.1547 254.008 58.1551C253.55 58.1541 253.096 58.062 252.674 57.8842C252.251 57.7064 251.868 57.4463 251.546 57.119C251.224 56.7916 250.97 56.4035 250.798 55.9771C250.626 55.5506 250.54 55.0942 250.545 54.6341V37.6149H253.916V29.5655H250.557V21.8818H242.542V29.5655H239.173V37.6149H242.542V54.629C242.545 57.0816 243.323 59.47 244.763 61.4507C246.203 63.4314 248.232 64.9024 250.557 65.6521C251.675 66.0187 252.844 66.2034 254.02 66.1993C256.792 66.1977 259.468 65.1875 261.555 63.356C262.733 64.3873 264.105 65.1699 265.591 65.6572C267.857 66.3868 270.294 66.3868 272.56 65.6572C274.886 64.9075 276.914 63.4365 278.355 61.4558C279.795 59.4751 280.573 57.0867 280.576 54.6341V41.1384C280.583 39.942 280.398 38.7523 280.028 37.6149C279.453 35.8642 278.476 34.2735 277.177 32.971C275.877 31.6684 274.292 30.6903 272.547 30.1153ZM272.547 54.629C272.548 55.0917 272.457 55.55 272.281 55.9776C272.105 56.4052 271.847 56.7938 271.521 57.1213C271.196 57.4487 270.809 57.7085 270.384 57.8859C269.958 58.0633 269.502 58.1547 269.041 58.1551C268.583 58.1541 268.13 58.062 267.707 57.8842C267.284 57.7064 266.901 57.4463 266.579 57.119C266.257 56.7916 266.003 56.4035 265.831 55.9771C265.659 55.5506 265.573 55.0942 265.578 54.6341V53.9489C265.578 53.4921 265.667 53.0397 265.841 52.6177C266.015 52.1956 266.27 51.8121 266.592 51.4892C266.913 51.1662 267.295 50.91 267.715 50.7354C268.136 50.5608 268.586 50.471 269.041 50.4714C269.964 50.4693 270.851 50.8336 271.507 51.485C272.164 52.1364 272.538 53.022 272.547 53.9489V54.629Z" fill="#151F4F"/>
<path d="M294 17.7676H285.984V66.2018H294V17.7676Z" fill="#151F4F"/>
<path d="M31.6534 30.1157C30.5314 29.7703 29.3665 29.5852 28.193 29.5659C27.3463 29.5717 26.5027 29.6703 25.6772 29.86V38.7045C26.1558 38.1956 26.7761 37.8437 27.4572 37.6948C28.1382 37.5459 28.8482 37.607 29.4941 37.8701C30.1399 38.1332 30.6916 38.586 31.077 39.1692C31.4623 39.7525 31.6632 40.4389 31.6534 41.1388V66.1971H39.6692V41.1388C39.6606 38.6875 38.8808 36.3017 37.4412 34.3221C36.0016 32.3424 33.976 30.8702 31.6534 30.1157Z" fill="#151F4F"/>
<path d="M116.183 66.1992C113.136 66.1864 110.217 64.9618 108.066 62.7934C105.916 60.625 104.708 57.6894 104.707 54.6289V41.1383C104.708 38.0776 105.915 35.1417 108.066 32.9729C110.217 30.8041 113.135 29.579 116.183 29.5655C117.373 29.5814 118.554 29.7665 119.692 30.1152V17.7676H127.708V66.1992H119.692V65.652C118.559 66.0221 117.375 66.2068 116.183 66.1992ZM116.183 37.6148C115.26 37.6249 114.379 38.0009 113.73 38.6609C113.082 39.3209 112.72 40.2114 112.723 41.1383V54.6289C112.717 55.0893 112.802 55.5462 112.974 55.9732C113.145 56.4003 113.399 56.789 113.72 57.1169C114.042 57.4448 114.426 57.7054 114.848 57.8836C115.271 58.0618 115.725 58.154 116.183 58.155C117.113 58.155 118.006 57.7841 118.663 57.1239C119.321 56.4636 119.691 55.5681 119.692 54.634V41.1383C119.684 40.2063 119.312 39.3147 118.656 38.6557C117.999 37.9966 117.111 37.6228 116.183 37.6148Z" fill="#151F4F"/>
<path d="M156.316 20.6035H167.802C170.855 20.615 173.779 21.8377 175.937 24.005C178.095 26.1724 179.313 29.1087 179.324 32.1738V54.6752C179.312 57.7357 178.092 60.6664 175.933 62.8262C173.773 64.9859 170.85 66.1988 167.802 66.1995H156.316V20.6035ZM164.332 28.6529V58.1552H167.802C168.723 58.1494 169.604 57.7829 170.259 57.1337C170.914 56.4846 171.291 55.6042 171.309 54.6803V32.1789C171.302 31.2467 170.931 30.3545 170.275 29.6948C169.619 29.0351 168.731 28.6609 167.802 28.6529H164.332Z" fill="#151F4F"/>
<path d="M49.1262 17.7676H49.3095C50.3482 17.7676 51.3443 18.1819 52.0787 18.9194C52.8132 19.6569 53.2258 20.6572 53.2258 21.7002C53.2258 22.7432 52.8132 23.7435 52.0787 24.481C51.3443 25.2185 50.3482 25.6328 49.3095 25.6328H49.1262C48.0875 25.6328 47.0914 25.2185 46.357 24.481C45.6226 23.7435 45.21 22.7432 45.21 21.7002C45.21 20.6572 45.6226 19.6569 46.357 18.9194C47.0914 18.1819 48.0875 17.7676 49.1262 17.7676Z" fill="#FF6839"/>
<path d="M188.652 17.7676H188.835C189.874 17.7676 190.87 18.1819 191.604 18.9194C192.339 19.6569 192.751 20.6572 192.751 21.7002C192.751 22.7432 192.339 23.7435 191.604 24.481C190.87 25.2185 189.874 25.6328 188.835 25.6328H188.652C187.613 25.6328 186.617 25.2185 185.882 24.481C185.148 23.7435 184.735 22.7432 184.735 21.7002C184.735 20.6572 185.148 19.6569 185.882 18.9194C186.617 18.1819 187.613 17.7676 188.652 17.7676Z" fill="#FF6839"/>
<path d="M230.508 17.7676H230.688C231.727 17.7676 232.723 18.1819 233.458 18.9194C234.192 19.6569 234.605 20.6572 234.605 21.7002C234.605 22.7432 234.192 23.7435 233.458 24.481C232.723 25.2185 231.727 25.6328 230.688 25.6328H230.508C229.469 25.6328 228.473 25.2185 227.738 24.481C227.004 23.7435 226.591 22.7432 226.591 21.7002C226.591 20.6572 227.004 19.6569 227.738 18.9194C228.473 18.1819 229.469 17.7676 230.508 17.7676Z" fill="#FF6839"/>
<path d="M105.02 23.4468C107.984 17.755 112.516 12.8814 117.815 9.06131C123.194 5.22678 129.291 2.52508 135.737 1.11889C142.183 -0.28731 148.846 -0.368913 155.325 0.878991C161.737 2.15748 167.883 4.69656 172.92 8.65219C171.375 8.26354 169.839 7.89789 168.311 7.55525C166.783 7.21262 165.268 6.92112 163.763 6.68077C160.779 6.18484 157.767 5.86977 154.744 5.73724C148.808 5.46071 142.86 5.94967 137.048 7.19216C131.241 8.4532 125.626 10.477 120.346 13.2113C119.014 13.9017 117.696 14.6313 116.392 15.4001C115.093 16.1825 113.802 16.993 112.529 17.8496C111.256 18.7062 110.008 19.6139 108.753 20.5447C107.498 21.4754 106.273 22.4496 105.02 23.4468Z" fill="#FF6839"/>
<path d="M138.55 27.3155C138.851 26.4947 139.314 26.0831 139.971 26.0831H148.239C148.575 26.0803 148.898 26.2076 149.143 26.4385C149.267 26.5477 149.366 26.6827 149.433 26.8341C149.5 26.9856 149.533 27.1499 149.53 27.3155V50.5993H157.752C157.919 50.5961 158.085 50.63 158.238 50.6985C158.391 50.767 158.526 50.8685 158.636 50.9957C158.867 51.2413 158.995 51.5676 158.992 51.9059V55.7977C158.994 56.1351 158.867 56.4604 158.636 56.7054C158.527 56.8295 158.393 56.9285 158.243 56.9956C158.092 57.0627 157.929 57.0963 157.765 57.094H149.53V64.9414C149.533 65.1071 149.5 65.2714 149.433 65.4229C149.366 65.5744 149.267 65.7094 149.143 65.8184C148.899 66.0503 148.575 66.1777 148.239 66.1739H143.073C142.737 66.1783 142.412 66.0507 142.169 65.8184C142.044 65.7094 141.945 65.5744 141.879 65.4229C141.812 65.2714 141.779 65.1071 141.782 64.9414V57.0864H132.36C132.196 57.0892 132.032 57.0558 131.882 56.9887C131.732 56.9216 131.598 56.8222 131.489 56.6977C131.257 56.4534 131.129 56.1277 131.133 55.79V49.9524C131.139 49.7559 131.161 49.5601 131.197 49.3669C131.212 49.1811 131.28 49.0036 131.393 48.8555L138.55 27.3155ZM141.782 39.2489L138.487 50.5993H141.782V39.2489Z" fill="#FF6839"/>
</svg>
