<svg width="787" height="505" viewBox="0 0 787 505" fill="none" xmlns="http://www.w3.org/2000/svg">
<rect x="117" y="70.8325" width="53.0432" height="53.0432" transform="rotate(-14 117 70.8325)" fill="white"/>
<rect y="299.193" width="115.903" height="144.183" transform="rotate(-56.9897 0 299.193)" fill="white"/>
<path d="M568.009 65.7549C567.442 32.6922 593.893 5.29735 626.767 4.73056C659.64 4.16378 686.846 30.614 687.413 63.6767C687.98 96.7394 661.53 124.134 628.656 124.701C595.782 125.268 568.576 98.8176 568.009 65.7549ZM656.428 64.2435C656.239 48.3734 643.203 35.7151 627.333 36.0929C611.652 36.2818 598.994 49.5069 599.183 65.1881C599.372 81.0582 612.408 93.7165 628.278 93.3387C643.959 93.1497 656.617 80.1136 656.428 64.2435Z" fill="#C4C4C4"/>
<path d="M568.02 65.7544C567.453 32.6917 593.904 5.29686 626.777 4.73007L627.344 36.0924C611.663 36.2814 599.005 49.5064 599.193 65.1876C599.382 81.0577 612.419 93.716 628.289 93.3382L628.855 124.701C595.793 125.267 568.587 98.8171 568.02 65.7544Z" fill="#E8E8E8"/>
<path d="M621.485 0.00829467C660.026 -0.55849 690.822 29.2924 691.389 68.023L654.925 68.5898C654.547 50.0747 640.567 38.3611 622.052 38.7389L621.485 0.00829467Z" fill="#D1DAF7"/>
<rect x="212.929" y="71.1865" width="412.449" height="261.378" fill="white"/>
<path d="M624.305 356.604C631.226 356.604 636.837 350.993 636.837 344.072L636.837 68.2161C636.837 61.2944 631.226 55.6836 624.305 55.6836L419.53 55.6836L214.755 55.6836C207.833 55.6836 202.223 61.2944 202.223 68.2161L202.223 344.072C202.223 350.993 207.834 356.604 214.755 356.604L624.305 356.604ZM624.696 74.9551L624.696 331.985L213.918 331.985L213.918 74.9551L624.696 74.9551Z" fill="#C4C4C4" stroke="#151F4F"/>
<path d="M686.924 359.893C687.476 359.893 687.924 359.445 687.924 358.893L687.924 352.539L151.582 352.539L151.582 358.893C151.582 359.445 152.029 359.893 152.582 359.893L686.924 359.893Z" fill="white" stroke="#151F4F" stroke-width="2"/>
<path d="M661.989 366.203C658.462 366.898 654.875 367.248 651.279 367.248L187.376 367.248C183.666 367.248 179.965 366.875 176.329 366.135L150.582 360.893L688.924 360.893L661.989 366.203Z" fill="#C4C4C4"/>
<path d="M383.203 358.503L456.47 358.503C460.55 358.503 463.858 355.195 463.858 351.114L375.814 351.114C375.814 355.195 379.122 358.503 383.203 358.503Z" fill="#151F4F"/>
<path d="M275.67 159.62V190.111C275.628 191.341 275.11 192.506 274.224 193.361C273.339 194.216 272.156 194.694 270.924 194.694C269.693 194.694 268.51 194.216 267.625 193.361C266.739 192.506 266.221 191.341 266.179 190.111V143.932H255.256V190.133C255.26 193.451 256.321 196.681 258.285 199.356C260.249 202.031 263.013 204.012 266.179 205.013C269.264 206.01 272.585 206.01 275.67 205.013C278.836 204.012 281.6 202.031 283.564 199.356C285.528 196.681 286.589 193.451 286.593 190.133V151.748H275.67V159.62Z" fill="#151F4F"/>
<path d="M325.663 143.932H341.301C345.46 143.946 349.445 145.604 352.385 148.543C355.326 151.482 356.985 155.464 357 159.62V190.111C356.982 194.261 355.321 198.235 352.379 201.164C349.436 204.092 345.453 205.737 341.301 205.739H325.663V143.932ZM336.585 154.847V194.845H341.301C342.554 194.837 343.755 194.34 344.647 193.459C345.539 192.579 346.052 191.386 346.077 190.133V159.643C346.067 158.38 345.56 157.172 344.667 156.279C343.773 155.386 342.564 154.88 341.301 154.869L336.585 154.847Z" fill="#151F4F"/>
<path d="M240.505 147.789C244.544 140.078 250.718 133.464 257.941 128.275C265.26 123.066 273.565 119.402 282.349 117.509C291.134 115.61 300.211 115.502 309.038 117.193C317.764 118.901 326.14 122.366 333.003 127.727C330.887 127.202 328.798 126.706 326.734 126.241C324.67 125.775 322.61 125.38 320.554 125.054C316.485 124.374 312.378 123.942 308.256 123.763C300.168 123.385 292.066 124.046 284.147 125.731C276.239 127.443 268.592 130.189 261.402 133.897C259.59 134.832 257.793 135.82 256.01 136.863C254.241 137.921 252.482 139.025 250.751 140.189C249.021 141.353 247.312 142.584 245.603 143.842C243.895 145.101 242.214 146.437 240.505 147.789Z" fill="#FF6839"/>
<path d="M301.455 153.034C301.866 151.926 302.515 151.371 303.391 151.371H314.658C315.116 151.368 315.558 151.543 315.889 151.859C316.064 152.003 316.204 152.185 316.3 152.39C316.396 152.595 316.445 152.819 316.444 153.045V184.645H327.6C327.827 184.645 328.051 184.695 328.257 184.791C328.463 184.887 328.646 185.026 328.793 185.199C329.106 185.532 329.278 185.973 329.275 186.43V191.707C329.281 192.165 329.108 192.606 328.793 192.938C328.646 193.112 328.464 193.251 328.258 193.347C328.052 193.443 327.827 193.492 327.6 193.492H316.416V204.131C316.417 204.357 316.368 204.581 316.272 204.786C316.176 204.992 316.036 205.173 315.862 205.317C315.531 205.636 315.089 205.811 314.63 205.805H307.629C307.17 205.811 306.728 205.636 306.398 205.317C306.223 205.173 306.083 204.992 305.987 204.786C305.891 204.581 305.842 204.357 305.843 204.131V193.404H293.006C292.78 193.404 292.556 193.354 292.351 193.258C292.146 193.163 291.964 193.023 291.819 192.849C291.504 192.518 291.331 192.076 291.337 191.619V183.73C291.345 183.464 291.375 183.199 291.425 182.937C291.442 182.682 291.532 182.437 291.686 182.233L301.455 153.034ZM305.86 169.222L301.366 184.611H305.86V169.222Z" fill="#FF6839"/>
<mask id="path-15-inside-1_573_4001" fill="white">
<path d="M476.496 157.885C476.488 157.878 476.473 157.878 476.45 157.885H466.074V167.74C465.964 167.883 465.916 167.97 465.939 167.992C465.954 168.007 466 167.992 466.074 167.95V184.349C465.969 184.483 465.922 184.561 465.939 184.578C465.952 184.59 465.997 184.569 466.074 184.52V213.224C465.969 213.358 465.922 213.436 465.939 213.453C465.952 213.464 465.997 213.444 466.074 213.395V229.81C465.969 229.943 465.922 230.022 465.939 230.038C465.952 230.05 465.997 230.03 466.074 229.98V260.907C465.969 261.041 465.922 261.119 465.939 261.136C465.952 261.148 465.997 261.128 466.074 261.078V277.493C465.969 277.626 465.922 277.704 465.939 277.721C465.952 277.733 465.997 277.713 466.074 277.663V292.622H466.21C466.215 292.626 466.224 292.626 466.238 292.622H483.669V276.007C483.775 275.873 483.823 275.794 483.805 275.777C483.793 275.765 483.747 275.787 483.669 275.839V228.453C483.775 228.319 483.823 228.241 483.805 228.224C483.793 228.212 483.747 228.232 483.669 228.282V182.993C483.775 182.859 483.823 182.78 483.805 182.763C483.793 182.739 483.747 182.75 483.669 182.792V157.885L476.496 157.885Z"/>
<path d="M244.241 260.618H261.836V275.965C261.913 275.915 261.959 275.895 261.972 275.907C261.989 275.924 261.942 276.002 261.836 276.136V292.622H244.615C244.476 292.723 244.394 292.768 244.377 292.752C244.364 292.74 244.385 292.696 244.437 292.622H244.241V277.663C244.164 277.713 244.118 277.733 244.106 277.721C244.088 277.705 244.135 277.626 244.241 277.493V260.618Z"/>
<path d="M282.544 273.705H300.139V276.166C300.144 276.171 300.144 276.181 300.139 276.195V292.622H283.118C282.774 292.9 282.573 293.038 282.544 293.011C282.521 292.989 282.615 292.854 282.811 292.622H282.544V273.705Z"/>
<path d="M318.14 249.733H330.283C330.302 249.727 330.315 249.727 330.322 249.733L335.735 249.733V261.135L335.737 261.137L335.738 261.139L335.739 261.143L335.739 261.147L335.738 261.154C335.738 261.157 335.737 261.161 335.735 261.165V276.196C335.894 276.075 335.987 276.019 336.006 276.037C336.03 276.059 335.934 276.196 335.735 276.43V293.27H318.14V277.98C318.136 277.975 318.136 277.967 318.14 277.955V249.733Z"/>
<path d="M355.361 247.934H372.956V253.635C372.961 253.64 372.961 253.649 372.956 253.662V292.752H355.361V292.622L355.359 292.619L355.358 292.617L355.358 292.614C355.357 292.611 355.358 292.608 355.358 292.603L355.36 292.598L355.361 292.595V247.934Z"/>
<path d="M445.773 194.924H428.178V215.11C428.173 215.124 428.173 215.133 428.177 215.137L428.178 229.645C427.978 229.879 427.883 230.016 427.906 230.038C427.925 230.056 428.018 230.003 428.178 229.885V245.041C428.175 245.047 428.174 245.053 428.174 245.057C428.174 245.062 428.175 245.066 428.177 245.069L428.178 260.742C427.978 260.977 427.883 261.113 427.906 261.136C427.925 261.153 428.018 261.1 428.178 260.982V277.328C427.978 277.562 427.883 277.699 427.906 277.721C427.925 277.739 428.018 277.685 428.178 277.568V292.595C428.174 292.604 428.173 292.61 428.174 292.615L428.177 292.622C428.181 292.625 428.186 292.626 428.193 292.625C428.196 292.625 428.2 292.624 428.205 292.622H445.773V275.804C445.777 275.791 445.777 275.782 445.773 275.777L445.773 228.251C445.777 228.237 445.777 228.228 445.773 228.224L445.773 198.319C445.777 198.306 445.777 198.297 445.773 198.293L445.773 194.924Z"/>
<path d="M503.701 145.023H521.296V224.323V292.622H503.701V292.469C503.542 292.587 503.449 292.64 503.43 292.622C503.407 292.6 503.502 292.463 503.701 292.229V277.358C503.376 277.619 503.187 277.747 503.159 277.721C503.127 277.69 503.32 277.442 503.701 277.02V260.773C503.376 261.033 503.187 261.162 503.159 261.136C503.127 261.105 503.32 260.857 503.701 260.434V244.916C503.542 245.033 503.449 245.086 503.43 245.069C503.407 245.046 503.502 244.91 503.701 244.676V229.675C503.376 229.936 503.187 230.064 503.159 230.038C503.127 230.007 503.32 229.76 503.701 229.337V145.023Z"/>
<path d="M595.06 124.677H577.465V215.235C577.174 215.565 577.03 215.758 577.059 215.785C577.082 215.807 577.223 215.717 577.465 215.529V229.489C577.174 229.819 577.03 230.011 577.059 230.038C577.082 230.061 577.223 229.971 577.465 229.782V244.84C577.359 244.974 577.312 245.052 577.33 245.069C577.342 245.08 577.388 245.06 577.465 245.011V260.586C577.174 260.916 577.03 261.108 577.059 261.136C577.082 261.158 577.223 261.068 577.465 260.88V277.172C577.174 277.502 577.03 277.694 577.059 277.721C577.082 277.743 577.223 277.654 577.465 277.465V292.394C577.359 292.527 577.312 292.605 577.33 292.622C577.342 292.634 577.388 292.614 577.465 292.564V292.622H595.06V124.677Z"/>
<path d="M558.787 138.197H555.809C555.803 138.191 555.792 138.191 555.776 138.197H541.192V183.229C541.188 183.24 541.187 183.249 541.188 183.255L541.192 183.262L541.192 198.265C541.19 198.272 541.188 198.278 541.188 198.282C541.188 198.287 541.19 198.29 541.192 198.292L541.192 213.425C541.189 213.434 541.188 213.441 541.189 213.446L541.192 213.453L541.192 230.011C541.19 230.018 541.188 230.024 541.188 230.029C541.189 230.033 541.19 230.036 541.192 230.038L541.192 261.108C541.187 261.122 541.187 261.131 541.192 261.136L541.192 277.694C541.187 277.707 541.187 277.717 541.192 277.721L541.192 292.752H558.787V276.17C558.986 275.936 559.081 275.8 559.057 275.777C559.039 275.76 558.946 275.815 558.787 275.936V260.903C558.792 260.89 558.792 260.881 558.787 260.876V244.318C558.792 244.305 558.792 244.296 558.787 244.291V228.616C558.986 228.382 559.081 228.246 559.057 228.224C559.039 228.206 558.946 228.259 558.787 228.376L558.787 213.22C558.792 213.207 558.792 213.198 558.787 213.194L558.787 196.635L558.789 196.628L558.79 196.626L558.79 196.621C558.791 196.615 558.79 196.611 558.787 196.608L558.787 181.475C558.792 181.461 558.792 181.452 558.787 181.448L558.787 138.197Z"/>
<path d="M404.173 216.52H409.635V260.934C409.712 260.885 409.758 260.865 409.77 260.876C409.787 260.893 409.74 260.971 409.635 261.105V276.043C409.877 275.849 410.018 275.755 410.041 275.777C410.069 275.805 409.925 275.997 409.635 276.327V292.622H392.474C392.46 292.626 392.451 292.626 392.446 292.622H392.04V216.52H403.956C404.108 216.415 404.199 216.369 404.221 216.39C404.235 216.404 404.219 216.448 404.173 216.52Z"/>
</mask>
<path d="M476.496 157.885C476.488 157.878 476.473 157.878 476.45 157.885H466.074V167.74C465.964 167.883 465.916 167.97 465.939 167.992C465.954 168.007 466 167.992 466.074 167.95V184.349C465.969 184.483 465.922 184.561 465.939 184.578C465.952 184.59 465.997 184.569 466.074 184.52V213.224C465.969 213.358 465.922 213.436 465.939 213.453C465.952 213.464 465.997 213.444 466.074 213.395V229.81C465.969 229.943 465.922 230.022 465.939 230.038C465.952 230.05 465.997 230.03 466.074 229.98V260.907C465.969 261.041 465.922 261.119 465.939 261.136C465.952 261.148 465.997 261.128 466.074 261.078V277.493C465.969 277.626 465.922 277.704 465.939 277.721C465.952 277.733 465.997 277.713 466.074 277.663V292.622H466.21C466.215 292.626 466.224 292.626 466.238 292.622H483.669V276.007C483.775 275.873 483.823 275.794 483.805 275.777C483.793 275.765 483.747 275.787 483.669 275.839V228.453C483.775 228.319 483.823 228.241 483.805 228.224C483.793 228.212 483.747 228.232 483.669 228.282V182.993C483.775 182.859 483.823 182.78 483.805 182.763C483.793 182.739 483.747 182.75 483.669 182.792V157.885L476.496 157.885Z" fill="#FF6839"/>
<path d="M244.241 260.618H261.836V275.965C261.913 275.915 261.959 275.895 261.972 275.907C261.989 275.924 261.942 276.002 261.836 276.136V292.622H244.615C244.476 292.723 244.394 292.768 244.377 292.752C244.364 292.74 244.385 292.696 244.437 292.622H244.241V277.663C244.164 277.713 244.118 277.733 244.106 277.721C244.088 277.705 244.135 277.626 244.241 277.493V260.618Z" fill="#FF6839"/>
<path d="M282.544 273.705H300.139V276.166C300.144 276.171 300.144 276.181 300.139 276.195V292.622H283.118C282.774 292.9 282.573 293.038 282.544 293.011C282.521 292.989 282.615 292.854 282.811 292.622H282.544V273.705Z" fill="#FF6839"/>
<path d="M318.14 249.733H330.283C330.302 249.727 330.315 249.727 330.322 249.733L335.735 249.733V261.135L335.737 261.137L335.738 261.139L335.739 261.143L335.739 261.147L335.738 261.154C335.738 261.157 335.737 261.161 335.735 261.165V276.196C335.894 276.075 335.987 276.019 336.006 276.037C336.03 276.059 335.934 276.196 335.735 276.43V293.27H318.14V277.98C318.136 277.975 318.136 277.967 318.14 277.955V249.733Z" fill="#FF6839"/>
<path d="M355.361 247.934H372.956V253.635C372.961 253.64 372.961 253.649 372.956 253.662V292.752H355.361V292.622L355.359 292.619L355.358 292.617L355.358 292.614C355.357 292.611 355.358 292.608 355.358 292.603L355.36 292.598L355.361 292.595V247.934Z" fill="#FF6839"/>
<path d="M445.773 194.924H428.178V215.11C428.173 215.124 428.173 215.133 428.177 215.137L428.178 229.645C427.978 229.879 427.883 230.016 427.906 230.038C427.925 230.056 428.018 230.003 428.178 229.885V245.041C428.175 245.047 428.174 245.053 428.174 245.057C428.174 245.062 428.175 245.066 428.177 245.069L428.178 260.742C427.978 260.977 427.883 261.113 427.906 261.136C427.925 261.153 428.018 261.1 428.178 260.982V277.328C427.978 277.562 427.883 277.699 427.906 277.721C427.925 277.739 428.018 277.685 428.178 277.568V292.595C428.174 292.604 428.173 292.61 428.174 292.615L428.177 292.622C428.181 292.625 428.186 292.626 428.193 292.625C428.196 292.625 428.2 292.624 428.205 292.622H445.773V275.804C445.777 275.791 445.777 275.782 445.773 275.777L445.773 228.251C445.777 228.237 445.777 228.228 445.773 228.224L445.773 198.319C445.777 198.306 445.777 198.297 445.773 198.293L445.773 194.924Z" fill="#FF6839"/>
<path d="M503.701 145.023H521.296V224.323V292.622H503.701V292.469C503.542 292.587 503.449 292.64 503.43 292.622C503.407 292.6 503.502 292.463 503.701 292.229V277.358C503.376 277.619 503.187 277.747 503.159 277.721C503.127 277.69 503.32 277.442 503.701 277.02V260.773C503.376 261.033 503.187 261.162 503.159 261.136C503.127 261.105 503.32 260.857 503.701 260.434V244.916C503.542 245.033 503.449 245.086 503.43 245.069C503.407 245.046 503.502 244.91 503.701 244.676V229.675C503.376 229.936 503.187 230.064 503.159 230.038C503.127 230.007 503.32 229.76 503.701 229.337V145.023Z" fill="#FF6839"/>
<path d="M595.06 124.677H577.465V215.235C577.174 215.565 577.03 215.758 577.059 215.785C577.082 215.807 577.223 215.717 577.465 215.529V229.489C577.174 229.819 577.03 230.011 577.059 230.038C577.082 230.061 577.223 229.971 577.465 229.782V244.84C577.359 244.974 577.312 245.052 577.33 245.069C577.342 245.08 577.388 245.06 577.465 245.011V260.586C577.174 260.916 577.03 261.108 577.059 261.136C577.082 261.158 577.223 261.068 577.465 260.88V277.172C577.174 277.502 577.03 277.694 577.059 277.721C577.082 277.743 577.223 277.654 577.465 277.465V292.394C577.359 292.527 577.312 292.605 577.33 292.622C577.342 292.634 577.388 292.614 577.465 292.564V292.622H595.06V124.677Z" fill="#FF6839"/>
<path d="M558.787 138.197H555.809C555.803 138.191 555.792 138.191 555.776 138.197H541.192V183.229C541.188 183.24 541.187 183.249 541.188 183.255L541.192 183.262L541.192 198.265C541.19 198.272 541.188 198.278 541.188 198.282C541.188 198.287 541.19 198.29 541.192 198.292L541.192 213.425C541.189 213.434 541.188 213.441 541.189 213.446L541.192 213.453L541.192 230.011C541.19 230.018 541.188 230.024 541.188 230.029C541.189 230.033 541.19 230.036 541.192 230.038L541.192 261.108C541.187 261.122 541.187 261.131 541.192 261.136L541.192 277.694C541.187 277.707 541.187 277.717 541.192 277.721L541.192 292.752H558.787V276.17C558.986 275.936 559.081 275.8 559.057 275.777C559.039 275.76 558.946 275.815 558.787 275.936V260.903C558.792 260.89 558.792 260.881 558.787 260.876V244.318C558.792 244.305 558.792 244.296 558.787 244.291V228.616C558.986 228.382 559.081 228.246 559.057 228.224C559.039 228.206 558.946 228.259 558.787 228.376L558.787 213.22C558.792 213.207 558.792 213.198 558.787 213.194L558.787 196.635L558.789 196.628L558.79 196.626L558.79 196.621C558.791 196.615 558.79 196.611 558.787 196.608L558.787 181.475C558.792 181.461 558.792 181.452 558.787 181.448L558.787 138.197Z" fill="#FF6839"/>
<path d="M404.173 216.52H409.635V260.934C409.712 260.885 409.758 260.865 409.77 260.876C409.787 260.893 409.74 260.971 409.635 261.105V276.043C409.877 275.849 410.018 275.755 410.041 275.777C410.069 275.805 409.925 275.997 409.635 276.327V292.622H392.474C392.46 292.626 392.451 292.626 392.446 292.622H392.04V216.52H403.956C404.108 216.415 404.199 216.369 404.221 216.39C404.235 216.404 404.219 216.448 404.173 216.52Z" fill="#FF6839"/>
<path d="M476.496 157.885C476.488 157.878 476.473 157.878 476.45 157.885H466.074V167.74C465.964 167.883 465.916 167.97 465.939 167.992C465.954 168.007 466 167.992 466.074 167.95V184.349C465.969 184.483 465.922 184.561 465.939 184.578C465.952 184.59 465.997 184.569 466.074 184.52V213.224C465.969 213.358 465.922 213.436 465.939 213.453C465.952 213.464 465.997 213.444 466.074 213.395V229.81C465.969 229.943 465.922 230.022 465.939 230.038C465.952 230.05 465.997 230.03 466.074 229.98V260.907C465.969 261.041 465.922 261.119 465.939 261.136C465.952 261.148 465.997 261.128 466.074 261.078V277.493C465.969 277.626 465.922 277.704 465.939 277.721C465.952 277.733 465.997 277.713 466.074 277.663V292.622H466.21C466.215 292.626 466.224 292.626 466.238 292.622H483.669V276.007C483.775 275.873 483.823 275.794 483.805 275.777C483.793 275.765 483.747 275.787 483.669 275.839V228.453C483.775 228.319 483.823 228.241 483.805 228.224C483.793 228.212 483.747 228.232 483.669 228.282V182.993C483.775 182.859 483.823 182.78 483.805 182.763C483.793 182.739 483.747 182.75 483.669 182.792V157.885L476.496 157.885Z" stroke="#151F4F" stroke-width="2" mask="url(#path-15-inside-1_573_4001)"/>
<path d="M244.241 260.618H261.836V275.965C261.913 275.915 261.959 275.895 261.972 275.907C261.989 275.924 261.942 276.002 261.836 276.136V292.622H244.615C244.476 292.723 244.394 292.768 244.377 292.752C244.364 292.74 244.385 292.696 244.437 292.622H244.241V277.663C244.164 277.713 244.118 277.733 244.106 277.721C244.088 277.705 244.135 277.626 244.241 277.493V260.618Z" stroke="#151F4F" stroke-width="2" mask="url(#path-15-inside-1_573_4001)"/>
<path d="M282.544 273.705H300.139V276.166C300.144 276.171 300.144 276.181 300.139 276.195V292.622H283.118C282.774 292.9 282.573 293.038 282.544 293.011C282.521 292.989 282.615 292.854 282.811 292.622H282.544V273.705Z" stroke="#151F4F" stroke-width="2" mask="url(#path-15-inside-1_573_4001)"/>
<path d="M318.14 249.733H330.283C330.302 249.727 330.315 249.727 330.322 249.733L335.735 249.733V261.135L335.737 261.137L335.738 261.139L335.739 261.143L335.739 261.147L335.738 261.154C335.738 261.157 335.737 261.161 335.735 261.165V276.196C335.894 276.075 335.987 276.019 336.006 276.037C336.03 276.059 335.934 276.196 335.735 276.43V293.27H318.14V277.98C318.136 277.975 318.136 277.967 318.14 277.955V249.733Z" stroke="#151F4F" stroke-width="2" mask="url(#path-15-inside-1_573_4001)"/>
<path d="M355.361 247.934H372.956V253.635C372.961 253.64 372.961 253.649 372.956 253.662V292.752H355.361V292.622L355.359 292.619L355.358 292.617L355.358 292.614C355.357 292.611 355.358 292.608 355.358 292.603L355.36 292.598L355.361 292.595V247.934Z" stroke="#151F4F" stroke-width="2" mask="url(#path-15-inside-1_573_4001)"/>
<path d="M445.773 194.924H428.178V215.11C428.173 215.124 428.173 215.133 428.177 215.137L428.178 229.645C427.978 229.879 427.883 230.016 427.906 230.038C427.925 230.056 428.018 230.003 428.178 229.885V245.041C428.175 245.047 428.174 245.053 428.174 245.057C428.174 245.062 428.175 245.066 428.177 245.069L428.178 260.742C427.978 260.977 427.883 261.113 427.906 261.136C427.925 261.153 428.018 261.1 428.178 260.982V277.328C427.978 277.562 427.883 277.699 427.906 277.721C427.925 277.739 428.018 277.685 428.178 277.568V292.595C428.174 292.604 428.173 292.61 428.174 292.615L428.177 292.622C428.181 292.625 428.186 292.626 428.193 292.625C428.196 292.625 428.2 292.624 428.205 292.622H445.773V275.804C445.777 275.791 445.777 275.782 445.773 275.777L445.773 228.251C445.777 228.237 445.777 228.228 445.773 228.224L445.773 198.319C445.777 198.306 445.777 198.297 445.773 198.293L445.773 194.924Z" stroke="#151F4F" stroke-width="2" mask="url(#path-15-inside-1_573_4001)"/>
<path d="M503.701 145.023H521.296V224.323V292.622H503.701V292.469C503.542 292.587 503.449 292.64 503.43 292.622C503.407 292.6 503.502 292.463 503.701 292.229V277.358C503.376 277.619 503.187 277.747 503.159 277.721C503.127 277.69 503.32 277.442 503.701 277.02V260.773C503.376 261.033 503.187 261.162 503.159 261.136C503.127 261.105 503.32 260.857 503.701 260.434V244.916C503.542 245.033 503.449 245.086 503.43 245.069C503.407 245.046 503.502 244.91 503.701 244.676V229.675C503.376 229.936 503.187 230.064 503.159 230.038C503.127 230.007 503.32 229.76 503.701 229.337V145.023Z" stroke="#151F4F" stroke-width="2" mask="url(#path-15-inside-1_573_4001)"/>
<path d="M595.06 124.677H577.465V215.235C577.174 215.565 577.03 215.758 577.059 215.785C577.082 215.807 577.223 215.717 577.465 215.529V229.489C577.174 229.819 577.03 230.011 577.059 230.038C577.082 230.061 577.223 229.971 577.465 229.782V244.84C577.359 244.974 577.312 245.052 577.33 245.069C577.342 245.08 577.388 245.06 577.465 245.011V260.586C577.174 260.916 577.03 261.108 577.059 261.136C577.082 261.158 577.223 261.068 577.465 260.88V277.172C577.174 277.502 577.03 277.694 577.059 277.721C577.082 277.743 577.223 277.654 577.465 277.465V292.394C577.359 292.527 577.312 292.605 577.33 292.622C577.342 292.634 577.388 292.614 577.465 292.564V292.622H595.06V124.677Z" stroke="#151F4F" stroke-width="2" mask="url(#path-15-inside-1_573_4001)"/>
<path d="M558.787 138.197H555.809C555.803 138.191 555.792 138.191 555.776 138.197H541.192V183.229C541.188 183.24 541.187 183.249 541.188 183.255L541.192 183.262L541.192 198.265C541.19 198.272 541.188 198.278 541.188 198.282C541.188 198.287 541.19 198.29 541.192 198.292L541.192 213.425C541.189 213.434 541.188 213.441 541.189 213.446L541.192 213.453L541.192 230.011C541.19 230.018 541.188 230.024 541.188 230.029C541.189 230.033 541.19 230.036 541.192 230.038L541.192 261.108C541.187 261.122 541.187 261.131 541.192 261.136L541.192 277.694C541.187 277.707 541.187 277.717 541.192 277.721L541.192 292.752H558.787V276.17C558.986 275.936 559.081 275.8 559.057 275.777C559.039 275.76 558.946 275.815 558.787 275.936V260.903C558.792 260.89 558.792 260.881 558.787 260.876V244.318C558.792 244.305 558.792 244.296 558.787 244.291V228.616C558.986 228.382 559.081 228.246 559.057 228.224C559.039 228.206 558.946 228.259 558.787 228.376L558.787 213.22C558.792 213.207 558.792 213.198 558.787 213.194L558.787 196.635L558.789 196.628L558.79 196.626L558.79 196.621C558.791 196.615 558.79 196.611 558.787 196.608L558.787 181.475C558.792 181.461 558.792 181.452 558.787 181.448L558.787 138.197Z" stroke="#151F4F" stroke-width="2" mask="url(#path-15-inside-1_573_4001)"/>
<path d="M404.173 216.52H409.635V260.934C409.712 260.885 409.758 260.865 409.77 260.876C409.787 260.893 409.74 260.971 409.635 261.105V276.043C409.877 275.849 410.018 275.755 410.041 275.777C410.069 275.805 409.925 275.997 409.635 276.327V292.622H392.474C392.46 292.626 392.451 292.626 392.446 292.622H392.04V216.52H403.956C404.108 216.415 404.199 216.369 404.221 216.39C404.235 216.404 404.219 216.448 404.173 216.52Z" stroke="#151F4F" stroke-width="2" mask="url(#path-15-inside-1_573_4001)"/>
<path d="M244 244C267 254 282.5 256 312 239C352 215.949 374.594 230.91 416 180C477 105 559 108 595.5 108" stroke="#151F4F" stroke-width="4"/>
<path d="M234.74 98.2658C237.868 98.2658 240.404 95.7319 240.404 92.6061C240.404 89.4803 237.868 86.9463 234.74 86.9463C231.612 86.9463 229.076 89.4803 229.076 92.6061C229.076 95.7319 231.612 98.2658 234.74 98.2658Z" fill="#C4C4C4"/>
<path d="M254.25 98.2658C257.378 98.2658 259.914 95.7319 259.914 92.6061C259.914 89.4803 257.378 86.9463 254.25 86.9463C251.122 86.9463 248.586 89.4803 248.586 92.6061C248.586 95.7319 251.122 98.2658 254.25 98.2658Z" fill="#C4C4C4"/>
<path d="M273.759 98.2658C276.887 98.2658 279.423 95.7319 279.423 92.6061C279.423 89.4803 276.887 86.9463 273.759 86.9463C270.631 86.9463 268.095 89.4803 268.095 92.6061C268.095 95.7319 270.631 98.2658 273.759 98.2658Z" fill="#C4C4C4"/>
<path d="M560.606 38.7432L561.043 37H561.13L560.606 38.7432Z" fill="#C4C4C4"/>
<g clip-path="url(#clip0_573_4001)">
<path d="M696 435V503H787V438.178L696 435Z" fill="#E8E8E8"/>
<path d="M727.467 453.642V463.81H755.107V452.794L727.467 453.642Z" fill="#F2F2F2"/>
<path d="M756.171 472.284H727.467V476.309H756.171V472.284Z" fill="#F2F2F2"/>
</g>
<g clip-path="url(#clip1_573_4001)">
<path d="M696 363V431H787V366.178L696 363Z" fill="#E8E8E8"/>
<path d="M727.467 381.642V391.81H755.107V380.794L727.467 381.642Z" fill="#F2F2F2"/>
<path d="M756.171 400.284H727.467V404.309H756.171V400.284Z" fill="#F2F2F2"/>
</g>
<path d="M607.987 359.766H536.528V363.243H607.987V359.766Z" fill="#C4C4C4"/>
<path d="M525.497 363.243L512.069 313.006H567.821L580.051 363.243H525.497Z" fill="#979797"/>
<path d="M576.694 359.406H526.817L515.187 315.404H565.304L576.694 359.406Z" fill="white"/>
<path d="M523.681 317.971C523.681 318.553 524.069 318.942 524.652 318.942C525.234 318.942 525.622 318.553 525.622 317.971C525.622 317.389 525.234 317 524.652 317C524.069 317 523.681 317.389 523.681 317.971Z" fill="#C4C4C4"/>
<path d="M520.77 317.971C520.77 318.553 521.158 318.942 521.74 318.942C522.322 318.942 522.711 318.553 522.711 317.971C522.711 317.389 522.322 317 521.74 317C521.158 317 520.77 317.389 520.77 317.971Z" fill="#C4C4C4"/>
<path d="M517.663 317.971C517.663 318.553 518.051 318.942 518.634 318.942C519.216 318.942 519.604 318.553 519.604 317.971C519.604 317.389 519.216 317 518.634 317C518.051 317 517.663 317.389 517.663 317.971Z" fill="#C4C4C4"/>
<path d="M452 363.123V369.717H456.316V503.044H465.069V369.717H512.069V503.044H520.941V369.717H724.648V503.044H733.52V369.717H737.357V363.123H452Z" fill="#151F4F"/>
<path d="M560.028 414.08C560.226 414.08 560.387 414.026 560.387 413.96C560.387 413.894 560.226 413.84 560.028 413.84C559.829 413.84 559.668 413.894 559.668 413.96C559.668 414.026 559.829 414.08 560.028 414.08Z" fill="#455A64"/>
<path d="M681.983 333.748L674.789 355.33C672.87 361.205 667.715 362.164 661.6 362.164H621.794V353.291L658.123 348.136L666.756 325.955L681.983 333.748Z" fill="#FFB8B8"/>
<path d="M620.456 353.208L617.459 351.733C617.459 351.733 617.459 351.732 616.26 351.133C615.061 351.133 610.523 348.855 610.523 348.855L606.327 347.656C606.327 347.656 597.214 351.853 597.694 352.452C598.054 353.052 599.354 355.21 601.273 354.131C603.311 353.171 605.469 353.208 605.469 353.208L610.283 352.572L603.929 353.411L597.934 358.807C597.934 358.807 599.852 360.246 601.531 358.687L616.998 362.044L621.794 362.284V353.411L620.456 353.208Z" fill="#FFB8B8"/>
<path d="M601.651 358.567C601.77 358.567 602.01 358.207 602.61 357.488C602.85 357.248 603.209 356.888 603.689 356.649C604.168 356.409 604.768 356.289 605.367 356.169C607.885 355.809 610.043 355.569 610.043 355.33C610.043 355.21 607.885 355.33 605.367 355.689C604.768 355.809 604.049 355.929 603.569 356.169C603.089 356.529 602.73 356.888 602.37 357.248C601.77 357.967 601.531 358.567 601.651 358.567Z" fill="#AA6550"/>
<path d="M604.049 359.166C604.049 359.166 604.168 358.807 604.648 358.807C605.128 358.687 605.847 358.687 606.566 358.567C608.005 358.447 609.324 358.447 609.324 358.327C609.324 358.207 608.125 357.967 606.566 358.087C605.847 358.207 605.128 358.327 604.648 358.447C604.408 358.567 604.168 358.807 604.168 358.927C603.929 359.047 604.049 359.166 604.049 359.166Z" fill="#AA6550"/>
<path d="M659.663 245.144L659.783 291.184L641.798 292.024L641.079 280.993C641.079 280.993 632.446 282.312 630.648 275.837C629.449 271.641 629.808 239.508 629.808 239.508L659.663 245.144Z" fill="#FFB8B8"/>
<path d="M625.373 243.944C626.691 246.702 633.046 251.738 633.046 251.738L635.924 259.411C638.441 257.493 641.799 257.613 642.398 261.929C642.878 265.046 638.921 265.766 638.921 265.766C641.199 269.602 642.758 272.84 646.115 276.437C649.712 280.393 651.75 280.873 655.587 280.873H659.903C659.903 280.873 668.656 273.559 666.977 254.136C665.299 234.712 647.793 240.467 643.717 235.551C636.883 227.758 620.936 234.832 625.373 243.944Z" fill="#151F4F"/>
<path d="M644.197 491.774L638.322 484.22L652.35 473.189L661.103 484.1L660.263 484.82C656.546 488.057 641.199 501.126 637.962 502.445C634.365 503.883 644.197 491.774 644.197 491.774Z" fill="#FF6839"/>
<path d="M579.691 499.327V489.736L597.556 489.616L597.675 503.524L596.596 503.644C591.681 503.884 571.538 504.723 568.181 503.764C564.584 502.804 579.691 499.327 579.691 499.327Z" fill="#FF6839"/>
<path d="M623.814 334.707L616.62 356.289C614.702 362.164 609.546 363.123 603.431 363.123H563.625V354.25L599.954 349.095L608.587 326.914L623.814 334.707Z" fill="#FFB8B8"/>
<path d="M559.309 352.332L556.191 350.893C556.191 350.893 552.834 344.299 551.995 344.539C551.156 344.778 551.036 346.697 552.355 349.814L548.158 348.615C548.158 348.615 539.046 352.812 539.526 353.411C539.885 354.011 540.725 355.329 542.643 354.25C544.681 353.291 547.199 352.092 547.199 352.092L552.115 353.531L545.76 354.37L539.765 359.766C539.765 359.766 541.684 361.204 543.362 359.646L558.829 363.003L563.625 363.243V354.37L559.309 352.332Z" fill="#FFB8B8"/>
<path d="M627.171 330.031L624.054 340.342L604.63 331.59C605.35 329.432 608.587 319.72 614.702 304.373C618.179 295.86 625.732 289.626 634.845 288.187C641.199 287.108 648.153 286.268 653.429 286.388C664.34 286.508 680.406 293.342 682.564 304.013C684.243 312.166 682.564 326.554 682.564 344.059L681.125 377.511L625.373 379.429L627.171 330.031Z" fill="#FF6839"/>
<path d="M596.357 381.827C586.885 386.983 583.288 398.853 588.204 408.444L636.763 491.893L659.184 478.345L621.416 403.049L648.753 385.184" fill="#151F4F"/>
<path d="M655.587 377.751L588.924 380.149C578.133 380.509 569.62 389.501 569.74 400.292L572.498 495.491L600.554 495.371L599.595 405.328L655.587 403.889V377.751Z" fill="#151F4F"/>
<path d="M681.03 318H660.888C652.735 318 646.14 324.595 646.14 332.748V403.128H605.854C600.219 403.128 595.663 407.684 595.663 413.319H687.745C692.181 413.08 695.778 409.483 695.778 404.927V332.628C695.658 324.595 689.064 318 681.03 318Z" fill="#C4C4C4"/>
<path d="M652.83 486.378V412.521H646.235V486.378C642.279 494.291 632.807 499.566 621.296 504.003H679.807C668.057 499.207 657.266 495.49 652.83 486.378Z" fill="#C4C4C4"/>
<path opacity="0.1" d="M385.022 477.849H370.413V503H345.345V477.849H293.548V460.002L346.756 381.643H370.413V457.927H385.022V477.849ZM345.345 457.927V437.341C345.345 435.404 345.372 433.107 345.428 430.451C345.538 427.795 345.649 425.139 345.76 422.482C345.87 419.826 345.981 417.474 346.092 415.427C346.258 413.324 346.368 411.857 346.424 411.027H345.76C344.708 413.296 343.602 415.51 342.439 417.668C341.277 419.771 339.922 421.984 338.372 424.309L316.126 457.927H345.345Z" fill="#151F4F"/>
<path opacity="0.1" d="M284.334 442.321C284.334 452.116 283.559 460.86 282.01 468.552C280.516 476.244 278.081 482.774 274.705 488.142C271.385 493.509 267.013 497.604 261.59 500.427C256.167 503.249 249.581 504.66 241.834 504.66C232.094 504.66 224.098 502.198 217.845 497.272C211.591 492.292 206.971 485.153 203.982 475.856C200.994 466.504 199.5 455.326 199.5 442.321C199.5 429.206 200.856 418 203.567 408.703C206.334 399.351 210.817 392.185 217.015 387.204C223.213 382.224 231.486 379.733 241.834 379.733C251.518 379.733 259.487 382.224 265.74 387.204C272.049 392.129 276.725 399.268 279.769 408.62C282.812 417.917 284.334 429.151 284.334 442.321ZM224.983 442.321C224.983 451.563 225.481 459.283 226.478 465.48C227.529 471.623 229.272 476.244 231.707 479.343C234.142 482.442 237.518 483.991 241.834 483.991C246.095 483.991 249.443 482.469 251.878 479.426C254.368 476.327 256.139 471.706 257.19 465.563C258.242 459.366 258.768 451.618 258.768 442.321C258.768 433.08 258.242 425.36 257.19 419.162C256.139 412.964 254.368 408.316 251.878 405.217C249.443 402.062 246.095 400.485 241.834 400.485C237.518 400.485 234.142 402.062 231.707 405.217C229.272 408.316 227.529 412.964 226.478 419.162C225.481 425.36 224.983 433.08 224.983 442.321Z" fill="#151F4F"/>
<path opacity="0.1" d="M190.452 477.849H175.843V503H150.774V477.849H98.9775V460.002L152.186 381.643H175.843V457.927H190.452V477.849ZM150.774 457.927V437.341C150.774 435.404 150.802 433.107 150.857 430.451C150.968 427.795 151.079 425.139 151.189 422.482C151.3 419.826 151.411 417.474 151.521 415.427C151.688 413.324 151.798 411.857 151.854 411.027H151.189C150.138 413.296 149.031 415.51 147.869 417.668C146.707 419.771 145.351 421.984 143.802 424.309L121.556 457.927H150.774Z" fill="#151F4F"/>
<defs>
<clipPath id="clip0_573_4001">
<rect width="91" height="68" fill="white" transform="translate(696 435)"/>
</clipPath>
<clipPath id="clip1_573_4001">
<rect width="91" height="68" fill="white" transform="translate(696 363)"/>
</clipPath>
</defs>
</svg>
