<svg width="56" height="50" viewBox="0 0 56 50" fill="none" xmlns="http://www.w3.org/2000/svg">
<g clip-path="url(#clip0_454_917)">
<path d="M37.0499 3.10998C37.2309 3.09412 37.4132 3.11608 37.5852 3.17446C37.7572 3.23284 37.9153 3.32636 38.0492 3.44909C38.1832 3.57182 38.2901 3.72106 38.3633 3.88734C38.4365 4.05363 38.4742 4.23331 38.4742 4.41498C38.4742 4.59665 38.4365 4.77634 38.3633 4.94262C38.2901 5.1089 38.1832 5.25815 38.0492 5.38087C37.9153 5.5036 37.7572 5.59712 37.5852 5.6555C37.4132 5.71388 37.2309 5.73584 37.0499 5.71998C36.7235 5.69138 36.4197 5.54152 36.1984 5.29994C35.977 5.05837 35.8542 4.74262 35.8542 4.41498C35.8542 4.08734 35.977 3.7716 36.1984 3.53002C36.4197 3.28845 36.7235 3.13858 37.0499 3.10998Z" fill="#151F4F"/>
<path d="M40.8701 3.10986C41.1291 3.10986 41.3824 3.18669 41.5979 3.33064C41.8133 3.47458 41.9812 3.67918 42.0803 3.91855C42.1795 4.15792 42.2054 4.42132 42.1549 4.67543C42.1043 4.92955 41.9796 5.16297 41.7964 5.34617C41.6132 5.52938 41.3797 5.65415 41.1256 5.70469C40.8715 5.75524 40.6081 5.7293 40.3687 5.63015C40.1294 5.53099 39.9248 5.36309 39.7808 5.14766C39.6369 4.93223 39.5601 4.67896 39.5601 4.41986C39.5601 4.24783 39.5939 4.07748 39.6598 3.91855C39.7256 3.75961 39.8221 3.6152 39.9437 3.49355C40.0654 3.37191 40.2098 3.27541 40.3687 3.20958C40.5277 3.14375 40.698 3.10986 40.8701 3.10986Z" fill="#151F4F"/>
<path d="M44.59 3.10986C44.8491 3.10986 45.1024 3.18669 45.3178 3.33064C45.5333 3.47458 45.7012 3.67918 45.8003 3.91855C45.8995 4.15792 45.9254 4.42132 45.8749 4.67543C45.8243 4.92955 45.6995 5.16297 45.5163 5.34617C45.3331 5.52938 45.0997 5.65415 44.8456 5.70469C44.5915 5.75524 44.3281 5.7293 44.0887 5.63015C43.8493 5.53099 43.6447 5.36309 43.5008 5.14766C43.3569 4.93223 43.28 4.67896 43.28 4.41986C43.28 4.07243 43.418 3.73923 43.6637 3.49355C43.9094 3.24788 44.2426 3.10986 44.59 3.10986Z" fill="#151F4F"/>
<path d="M44.59 24.2998C43.2573 24.2978 41.9539 24.6916 40.8452 25.4313C39.7365 26.1709 38.8724 27.2231 38.3624 28.4544C37.8524 29.6857 37.7194 31.0407 37.9804 32.3477C38.2414 33.6547 38.8846 34.8547 39.8284 35.7957C40.7722 36.7367 41.9741 37.3763 43.2819 37.6334C44.5896 37.8905 45.9442 37.7535 47.174 37.2398C48.4038 36.7261 49.4534 35.8589 50.1897 34.748C50.9261 33.6371 51.316 32.3326 51.31 30.9998C51.3021 29.2218 50.5909 27.5192 49.3318 26.2639C48.0727 25.0085 46.368 24.3024 44.59 24.2998ZM44.59 36.4498C43.5189 36.4518 42.4712 36.1363 41.5793 35.5433C40.6873 34.9502 39.9911 34.1062 39.5784 33.1178C39.1658 32.1293 39.0553 31.0408 39.2609 29.9896C39.4665 28.9383 39.9789 27.9716 40.7335 27.2114C41.4881 26.4513 42.451 25.9317 43.5007 25.7184C44.5504 25.5051 45.6397 25.6076 46.6312 26.0129C47.6226 26.4182 48.4718 27.1082 49.0713 27.9958C49.6709 28.8834 49.9941 29.9287 50 30.9998C50.0066 31.714 49.8715 32.4224 49.6025 33.084C49.3334 33.7456 48.9358 34.3472 48.4327 34.8541C47.9295 35.361 47.3308 35.763 46.6712 36.0369C46.0116 36.3108 45.3042 36.4512 44.59 36.4498Z" fill="#151F4F"/>
<path d="M44.5899 28.0002C44.0144 28.0002 43.4518 28.1708 42.9732 28.4906C42.4947 28.8103 42.1217 29.2648 41.9014 29.7965C41.6812 30.3283 41.6236 30.9134 41.7358 31.4779C41.8481 32.0424 42.1253 32.5609 42.5322 32.9678C42.9392 33.3748 43.4577 33.652 44.0222 33.7642C44.5867 33.8765 45.1718 33.8189 45.7035 33.5986C46.2353 33.3784 46.6898 33.0054 47.0095 32.5269C47.3293 32.0483 47.4999 31.4857 47.4999 30.9102C47.5081 30.5258 47.4384 30.1437 47.2951 29.7869C47.1517 29.4302 46.9377 29.1061 46.6658 28.8343C46.394 28.5624 46.0699 28.3483 45.7131 28.205C45.3564 28.0617 44.9743 27.992 44.5899 28.0002ZM44.5899 32.7202C44.2517 32.7221 43.9205 32.6238 43.6382 32.4375C43.356 32.2513 43.1352 31.9855 43.004 31.6738C42.8727 31.3621 42.8369 31.0185 42.9009 30.6864C42.9649 30.3543 43.126 30.0487 43.3638 29.8081C43.6015 29.5676 43.9052 29.4029 44.2365 29.335C44.5679 29.2671 44.9119 29.299 45.2251 29.4265C45.5383 29.5541 45.8066 29.7717 45.9962 30.0518C46.1857 30.3319 46.2879 30.662 46.2899 31.0002C46.2967 31.2271 46.2576 31.4531 46.175 31.6646C46.0925 31.8761 45.9682 32.0688 45.8095 32.2312C45.6508 32.3936 45.4611 32.5224 45.2515 32.6098C45.042 32.6973 44.817 32.7416 44.5899 32.7402V32.7202Z" fill="#151F4F"/>
<path d="M54 27.92C53.8152 27.7547 53.6665 27.5531 53.5632 27.3277C53.46 27.1022 53.4044 26.8579 53.4 26.61C53.4117 25.6495 53.1022 24.7125 52.5207 23.948C51.9391 23.1834 51.1188 22.6351 50.19 22.39V4C50.19 2.93913 49.7686 1.92172 49.0184 1.17157C48.2683 0.421427 47.2509 0 46.19 0L4 0C2.93913 0 1.92172 0.421427 1.17157 1.17157C0.421427 1.92172 0 2.93913 0 4L0 45.49C0 46.5509 0.421427 47.5683 1.17157 48.3184C1.92172 49.0686 2.93913 49.49 4 49.49H37.56L44.48 46.67C51.82 49.59 51.41 49.49 51.61 49.49C51.7073 49.487 51.8027 49.4622 51.8891 49.4175C51.9755 49.3727 52.0508 49.3091 52.1093 49.2313C52.1679 49.1536 52.2082 49.0637 52.2274 48.9683C52.2465 48.8728 52.244 48.7743 52.22 48.68L50.22 39.54C51.1175 39.2582 51.9024 38.6987 52.4613 37.942C53.0203 37.1853 53.3245 36.2707 53.33 35.33C53.3229 35.0803 53.3734 34.8322 53.4774 34.6051C53.5814 34.378 53.7363 34.1778 53.93 34.02C54.3478 33.6315 54.6824 33.1622 54.9133 32.6404C55.1441 32.1187 55.2666 31.5555 55.2731 30.985C55.2797 30.4145 55.1702 29.8486 54.9513 29.3218C54.7325 28.7949 54.4088 28.318 54 27.92ZM49 4V7.53H30.23V1.2H46.29C47.012 1.23778 47.6928 1.54758 48.1956 2.06707C48.6984 2.58655 48.9858 3.27718 49 4ZM1.31 7.53V5H28.92V7.53H1.31ZM4.12 1.31H28.92V3.82H1.31C1.36853 3.12163 1.69244 2.47223 2.21511 2.00536C2.73778 1.53849 3.41947 1.28965 4.12 1.31ZM1.31 45.59V8.84H49V22.19C48.7534 22.1867 48.5102 22.1315 48.2862 22.0282C48.0623 21.9248 47.8625 21.7755 47.7 21.59C47.0354 20.8989 46.1446 20.4695 45.19 20.38V13.15C45.1784 12.9947 45.1115 12.8487 45.0014 12.7386C44.8913 12.6285 44.7453 12.5616 44.59 12.55H5.72C5.5647 12.5616 5.41871 12.6285 5.30859 12.7386C5.19847 12.8487 5.13155 12.9947 5.12 13.15V43.88C5.12924 44.0371 5.19514 44.1855 5.30548 44.2976C5.41581 44.4098 5.5631 44.4782 5.72 44.49H37.72L37 48.3H4.12C3.38949 48.3081 2.68515 48.0283 2.15929 47.5212C1.63344 47.0141 1.32835 46.3203 1.31 45.59ZM41.47 21.59C41.3075 21.7755 41.1077 21.9248 40.8838 22.0282C40.6598 22.1315 40.4166 22.1867 40.17 22.19C39.001 22.2004 37.8828 22.6695 37.0561 23.4961C36.2295 24.3228 35.7604 25.441 35.75 26.61C35.7556 26.8595 35.7045 27.107 35.6005 27.334C35.4966 27.5609 35.3426 27.7612 35.15 27.92C34.3281 28.7463 33.8667 29.8645 33.8667 31.03C33.8667 32.1955 34.3281 33.3137 35.15 34.14C35.3358 34.3045 35.4851 34.506 35.5885 34.7316C35.6918 34.9572 35.7468 35.2019 35.75 35.45C35.7509 36.3919 36.0532 37.3087 36.6129 38.0663C37.1725 38.8239 37.96 39.3824 38.86 39.66L38.06 43.28H6.33V40.17H28.92C29.0671 40.1511 29.2022 40.0792 29.3001 39.9678C29.398 39.8565 29.4521 39.7133 29.4521 39.565C29.4521 39.4167 29.398 39.2735 29.3001 39.1622C29.2022 39.0508 29.0671 38.9789 28.92 38.96H6.33V13.86H44V17H21.39C21.2347 17.0116 21.0887 17.0785 20.9786 17.1886C20.8685 17.2987 20.8016 17.4447 20.79 17.6C20.7992 17.7571 20.8651 17.9055 20.9755 18.0176C21.0858 18.1298 21.2331 18.1982 21.39 18.21H44V20.41C43.0617 20.5552 42.1842 20.9644 41.47 21.59ZM50.91 47.9L45.19 45.59V43.88C45.1711 43.7329 45.0992 43.5978 44.9878 43.4999C44.8765 43.402 44.7333 43.3479 44.585 43.3479C44.4367 43.3479 44.2935 43.402 44.1822 43.4999C44.0708 43.5978 43.9989 43.7329 43.98 43.88V45.59L38.26 47.9C39.36 42.9 38.36 47.3 40.07 39.9H40.17C40.4183 39.893 40.6648 39.9435 40.8904 40.0475C41.1159 40.1516 41.3143 40.3065 41.47 40.5C42.298 41.3226 43.4178 41.7842 44.585 41.7842C45.7522 41.7842 46.872 41.3226 47.7 40.5C47.8625 40.3145 48.0623 40.1652 48.2862 40.0618C48.5102 39.9585 48.7534 39.9033 49 39.9H49.1L50.91 47.9ZM53.12 33.24C52.8319 33.531 52.6041 33.876 52.4496 34.2552C52.2952 34.6345 52.2171 35.0405 52.22 35.45C52.2147 36.2749 51.884 37.0644 51.2998 37.6468C50.7155 38.2292 49.9249 38.5574 49.1 38.56C48.2736 38.5575 47.4795 38.8809 46.89 39.46C46.3037 40.042 45.5111 40.3685 44.685 40.3685C43.8589 40.3685 43.0663 40.042 42.48 39.46C41.8905 38.8809 41.0964 38.5575 40.27 38.56C39.4451 38.5574 38.6545 38.2292 38.0702 37.6468C37.486 37.0644 37.1553 36.2749 37.15 35.45C37.1529 35.0405 37.0748 34.6345 36.9204 34.2552C36.7659 33.876 36.5381 33.531 36.25 33.24C35.6722 32.6495 35.3487 31.8562 35.3487 31.03C35.3487 30.2038 35.6722 29.4105 36.25 28.82C36.8301 28.2311 37.1536 27.4366 37.15 26.61C37.1553 25.7851 37.486 24.9956 38.0702 24.4132C38.6545 23.8308 39.4451 23.5026 40.27 23.5C40.6802 23.5016 41.0866 23.4219 41.4659 23.2658C41.8452 23.1096 42.1898 22.8799 42.48 22.59C43.0688 22.0128 43.8605 21.6896 44.685 21.6896C45.5095 21.6896 46.3012 22.0128 46.89 22.59C47.1802 22.8799 47.5248 23.1096 47.9041 23.2658C48.2834 23.4219 48.6898 23.5016 49.1 23.5C49.9249 23.5026 50.7155 23.8308 51.2998 24.4132C51.884 24.9956 52.2147 25.7851 52.22 26.61C52.2164 27.4366 52.5399 28.2311 53.12 28.82C53.6978 29.4105 54.0214 30.2038 54.0214 31.03C54.0214 31.8562 53.6978 32.6495 53.12 33.24Z" fill="#151F4F"/>
<path d="M25.5099 23.2001H19.1799V21.2901C19.1348 20.4945 18.787 19.7463 18.2078 19.1989C17.6286 18.6516 16.8619 18.3467 16.0649 18.3467C15.268 18.3467 14.5013 18.6516 13.9221 19.1989C13.3429 19.7463 12.995 20.4945 12.9499 21.2901V23.8001H11.6499C11.0663 23.8027 10.5072 24.035 10.0936 24.4468C9.68003 24.8585 9.44519 25.4165 9.43994 26.0001V33.5301C9.44516 34.1146 9.67968 34.6737 10.093 35.0871C10.5063 35.5004 11.0654 35.7349 11.6499 35.7401H12.9999C13.0118 35.897 13.0801 36.0443 13.1923 36.1546C13.3045 36.265 13.4529 36.3309 13.6099 36.3401H23.4999C24.2326 36.3279 24.9437 36.0899 25.5361 35.6586C26.1285 35.2273 26.5733 34.6236 26.8099 33.9301L28.8099 27.6001C28.97 27.0861 29.0056 26.5414 28.914 26.0108C28.8224 25.4803 28.6061 24.9791 28.2829 24.5485C27.9597 24.1179 27.5389 23.7703 27.055 23.5341C26.5712 23.2979 26.0382 23.18 25.4999 23.1901L25.5099 23.2001ZM11.6499 34.5401C11.5309 34.5414 11.4128 34.5191 11.3025 34.4745C11.1921 34.4299 11.0917 34.3638 11.0071 34.2801C10.9224 34.1964 10.8552 34.0967 10.8094 33.9869C10.7635 33.877 10.7399 33.7591 10.7399 33.6401V26.1101C10.7399 25.8688 10.8358 25.6373 11.0065 25.4666C11.1771 25.296 11.4086 25.2001 11.6499 25.2001H12.9999V34.6401H11.6999L11.6499 34.5401ZM27.6499 27.3101L25.6499 33.6401C25.5064 34.0847 25.2239 34.4713 24.844 34.7432C24.4642 35.0151 24.007 35.1577 23.5399 35.1501H14.1599V21.2901C14.1586 21.0389 14.2071 20.79 14.3026 20.5576C14.3981 20.3253 14.5388 20.1142 14.7164 19.9366C14.894 19.759 15.1051 19.6183 15.3375 19.5228C15.5698 19.4273 15.8187 19.3788 16.0699 19.3801C16.325 19.3674 16.58 19.408 16.8186 19.4992C17.0571 19.5904 17.2741 19.7303 17.4556 19.91C17.6372 20.0897 17.7793 20.3052 17.8731 20.5428C17.9668 20.7804 18.01 21.0349 17.9999 21.2901V23.8001C18.0118 23.957 18.0801 24.1043 18.1923 24.2146C18.3045 24.325 18.4529 24.3909 18.6099 24.4001H25.5399C25.8821 24.4201 26.2154 24.5166 26.5153 24.6825C26.8151 24.8484 27.074 25.0796 27.2726 25.3588C27.4713 25.6381 27.6047 25.9584 27.6631 26.2961C27.7215 26.6338 27.7033 26.9804 27.6099 27.3101H27.6499Z" fill="#151F4F"/>
</g>
<defs>
<clipPath id="clip0_454_917">
<rect width="55.29" height="49.51" fill="white"/>
</clipPath>
</defs>
</svg>
