<svg width="50" height="50" viewBox="0 0 50 50" fill="none" xmlns="http://www.w3.org/2000/svg">
<g clip-path="url(#clip0_456_1037)">
<path d="M25.0001 23.7929C24.61 23.6969 24.1976 23.7598 23.8539 23.9678C23.5101 24.1757 23.263 24.5117 23.167 24.9019C23.0709 25.292 23.1338 25.7043 23.3418 26.0481C23.5497 26.3919 23.8858 26.639 24.2759 26.735V28.2438C24.2798 28.4332 24.3579 28.6135 24.4933 28.7461C24.6287 28.8787 24.8106 28.9529 25.0001 28.9529C25.1882 28.9529 25.3685 28.8782 25.5015 28.7452C25.6345 28.6122 25.7092 28.4318 25.7092 28.2438V26.735C26.0994 26.641 26.4362 26.3958 26.6455 26.0534C26.8549 25.7111 26.9197 25.2996 26.8257 24.9094C26.7316 24.5193 26.4865 24.1825 26.1441 23.9731C25.8018 23.7637 25.3902 23.6989 25.0001 23.7929ZM24.8643 25.3017C24.8643 25.2748 24.8723 25.2486 24.8872 25.2263C24.9021 25.2039 24.9233 25.1865 24.9481 25.1762C24.9729 25.166 25.0002 25.1633 25.0266 25.1685C25.0529 25.1738 25.0771 25.1867 25.0961 25.2057C25.1151 25.2247 25.128 25.2489 25.1333 25.2752C25.1385 25.3015 25.1358 25.3288 25.1255 25.3537C25.1153 25.3785 25.0979 25.3997 25.0755 25.4146C25.0532 25.4295 25.0269 25.4375 25.0001 25.4375C24.9725 25.4403 24.9446 25.4346 24.9203 25.4211C24.8961 25.4076 24.8765 25.387 24.8643 25.362V25.3017Z" fill="#151F4F"/>
<path d="M50 4.93362V0.709113C49.9961 0.51967 49.918 0.339319 49.7826 0.206752C49.6472 0.0741838 49.4653 -4.1108e-05 49.2758 1.70802e-08H0.709113C0.521044 1.70802e-08 0.340679 0.0747099 0.207694 0.207694C0.0747099 0.340679 1.70802e-08 0.521044 1.70802e-08 0.709113L1.70802e-08 49.2758C-4.1108e-05 49.4653 0.0741838 49.6472 0.206752 49.7826C0.339319 49.918 0.51967 49.9961 0.709113 50H49.2758C49.4667 49.9961 49.6486 49.9186 49.7836 49.7836C49.9186 49.6486 49.9961 49.4667 50 49.2758V4.9487V4.93362ZM1.50875 9.88232H48.5667V48.5667H1.50875V9.88232ZM48.5667 4.2245H27.1575C26.9574 4.2245 26.7656 4.30398 26.6241 4.44545C26.4826 4.58693 26.4031 4.7788 26.4031 4.97888C26.4031 5.17895 26.4826 5.37083 26.6241 5.5123C26.7656 5.65377 26.9574 5.73325 27.1575 5.73325H48.5667V8.449H16.2191V1.50875H48.5667V4.2245ZM14.7858 8.449H1.50875V1.50875H14.7858V8.449Z" fill="#151F4F"/>
<path d="M4.93372 20.4283C5.02811 20.4303 5.12194 20.4135 5.20972 20.3787C5.29751 20.344 5.37747 20.2921 5.44492 20.226C5.51238 20.16 5.56596 20.0811 5.60254 19.9941C5.63911 19.9071 5.65794 19.8136 5.65792 19.7192V14.1067H8.1021C8.29296 14.1028 8.47493 14.0253 8.60992 13.8903C8.7449 13.7553 8.82244 13.5733 8.8263 13.3825C8.82235 13.193 8.74431 13.0127 8.60892 12.8801C8.47354 12.7475 8.29158 12.6733 8.1021 12.6733H4.93372C4.74565 12.6733 4.56529 12.7481 4.4323 12.881C4.29932 13.014 4.22461 13.1944 4.22461 13.3825V19.7192C4.22461 19.9073 4.29932 20.0876 4.4323 20.2206C4.56529 20.3536 4.74565 20.4283 4.93372 20.4283Z" fill="#151F4F"/>
<path d="M45.0513 12.6735H41.8829C41.6949 12.6735 41.5145 12.7482 41.3815 12.8812C41.2485 13.0142 41.1738 13.1945 41.1738 13.3826C41.1738 13.5721 41.248 13.7541 41.3806 13.8894C41.5131 14.0248 41.6935 14.1029 41.8829 14.1068H44.3422V19.7194C44.3673 19.8916 44.4535 20.049 44.5851 20.1628C44.7167 20.2767 44.8849 20.3393 45.0589 20.3393C45.2329 20.3393 45.4011 20.2767 45.5327 20.1628C45.6643 20.049 45.7505 19.8916 45.7755 19.7194V13.3826C45.7755 13.2882 45.7567 13.1947 45.7201 13.1077C45.6836 13.0207 45.63 12.9418 45.5625 12.8758C45.4951 12.8097 45.4151 12.7578 45.3273 12.7231C45.2395 12.6884 45.1457 12.6715 45.0513 12.6735Z" fill="#151F4F"/>
<path d="M8.10201 44.342H5.65784V38.7295C5.65784 38.5294 5.57836 38.3375 5.43689 38.196C5.29541 38.0546 5.10353 37.9751 4.90346 37.9751C4.70339 37.9751 4.51151 38.0546 4.37004 38.196C4.22857 38.3375 4.14909 38.5294 4.14909 38.7295V45.0511C4.14708 45.1455 4.16394 45.2394 4.19867 45.3271C4.23341 45.4149 4.28532 45.4949 4.35137 45.5623C4.41742 45.6298 4.49627 45.6834 4.5833 45.72C4.67033 45.7565 4.76379 45.7754 4.8582 45.7753H8.02658C8.12941 45.7903 8.23425 45.783 8.334 45.7538C8.43374 45.7247 8.52604 45.6744 8.60463 45.6064C8.68322 45.5384 8.74626 45.4543 8.78946 45.3598C8.83267 45.2653 8.85503 45.1626 8.85503 45.0587C8.85503 44.9548 8.83267 44.8521 8.78946 44.7576C8.74626 44.6631 8.68322 44.579 8.60463 44.511C8.52604 44.443 8.43374 44.3927 8.334 44.3636C8.23425 44.3344 8.12941 44.3271 8.02658 44.342H8.10201Z" fill="#151F4F"/>
<path d="M45.0513 38.0055C44.9569 38.0055 44.8634 38.0243 44.7764 38.0609C44.6893 38.0975 44.6105 38.1511 44.5444 38.2185C44.4784 38.286 44.4265 38.366 44.3917 38.4537C44.357 38.5415 44.3401 38.6354 44.3421 38.7297V44.3423H41.8829C41.7107 44.3673 41.5533 44.4535 41.4394 44.5851C41.3256 44.7167 41.2629 44.8849 41.2629 45.0589C41.2629 45.233 41.3256 45.4011 41.4394 45.5327C41.5533 45.6643 41.7107 45.7506 41.8829 45.7756H45.0513C45.1469 45.7777 45.242 45.7603 45.3308 45.7247C45.4196 45.689 45.5003 45.6357 45.5679 45.5681C45.6356 45.5004 45.6889 45.4198 45.7245 45.331C45.7602 45.2422 45.7775 45.1471 45.7755 45.0514V38.7297C45.7775 38.6341 45.7602 38.539 45.7245 38.4502C45.6889 38.3614 45.6356 38.2807 45.5679 38.2131C45.5003 38.1454 45.4196 38.0921 45.3308 38.0565C45.242 38.0208 45.1469 38.0035 45.0513 38.0055Z" fill="#151F4F"/>
<path d="M41.5509 40.8266V32.3927C41.5509 32.2006 41.4746 32.0164 41.3388 31.8806C41.203 31.7448 41.0187 31.6685 40.8267 31.6685H28.8925C30.0186 31.0008 30.9515 30.0516 31.5996 28.9141C32.2477 27.7766 32.5887 26.4901 32.5889 25.1809V22.4048C32.5731 21.659 32.2657 20.9491 31.7327 20.4273C31.1996 19.9056 30.4833 19.6134 29.7374 19.6136H29.6468V16.7168C29.6469 15.6522 29.2271 14.6305 28.4786 13.8735C27.7301 13.1165 26.7132 12.6853 25.6486 12.6733H24.4416C23.3693 12.6733 22.3408 13.0993 21.5825 13.8576C20.8242 14.6159 20.3982 15.6444 20.3982 16.7168V19.6136H20.3077C19.55 19.6136 18.8231 19.9135 18.286 20.4479C17.7488 20.9822 17.445 21.7075 17.441 22.4651V25.2412C17.4475 26.5413 17.7899 27.8176 18.4349 28.9463C19.0799 30.0751 20.0057 31.018 21.1224 31.6836H9.158C8.96856 31.6875 8.78821 31.7656 8.65564 31.901C8.52307 32.0364 8.44885 32.2183 8.44889 32.4078V40.8417C8.44688 40.9361 8.46374 41.0299 8.49848 41.1177C8.53321 41.2055 8.58513 41.2855 8.65117 41.3529C8.71722 41.4204 8.79608 41.474 8.88311 41.5105C8.97014 41.5471 9.0636 41.5659 9.158 41.5659H40.8418C40.9375 41.566 41.0322 41.5467 41.1203 41.5092C41.2084 41.4717 41.2879 41.4167 41.3542 41.3477C41.4204 41.2786 41.472 41.1968 41.5058 41.1073C41.5396 41.0177 41.555 40.9223 41.5509 40.8266ZM32.7247 40.1175H9.8822V33.1018H32.7247V40.1175ZM34.158 33.1018H40.1176V40.1175H34.158V33.1018ZM24.9999 31.3366C23.3659 31.3366 21.7986 30.6885 20.6418 29.5345C19.485 28.3806 18.8331 26.8149 18.8291 25.1809V22.4048C18.851 22.0332 19.0095 21.6829 19.274 21.4211C19.5386 21.1593 19.8906 21.0045 20.2624 20.9866H29.7374C30.1135 20.9866 30.4742 21.136 30.7402 21.4019C31.0062 21.6679 31.1556 22.0286 31.1556 22.4048V25.1809C31.1556 26.8135 30.507 28.3792 29.3526 29.5336C28.1982 30.688 26.6325 31.3366 24.9999 31.3366ZM28.2135 19.6136H21.7862V16.7168C21.7842 16.3735 21.8504 16.0332 21.9809 15.7156C22.1113 15.398 22.3035 15.1095 22.5463 14.8667C22.7891 14.6239 23.0776 14.4317 23.3952 14.3013C23.7127 14.1708 24.0531 14.1047 24.3964 14.1067H25.6486C26.3409 14.1067 27.0048 14.3817 27.4943 14.8711C27.9838 15.3606 28.2588 16.0245 28.2588 16.7168L28.2135 19.6136Z" fill="#151F4F"/>
<path d="M13.3826 37.3266H18.6633C18.7661 37.3416 18.8709 37.3342 18.9707 37.3051C19.0704 37.2759 19.1627 37.2256 19.2413 37.1576C19.3199 37.0897 19.3829 37.0056 19.4262 36.9111C19.4694 36.8166 19.4917 36.7139 19.4917 36.6099C19.4917 36.506 19.4694 36.4033 19.4262 36.3088C19.3829 36.2143 19.3199 36.1302 19.2413 36.0622C19.1627 35.9942 19.0704 35.944 18.9707 35.9148C18.8709 35.8857 18.7661 35.8783 18.6633 35.8933H13.3826C13.2104 35.9183 13.053 36.0045 12.9392 36.1361C12.8253 36.2677 12.7627 36.4359 12.7627 36.6099C12.7627 36.7839 12.8253 36.9521 12.9392 37.0837C13.053 37.2153 13.2104 37.3015 13.3826 37.3266Z" fill="#151F4F"/>
<path d="M6.18597 3.69629H3.69653V6.18573H6.18597V3.69629Z" fill="#151F4F"/>
<path d="M9.35418 3.69629H6.86475V6.18573H9.35418V3.69629Z" fill="#151F4F"/>
<path d="M23.0688 35.3652H20.5793V37.8547H23.0688V35.3652Z" fill="#151F4F"/>
<path d="M26.2372 35.3652H23.7478V37.8547H26.2372V35.3652Z" fill="#151F4F"/>
<path d="M29.4055 35.3652H26.916V37.8547H29.4055V35.3652Z" fill="#151F4F"/>
<path d="M12.5226 3.69629H10.0332V6.18573H12.5226V3.69629Z" fill="#151F4F"/>
</g>
<defs>
<clipPath id="clip0_456_1037">
<rect width="50" height="50" fill="white"/>
</clipPath>
</defs>
</svg>
