<svg width="55" height="54" viewBox="0 0 55 54" fill="none" xmlns="http://www.w3.org/2000/svg">
<g clip-path="url(#clip0_454_873)">
<path d="M35.3001 17.1998L36.8201 17.4998C36.9089 17.8508 37.0469 18.1875 37.2301 18.4998L36.4201 19.7998C36.2101 19.9998 36.3201 20.3998 36.5201 20.5998L37.4301 21.4998C37.5421 21.5907 37.6775 21.6483 37.8207 21.6659C37.9639 21.6836 38.1092 21.6607 38.2401 21.5998L39.5501 20.7998C39.8579 20.9897 40.1962 21.1251 40.5501 21.1998L40.8601 22.6998C40.8913 22.8393 40.9683 22.9643 41.0789 23.0549C41.1894 23.1456 41.3271 23.1966 41.4701 23.1998H42.6801C42.823 23.1966 42.9607 23.1456 43.0712 23.0549C43.1818 22.9643 43.2588 22.8393 43.2901 22.6998L43.5901 21.1998C43.939 21.1094 44.275 20.975 44.5901 20.7998L45.9101 21.5998C46.1101 21.7998 46.5101 21.6998 46.7201 21.4998L47.6301 20.5998C47.7212 20.4898 47.779 20.3561 47.7967 20.2144C47.8144 20.0727 47.7913 19.9288 47.7301 19.7998L46.8201 18.4998C47.0126 18.1933 47.1481 17.8545 47.2201 17.4998L48.7401 17.1998C48.8787 17.1706 49.0035 17.0955 49.0943 16.9866C49.185 16.8778 49.2364 16.7415 49.2401 16.5998V15.3998C49.2364 15.2581 49.185 15.1218 49.0943 15.013C49.0035 14.9041 48.8787 14.829 48.7401 14.7998L47.2201 14.3998C47.1304 14.0506 46.996 13.7145 46.8201 13.3998L47.6301 12.0998C47.7124 11.976 47.7466 11.8263 47.7264 11.679C47.7061 11.5317 47.6328 11.3968 47.5201 11.2998L46.7201 10.4998C46.6074 10.41 46.4722 10.3531 46.3292 10.3354C46.1862 10.3178 46.0411 10.34 45.9101 10.3998L44.5901 11.1998C44.2831 11.0082 43.9445 10.8728 43.5901 10.7998L43.2901 9.2998C43.2588 9.16031 43.1818 9.03529 43.0712 8.94467C42.9607 8.85405 42.823 8.80305 42.6801 8.7998H41.4801C41.3371 8.80305 41.1994 8.85405 41.0889 8.94467C40.9783 9.03529 40.9013 9.16031 40.8701 9.2998L40.5601 10.7998C40.2117 10.8919 39.8758 11.0262 39.5601 11.1998L38.2501 10.3998C38.1251 10.3176 37.9751 10.2826 37.8267 10.3009C37.6783 10.3192 37.5412 10.3897 37.4401 10.4998L36.5301 11.3998C36.4389 11.5098 36.3811 11.6435 36.3634 11.7852C36.3457 11.9269 36.3688 12.0708 36.4301 12.1998L37.2401 13.4998C37.04 13.8035 36.9007 14.1431 36.8301 14.4998L35.3101 14.7998C35.1714 14.829 35.0466 14.9041 34.9559 15.013C34.8651 15.1218 34.8138 15.2581 34.8101 15.3998V16.5998C34.8477 16.7274 34.9105 16.8462 34.9946 16.9492C35.0787 17.0522 35.1826 17.1374 35.3001 17.1998ZM36.1101 15.7998L37.5301 15.4998C37.6385 15.4532 37.7362 15.3847 37.8171 15.2987C37.8979 15.2127 37.9602 15.1109 38.0001 14.9998C38.1053 14.5453 38.2736 14.1077 38.5001 13.6998C38.5498 13.5898 38.5755 13.4705 38.5755 13.3498C38.5755 13.2291 38.5498 13.1098 38.5001 12.9998L37.6901 11.7998L37.8901 11.5998L39.1101 12.4998C39.2219 12.5491 39.3428 12.5746 39.4651 12.5746C39.5873 12.5746 39.7082 12.5491 39.8201 12.4998C40.2111 12.232 40.66 12.0607 41.1301 11.9998C41.2466 11.9591 41.3527 11.8931 41.4408 11.8067C41.529 11.7203 41.597 11.6155 41.6401 11.4998L41.9401 10.0998H42.1401L42.4501 11.4998C42.4908 11.6152 42.5569 11.72 42.6434 11.8065C42.7299 11.893 42.8347 11.959 42.9501 11.9998C43.4108 12.1053 43.855 12.2736 44.2701 12.4998C44.3819 12.5491 44.5028 12.5746 44.6251 12.5746C44.7473 12.5746 44.8682 12.5491 44.9801 12.4998L46.1901 11.6998L46.3901 11.8998L45.5801 13.0998C45.5304 13.2098 45.5047 13.3291 45.5047 13.4498C45.5047 13.5705 45.5304 13.6898 45.5801 13.7998C45.8556 14.1839 46.0309 14.6308 46.0901 15.0998C46.1308 15.2152 46.1969 15.32 46.2834 15.4065C46.3699 15.493 46.4747 15.559 46.5901 15.5998L48.0101 15.8998V16.0998L46.5901 16.3998C46.4747 16.4406 46.3699 16.5066 46.2834 16.5931C46.1969 16.6797 46.1308 16.7844 46.0901 16.8998C45.9857 17.3561 45.8138 17.7943 45.5801 18.1998C45.5304 18.3098 45.5047 18.4291 45.5047 18.5498C45.5047 18.6705 45.5304 18.7898 45.5801 18.8998L46.3901 20.0998L46.1901 20.2998L45.0001 19.4998C44.8882 19.4505 44.7673 19.425 44.6451 19.425C44.5228 19.425 44.4019 19.4505 44.2901 19.4998C43.9049 19.7647 43.4631 19.9359 43.0001 19.9998C42.8847 20.0406 42.7799 20.1066 42.6934 20.1931C42.6069 20.2797 42.5408 20.3844 42.5001 20.4998L42.1901 21.7998H42.0001L41.7001 20.3998C41.6589 20.283 41.5916 20.1772 41.5031 20.0906C41.4147 20.0039 41.3076 19.9386 41.1901 19.8998C40.7325 19.7942 40.2916 19.626 39.8801 19.3998C39.7682 19.3505 39.6473 19.325 39.5251 19.325C39.4028 19.325 39.2819 19.3505 39.1701 19.3998L37.9501 20.1998L37.7501 19.9998L38.5601 18.7998C38.6098 18.6898 38.6355 18.5705 38.6355 18.4498C38.6355 18.3291 38.6098 18.2098 38.5601 18.0998C38.2937 17.7117 38.1224 17.2664 38.0601 16.7998C38.0153 16.6851 37.9466 16.5812 37.8587 16.4951C37.7708 16.4089 37.6656 16.3423 37.5501 16.2998L36.1301 16.0998V15.7998H36.1101Z" fill="#151F4F"/>
<path d="M42.0801 18.4002C42.5732 18.3943 43.0536 18.2427 43.4607 17.9644C43.8679 17.6861 44.1836 17.2936 44.3683 16.8363C44.5529 16.379 44.5981 15.8773 44.4983 15.3944C44.3985 14.9114 44.1581 14.4688 43.8073 14.1221C43.4565 13.7755 43.011 13.5403 42.5269 13.4463C42.0428 13.3522 41.5416 13.4035 41.0866 13.5935C40.6315 13.7836 40.2428 14.104 39.9694 14.5145C39.696 14.9249 39.5501 15.407 39.5501 15.9002C39.5487 16.2314 39.6134 16.5596 39.7405 16.8655C39.8675 17.1714 40.0543 17.4489 40.2899 17.6817C40.5255 17.9145 40.8052 18.098 41.1126 18.2214C41.42 18.3447 41.7489 18.4055 42.0801 18.4002ZM42.0801 14.7002C42.317 14.7022 42.548 14.7742 42.744 14.9073C42.94 15.0403 43.0923 15.2284 43.1816 15.4479C43.2709 15.6673 43.2932 15.9083 43.2458 16.1404C43.1984 16.3725 43.0833 16.5854 42.9151 16.7522C42.7469 16.919 42.533 17.0323 42.3005 17.0778C42.068 17.1233 41.8273 17.099 41.6086 17.0079C41.3899 16.9168 41.2031 16.763 41.0716 16.5658C40.9402 16.3687 40.8701 16.1371 40.8701 15.9002C40.8644 15.7402 40.8919 15.5808 40.9508 15.432C41.0098 15.2832 41.0989 15.1482 41.2125 15.0355C41.3262 14.9227 41.4619 14.8348 41.6112 14.7771C41.7605 14.7194 41.9202 14.6932 42.0801 14.7002Z" fill="#151F4F"/>
<path d="M51.89 39.9V3C51.89 2.20435 51.5739 1.44129 51.0113 0.87868C50.4487 0.31607 49.6856 0 48.89 0L35.3 0C34.5043 0 33.7413 0.31607 33.1787 0.87868C32.6161 1.44129 32.3 2.20435 32.3 3V6.8H8.9C8.16029 6.79473 7.42682 6.93554 6.74165 7.21436C6.05649 7.49319 5.4331 7.90453 4.90726 8.4248C4.38141 8.94507 3.96345 9.56403 3.67734 10.2462C3.39124 10.9283 3.24261 11.6603 3.24 12.4V39.8L0 48.5V48.6V48.7V48.8C0.833085 50.2328 2.02836 51.4213 3.46587 52.2463C4.90339 53.0712 6.5326 53.5036 8.19 53.5H46.63C48.2863 53.4914 49.9122 53.054 51.3492 52.2303C52.7862 51.4067 53.9854 50.2248 54.83 48.8V48.6V48.4C55 48.6 55.13 48.9 51.89 39.9ZM4.45 36.9H50.58V39.4H4.45V36.9ZM50.58 26.3H33.48V5.6H50.58V26.3ZM33.48 27.5H50.58V28.8C50.58 29.0381 50.5328 29.2738 50.4411 29.4935C50.3494 29.7132 50.215 29.9125 50.0457 30.0799C49.8765 30.2473 49.6757 30.3795 49.455 30.4688C49.2343 30.558 48.9981 30.6026 48.76 30.6H35.3C35.0619 30.6026 34.8257 30.558 34.605 30.4688C34.3843 30.3795 34.1835 30.2473 34.0143 30.0799C33.845 29.9125 33.7106 29.7132 33.6189 29.4935C33.5272 29.2738 33.48 29.0381 33.48 28.8V27.5ZM35.3 1.3H48.76C48.9981 1.29735 49.2343 1.34196 49.455 1.43123C49.6757 1.52051 49.8765 1.65267 50.0457 1.82008C50.215 1.98749 50.3494 2.18682 50.4411 2.40652C50.5328 2.62622 50.58 2.86193 50.58 3.1V4.4H33.48V3.1C33.48 2.86193 33.5272 2.62622 33.6189 2.40652C33.7106 2.18682 33.845 1.98749 34.0143 1.82008C34.1835 1.65267 34.3843 1.52051 34.605 1.43123C34.8257 1.34196 35.0619 1.29735 35.3 1.3ZM8.9 8.1H32.27V28.8C32.27 29.5956 32.5861 30.3587 33.1487 30.9213C33.7113 31.4839 34.4743 31.8 35.27 31.8H48.76C49.4177 31.8161 50.0608 31.6041 50.58 31.2V35.5H4.45V12.5C4.46575 11.3293 4.94121 10.2117 5.77377 9.38853C6.60632 8.56533 7.72919 8.10252 8.9 8.1ZM4.25 40.6H50.78L53.51 48.1H1.51L4.25 40.6ZM32.25 52.5H23.35V49.4H32.25V52.5ZM1.82 49.4H22.15V52.5H8.29C7.04957 52.4931 5.82607 52.2115 4.7074 51.6755C3.58872 51.1395 2.60265 50.3624 1.82 49.4ZM46.74 52.5H33.48V49.4H53.21C52.4274 50.3624 51.4413 51.1395 50.3226 51.6755C49.2039 52.2115 47.9804 52.4931 46.74 52.5Z" fill="#151F4F"/>
<path d="M10.12 42.4999H8.79995C8.64082 42.4999 8.48821 42.5631 8.37569 42.6756C8.26317 42.7881 8.19995 42.9407 8.19995 43.0999C8.19995 43.259 8.26317 43.4116 8.37569 43.5241C8.48821 43.6367 8.64082 43.6999 8.79995 43.6999H10.12C10.2753 43.6883 10.4212 43.6214 10.5314 43.5113C10.6415 43.4012 10.7084 43.2552 10.72 43.0999C10.7227 43.0203 10.7091 42.9411 10.68 42.867C10.6508 42.7929 10.6067 42.7257 10.5504 42.6694C10.4941 42.6131 10.4269 42.569 10.3528 42.5398C10.2788 42.5107 10.1995 42.4971 10.12 42.4999Z" fill="#151F4F"/>
<path d="M15.17 42.4998H13.86C13.7009 42.4998 13.5483 42.563 13.4357 42.6756C13.3232 42.7881 13.26 42.9407 13.26 43.0998C13.26 43.2589 13.3232 43.4116 13.4357 43.5241C13.5483 43.6366 13.7009 43.6998 13.86 43.6998H15.17C15.3271 43.6906 15.4755 43.6247 15.5877 43.5143C15.6998 43.404 15.7682 43.2567 15.78 43.0998C15.7829 43.0194 15.769 42.9392 15.7392 42.8645C15.7095 42.7897 15.6645 42.722 15.6071 42.6655C15.5497 42.6091 15.4812 42.5652 15.406 42.5367C15.3307 42.5082 15.2504 42.4956 15.17 42.4998Z" fill="#151F4F"/>
<path d="M18.9999 43.8001H20.3099C20.4691 43.8001 20.6217 43.7369 20.7342 43.6244C20.8467 43.5118 20.9099 43.3592 20.9099 43.2001C20.9099 43.041 20.8467 42.8884 20.7342 42.7758C20.6217 42.6633 20.4691 42.6001 20.3099 42.6001H18.9999C18.8429 42.6093 18.6945 42.6752 18.5823 42.7856C18.4701 42.8959 18.4018 43.0432 18.3899 43.2001C18.3099 43.5001 18.6099 43.8001 18.9999 43.8001Z" fill="#151F4F"/>
<path d="M24.08 43.8001H25.39C25.5492 43.8001 25.7018 43.7369 25.8143 43.6244C25.9268 43.5118 25.99 43.3592 25.99 43.2001C25.99 43.041 25.9268 42.8884 25.8143 42.7758C25.7018 42.6633 25.5492 42.6001 25.39 42.6001H24.08C23.923 42.6093 23.7746 42.6752 23.6624 42.7856C23.5502 42.8959 23.4819 43.0432 23.47 43.2001C23.37 43.5001 23.67 43.8001 24.08 43.8001Z" fill="#151F4F"/>
<path d="M29.1299 43.8001H30.4499C30.609 43.8001 30.7616 43.7369 30.8741 43.6244C30.9867 43.5118 31.0499 43.3592 31.0499 43.2001C31.0499 43.041 30.9867 42.8884 30.8741 42.7758C30.7616 42.6633 30.609 42.6001 30.4499 42.6001H29.1299C28.9746 42.6116 28.8286 42.6786 28.7185 42.7887C28.6084 42.8988 28.5414 43.0448 28.5299 43.2001C28.4299 43.5001 28.7299 43.8001 29.1299 43.8001Z" fill="#151F4F"/>
<path d="M34.19 43.8001H35.51C35.6691 43.8001 35.8217 43.7369 35.9342 43.6244C36.0467 43.5118 36.11 43.3592 36.11 43.2001C36.11 43.041 36.0467 42.8884 35.9342 42.7758C35.8217 42.6633 35.6691 42.6001 35.51 42.6001H34.19C34.0329 42.6093 33.8845 42.6752 33.7723 42.7856C33.6601 42.8959 33.5918 43.0432 33.58 43.2001C33.48 43.5001 33.79 43.8001 34.19 43.8001Z" fill="#151F4F"/>
<path d="M39.25 43.8001H40.56C40.7191 43.8001 40.8717 43.7369 40.9842 43.6244C41.0968 43.5118 41.16 43.3592 41.16 43.2001C41.16 43.041 41.0968 42.8884 40.9842 42.7758C40.8717 42.6633 40.7191 42.6001 40.56 42.6001H39.25C39.0929 42.6093 38.9445 42.6752 38.8323 42.7856C38.7201 42.8959 38.6518 43.0432 38.64 43.2001C38.54 43.5001 38.84 43.8001 39.25 43.8001Z" fill="#151F4F"/>
<path d="M44.31 43.8001H45.62C45.7792 43.8001 45.9318 43.7369 46.0443 43.6244C46.1568 43.5118 46.22 43.3592 46.22 43.2001C46.22 43.041 46.1568 42.8884 46.0443 42.7758C45.9318 42.6633 45.7792 42.6001 45.62 42.6001H44.31C44.1529 42.6093 44.0046 42.6752 43.8924 42.7856C43.7802 42.8959 43.7119 43.0432 43.7 43.2001C43.6 43.5001 43.9 43.8001 44.31 43.8001Z" fill="#151F4F"/>
<path d="M10.12 44.9999H8.79995C8.64082 44.9999 8.48821 45.0631 8.37569 45.1756C8.26317 45.2881 8.19995 45.4407 8.19995 45.5999C8.19995 45.759 8.26317 45.9116 8.37569 46.0241C8.48821 46.1367 8.64082 46.1999 8.79995 46.1999H10.12C10.2753 46.1883 10.4212 46.1214 10.5314 46.0113C10.6415 45.9012 10.7084 45.7552 10.72 45.5999C10.7227 45.5203 10.7091 45.4411 10.68 45.367C10.6508 45.2929 10.6067 45.2257 10.5504 45.1694C10.4941 45.1131 10.4269 45.069 10.3528 45.0398C10.2788 45.0107 10.1995 44.9971 10.12 44.9999Z" fill="#151F4F"/>
<path d="M15.17 44.9998H13.86C13.7009 44.9998 13.5483 45.063 13.4357 45.1756C13.3232 45.2881 13.26 45.4407 13.26 45.5998C13.26 45.7589 13.3232 45.9116 13.4357 46.0241C13.5483 46.1366 13.7009 46.1998 13.86 46.1998H15.17C15.3271 46.1906 15.4755 46.1247 15.5877 46.0143C15.6998 45.904 15.7682 45.7567 15.78 45.5998C15.7829 45.5194 15.769 45.4392 15.7392 45.3645C15.7095 45.2897 15.6645 45.222 15.6071 45.1655C15.5497 45.1091 15.4812 45.0652 15.406 45.0367C15.3307 45.0082 15.2504 44.9956 15.17 44.9998Z" fill="#151F4F"/>
<path d="M30.9999 45.6C30.9881 45.4431 30.9197 45.2958 30.8075 45.1855C30.6954 45.0751 30.547 45.0092 30.3899 45H18.9999C18.8408 45 18.6882 45.0632 18.5756 45.1757C18.4631 45.2883 18.3999 45.4409 18.3999 45.6C18.3999 45.7591 18.4631 45.9117 18.5756 46.0243C18.6882 46.1368 18.8408 46.2 18.9999 46.2H30.4499C30.7499 46.3 30.9999 46 30.9999 45.6Z" fill="#151F4F"/>
<path d="M34.19 46.3001H35.51C35.6691 46.3001 35.8217 46.2369 35.9342 46.1244C36.0467 46.0118 36.11 45.8592 36.11 45.7001C36.11 45.541 36.0467 45.3884 35.9342 45.2758C35.8217 45.1633 35.6691 45.1001 35.51 45.1001H34.19C34.0329 45.1093 33.8845 45.1752 33.7723 45.2856C33.6601 45.3959 33.5918 45.5432 33.58 45.7001C33.48 46.0001 33.79 46.3001 34.19 46.3001Z" fill="#151F4F"/>
<path d="M39.25 46.3001H40.56C40.7191 46.3001 40.8717 46.2369 40.9842 46.1244C41.0968 46.0118 41.16 45.8592 41.16 45.7001C41.16 45.541 41.0968 45.3884 40.9842 45.2758C40.8717 45.1633 40.7191 45.1001 40.56 45.1001H39.25C39.0929 45.1093 38.9445 45.1752 38.8323 45.2856C38.7201 45.3959 38.6518 45.5432 38.64 45.7001C38.54 46.0001 38.84 46.3001 39.25 46.3001Z" fill="#151F4F"/>
<path d="M44.31 46.3001H45.62C45.7792 46.3001 45.9318 46.2369 46.0443 46.1244C46.1568 46.0118 46.22 45.8592 46.22 45.7001C46.22 45.541 46.1568 45.3884 46.0443 45.2758C45.9318 45.1633 45.7792 45.1001 45.62 45.1001H44.31C44.1529 45.1093 44.0046 45.1752 43.8924 45.2856C43.7802 45.3959 43.7119 45.5432 43.7 45.7001C43.6 46.0001 43.9 46.3001 44.31 46.3001Z" fill="#151F4F"/>
<path d="M10.12 21.9002H13.25C13.4091 21.9002 13.5618 21.837 13.6743 21.7245C13.7868 21.6119 13.85 21.4593 13.85 21.3002C13.85 21.1411 13.7868 20.9885 13.6743 20.8759C13.5618 20.7634 13.4091 20.7002 13.25 20.7002H10.12C9.96089 20.7002 9.80828 20.7634 9.69576 20.8759C9.58323 20.9885 9.52002 21.1411 9.52002 21.3002C9.52002 21.4593 9.58323 21.6119 9.69576 21.7245C9.80828 21.837 9.96089 21.9002 10.12 21.9002Z" fill="#151F4F"/>
<path d="M15.7799 21.9002H24.6799C24.8391 21.9002 24.9917 21.837 25.1042 21.7245C25.2167 21.6119 25.2799 21.4593 25.2799 21.3002C25.2799 21.1411 25.2167 20.9885 25.1042 20.8759C24.9917 20.7634 24.8391 20.7002 24.6799 20.7002H15.7799C15.6208 20.7002 15.4682 20.7634 15.3557 20.8759C15.2431 20.9885 15.1799 21.1411 15.1799 21.3002C15.1799 21.4593 15.2431 21.6119 15.3557 21.7245C15.4682 21.837 15.6208 21.9002 15.7799 21.9002Z" fill="#151F4F"/>
<path d="M10.12 24.9998H15.78C15.9391 24.9998 16.0918 24.9366 16.2043 24.8241C16.3168 24.7115 16.38 24.5589 16.38 24.3998C16.38 24.2407 16.3168 24.0881 16.2043 23.9755C16.0918 23.863 15.9391 23.7998 15.78 23.7998H10.12C9.96089 23.7998 9.80828 23.863 9.69576 23.9755C9.58323 24.0881 9.52002 24.2407 9.52002 24.3998C9.52002 24.5589 9.58323 24.7115 9.69576 24.8241C9.80828 24.9366 9.96089 24.9998 10.12 24.9998Z" fill="#151F4F"/>
<path d="M19.62 24.9998C19.7791 24.9998 19.9317 24.9366 20.0442 24.8241C20.1567 24.7115 20.22 24.5589 20.22 24.3998C20.22 24.2407 20.1567 24.0881 20.0442 23.9755C19.9317 23.863 19.7791 23.7998 19.62 23.7998H18.31C18.1508 23.7998 17.9982 23.863 17.8857 23.9755C17.7732 24.0881 17.71 24.2407 17.71 24.3998C17.71 24.5589 17.7732 24.7115 17.8857 24.8241C17.9982 24.9366 18.1508 24.9998 18.31 24.9998H19.62Z" fill="#151F4F"/>
<path d="M24.08 23.7998H22.15C21.9909 23.7998 21.8383 23.863 21.7258 23.9755C21.6133 24.0881 21.55 24.2407 21.55 24.3998C21.55 24.5589 21.6133 24.7115 21.7258 24.8241C21.8383 24.9366 21.9909 24.9998 22.15 24.9998H24.08C24.2392 24.9998 24.3918 24.9366 24.5043 24.8241C24.6168 24.7115 24.68 24.5589 24.68 24.3998C24.68 24.2407 24.6168 24.0881 24.5043 23.9755C24.3918 23.863 24.2392 23.7998 24.08 23.7998Z" fill="#151F4F"/>
<path d="M10.12 28.0999H12C12.1591 28.0999 12.3118 28.0367 12.4243 27.9242C12.5368 27.8116 12.6 27.659 12.6 27.4999C12.6 27.3408 12.5368 27.1882 12.4243 27.0756C12.3118 26.9631 12.1591 26.8999 12 26.8999H10.12C9.96089 26.8999 9.80828 26.9631 9.69576 27.0756C9.58323 27.1882 9.52002 27.3408 9.52002 27.4999C9.52002 27.659 9.58323 27.8116 9.69576 27.9242C9.80828 28.0367 9.96089 28.0999 10.12 28.0999Z" fill="#151F4F"/>
<path d="M19 28.0999C19.1591 28.0999 19.3117 28.0367 19.4242 27.9242C19.5368 27.8116 19.6 27.659 19.6 27.4999C19.6 27.3408 19.5368 27.1882 19.4242 27.0756C19.3117 26.9631 19.1591 26.8999 19 26.8999H14.57C14.4108 26.8999 14.2582 26.9631 14.1457 27.0756C14.0332 27.1882 13.97 27.3408 13.97 27.4999C13.97 27.659 14.0332 27.8116 14.1457 27.9242C14.2582 28.0367 14.4108 28.0999 14.57 28.0999H19Z" fill="#151F4F"/>
<path d="M24.08 26.8999H21.5499C21.4712 26.8999 21.3931 26.9154 21.3203 26.9456C21.2475 26.9757 21.1814 27.0199 21.1257 27.0756C21.07 27.1314 21.0258 27.1975 20.9956 27.2703C20.9655 27.3431 20.95 27.4211 20.95 27.4999C20.95 27.5787 20.9655 27.6567 20.9956 27.7295C21.0258 27.8023 21.07 27.8685 21.1257 27.9242C21.1814 27.9799 21.2475 28.0241 21.3203 28.0542C21.3931 28.0844 21.4712 28.0999 21.5499 28.0999H24.08C24.2391 28.0999 24.3917 28.0367 24.5042 27.9242C24.6167 27.8116 24.68 27.659 24.68 27.4999C24.68 27.3408 24.6167 27.1882 24.5042 27.0756C24.3917 26.9631 24.2391 26.8999 24.08 26.8999Z" fill="#151F4F"/>
<path d="M10.12 31.3001H12.64C12.7991 31.3001 12.9518 31.2369 13.0643 31.1244C13.1768 31.0118 13.24 30.8592 13.24 30.7001C13.24 30.541 13.1768 30.3884 13.0643 30.2758C12.9518 30.1633 12.7991 30.1001 12.64 30.1001H10.12C9.96089 30.1001 9.80828 30.1633 9.69576 30.2758C9.58323 30.3884 9.52002 30.541 9.52002 30.7001C9.52002 30.8592 9.58323 31.0118 9.69576 31.1244C9.80828 31.2369 9.96089 31.3001 10.12 31.3001Z" fill="#151F4F"/>
<path d="M20.8401 29.9998H15.1701C15.0109 29.9998 14.8583 30.063 14.7458 30.1756C14.6333 30.2881 14.5701 30.4407 14.5701 30.5998C14.5701 30.7589 14.6333 30.9116 14.7458 31.0241C14.8583 31.1366 15.0109 31.1998 15.1701 31.1998H20.8401C20.9971 31.1906 21.1455 31.1247 21.2577 31.0143C21.3699 30.904 21.4382 30.7567 21.4501 30.5998C21.453 30.5194 21.4391 30.4392 21.4093 30.3645C21.3795 30.2897 21.3345 30.222 21.2772 30.1655C21.2198 30.1091 21.1513 30.0652 21.076 30.0367C21.0008 30.0082 20.9204 29.9956 20.8401 29.9998Z" fill="#151F4F"/>
<path d="M9.70998 15.4999L12.85 17.9999C12.9673 18.0794 13.109 18.1148 13.25 18.0999C13.4384 18.0962 13.6193 18.0252 13.76 17.8999C13.8138 17.8348 13.8541 17.7595 13.8782 17.6786C13.9024 17.5976 13.9101 17.5126 13.9007 17.4287C13.8914 17.3447 13.8653 17.2635 13.8239 17.1898C13.7826 17.1161 13.7268 17.0516 13.66 16.9999L11.13 14.9999L13.66 12.9999C13.7268 12.9482 13.7826 12.8836 13.8239 12.8099C13.8653 12.7363 13.8914 12.655 13.9007 12.5711C13.9101 12.4871 13.9024 12.4021 13.8782 12.3212C13.8541 12.2402 13.8138 12.165 13.76 12.0999C13.7074 12.0327 13.6419 11.9768 13.5674 11.9353C13.4929 11.8938 13.4108 11.8676 13.326 11.8583C13.2413 11.849 13.1555 11.8567 13.0737 11.881C12.992 11.9053 12.9159 11.9457 12.85 11.9999L9.70998 14.4999C9.58045 14.6341 9.50806 14.8133 9.50806 14.9999C9.50806 15.1864 9.58045 15.3657 9.70998 15.4999Z" fill="#151F4F"/>
<path d="M20.3299 17.9002C20.4299 18.1002 20.6399 18.1002 20.8399 18.1002C20.9809 18.1151 21.1226 18.0797 21.2399 18.0002L24.3799 15.5002C24.5095 15.3659 24.5818 15.1867 24.5818 15.0002C24.5818 14.8136 24.5095 14.6344 24.3799 14.5002L21.2399 12.0002C21.1057 11.8934 20.9348 11.844 20.7643 11.8628C20.5939 11.8815 20.4377 11.9668 20.3299 12.1002C20.2761 12.1652 20.2358 12.2405 20.2117 12.3215C20.1875 12.4024 20.1798 12.4874 20.1892 12.5714C20.1985 12.6553 20.2246 12.7366 20.266 12.8102C20.3073 12.8839 20.3631 12.9485 20.4299 13.0002L22.9999 15.0002L20.4699 17.0002C20.3496 17.1131 20.2704 17.263 20.245 17.4261C20.2197 17.5891 20.2496 17.756 20.3299 17.9002Z" fill="#151F4F"/>
<path d="M15.48 17.4C15.5195 17.4378 15.5669 17.4664 15.6188 17.4836C15.6707 17.5009 15.7257 17.5065 15.78 17.5C15.8846 17.5026 15.9877 17.4759 16.0779 17.4228C16.168 17.3698 16.2415 17.2926 16.29 17.2L18.82 12.8C18.8658 12.7272 18.8967 12.6461 18.9109 12.5614C18.9251 12.4766 18.9224 12.3899 18.9028 12.3062C18.8833 12.2225 18.8474 12.1435 18.7971 12.0737C18.7468 12.004 18.6833 11.945 18.61 11.9C18.462 11.8087 18.2844 11.7786 18.1146 11.8159C17.9448 11.8532 17.7961 11.9551 17.7 12.1L15.17 16.5C15.1096 16.6627 15.1074 16.8413 15.1639 17.0055C15.2205 17.1696 15.3322 17.309 15.48 17.4Z" fill="#151F4F"/>
</g>
<defs>
<clipPath id="clip0_454_873">
<rect width="54.91" height="53.5" fill="white"/>
</clipPath>
</defs>
</svg>
