<svg width="13" height="17" viewBox="0 0 13 17" fill="none" xmlns="http://www.w3.org/2000/svg">
<path d="M6.56202 0C3.00896 0 0 2.96783 0 6.48364C0 10.1652 3.48752 13.9302 5.83348 16.5763C5.84242 16.587 6.2216 17 6.68877 17H6.73023C7.19741 17 7.57387 16.587 7.58333 16.5763C9.78494 14.0941 13 10.0013 13 6.48364C13 2.96783 10.653 0 6.56202 0ZM6.77923 15.8637C6.76027 15.8822 6.73263 15.903 6.70825 15.9203C6.68334 15.9035 6.65625 15.8823 6.63623 15.8637L6.35292 15.5441C4.12885 13.0417 1.08333 9.61484 1.08333 6.48364C1.08333 3.54503 3.59233 1.06223 6.56202 1.06223C10.2611 1.06223 11.9167 3.78489 11.9167 6.48364C11.9167 8.86072 10.1879 12.0169 6.77923 15.8637ZM6.51894 3.21698C4.72413 3.21698 3.26894 4.64419 3.26894 6.40448C3.26894 8.16478 4.72413 9.59198 6.51894 9.59198C8.31375 9.59198 9.76894 8.16478 9.76894 6.40448C9.76894 4.64419 8.31375 3.21698 6.51894 3.21698ZM6.51894 8.52948C5.3243 8.52948 4.32734 7.55305 4.32734 6.38111C4.32734 5.20944 5.29936 4.25611 6.49401 4.25611C7.68947 4.25611 8.66068 5.20944 8.66068 6.38111C8.66122 7.55305 7.7144 8.52948 6.51894 8.52948Z" fill="white"/>
</svg>
