<svg width="59" height="52" viewBox="0 0 59 52" fill="none" xmlns="http://www.w3.org/2000/svg">
<path d="M2.55887 38.747H56.9411C57.8441 38.747 58.6 37.9768 58.6 37.0633V2.58371C58.6 1.67025 57.8441 0.9 56.9411 0.9H2.55887C1.65591 0.9 0.9 1.67025 0.9 2.58371V37.0633C0.9 37.9768 1.65591 38.747 2.55887 38.747ZM1.85716 2.58371C1.85716 2.18495 2.17019 1.86923 2.55887 1.86923H56.9411C57.3298 1.86923 57.6428 2.18495 57.6428 2.58371V37.0633C57.6428 37.4621 57.3298 37.7778 56.9411 37.7778H2.55887C2.17019 37.7778 1.85716 37.4621 1.85716 37.0633V2.58371Z" fill="#151F4F" stroke="#151F4F" stroke-width="0.2"/>
<path d="M27.5011 46.5301H31.9995C32.1217 46.5301 32.2351 46.4691 32.3158 46.3871C32.3965 46.305 32.4559 46.1906 32.4559 46.0681V38.24C32.4559 38.0137 32.2869 37.7781 31.9995 37.7781H27.5011C27.2745 37.7781 27.0448 37.952 27.0448 38.24V46.0681C27.0448 46.2944 27.2137 46.5301 27.5011 46.5301ZM31.4987 38.7473V45.5609H27.9574V38.7473H31.4987Z" fill="#151F4F" stroke="#151F4F" stroke-width="0.2"/>
<path d="M42.6548 48.3331L42.6548 48.3331V48.3301C42.6548 46.782 41.4079 45.5604 39.927 45.5604H19.5726C18.045 45.5604 16.8448 46.8295 16.8448 48.3301C16.8448 49.8781 18.0918 51.0998 19.5726 51.0998H39.927C41.4105 51.0998 42.6087 49.876 42.6548 48.3331ZM17.802 48.3301C17.802 47.3431 18.6049 46.5296 19.5726 46.5296H39.927C40.8947 46.5296 41.6976 47.3431 41.6976 48.3301C41.6976 49.3171 40.8947 50.1305 39.927 50.1305H19.5726C18.6049 50.1305 17.802 49.3171 17.802 48.3301Z" fill="#151F4F" stroke="#151F4F" stroke-width="0.2"/>
<path d="M4.68564 30.0947C4.68564 31.9132 6.15418 33.4074 7.94792 33.4074C9.78437 33.4074 11.2555 31.9147 11.2102 30.0935C11.2095 28.2756 9.74125 26.7821 7.94792 26.7821C6.15418 26.7821 4.68564 28.2763 4.68564 30.0947ZM5.59827 30.14C5.59827 28.7922 6.66728 27.7513 7.94792 27.7513C9.27192 27.7513 10.2976 28.791 10.2976 30.14C10.2976 31.4878 9.22856 32.5287 7.94792 32.5287C6.62509 32.5287 5.59827 31.4449 5.59827 30.14Z" fill="#151F4F" stroke="#151F4F" stroke-width="0.2"/>
<path d="M21.137 19.3615L21.137 19.3614L21.1354 19.3639C20.7089 20.0573 19.9846 20.4475 19.1718 20.4475C18.5735 20.4475 18.0206 20.231 17.5951 19.7987C17.1228 19.3188 16.8667 18.7102 16.8667 18.0589C16.8667 16.7551 17.8923 15.7154 19.1718 15.7154C20.4489 15.7154 21.4769 16.798 21.4769 18.1041C21.4769 18.5435 21.3905 18.9752 21.137 19.3615ZM15.9095 18.0589C15.9095 18.9888 16.2753 19.8749 16.9194 20.4833C17.5179 21.0906 18.3451 21.4168 19.1718 21.4168C20.2744 21.4168 21.332 20.8566 21.9298 19.83C22.2508 19.3169 22.4341 18.7108 22.4341 18.0589C22.4341 16.2404 20.9655 14.7462 19.1718 14.7462C17.3781 14.7462 15.9095 16.2404 15.9095 18.0589Z" fill="#151F4F" stroke="#151F4F" stroke-width="0.2"/>
<path d="M32.6942 22.9659L32.6943 22.9658L32.6916 22.9633C32.0522 22.3601 31.2268 21.9858 30.3515 21.9858C29.2491 21.9858 28.1919 22.5457 27.5941 23.5265C27.2727 24.0398 27.0892 24.6462 27.0892 25.2985C27.0892 27.1169 28.5577 28.6112 30.3515 28.6112C32.1452 28.6112 33.6138 27.1169 33.6138 25.2985C33.6138 24.4149 33.2933 23.5745 32.6942 22.9659ZM28.3863 24.0411L28.3863 24.0412L28.3879 24.0387C28.8144 23.3453 29.5387 22.955 30.3515 22.955C30.9969 22.955 31.5911 23.1731 32.014 23.6457L32.0139 23.6458L32.0172 23.6492C32.4448 24.0836 32.7011 24.6921 32.7011 25.2985C32.7011 26.6463 31.6321 27.6872 30.3515 27.6872C29.0744 27.6872 28.0464 26.6046 28.0464 25.2985C28.0464 24.8591 28.1328 24.4274 28.3863 24.0411Z" fill="#151F4F" stroke="#151F4F" stroke-width="0.2"/>
<path d="M39.8679 15.8202L39.868 15.8201L39.8647 15.8167C39.4371 15.3823 39.1808 14.7738 39.1808 14.1674C39.1808 12.866 40.2486 11.8239 41.5304 11.8239C42.8131 11.8239 43.8781 12.9113 43.8356 14.1186L43.8356 14.1186V14.1221C43.8356 14.6487 43.7061 15.1235 43.4108 15.5093L43.4105 15.5091L43.4066 15.5152C42.9812 16.1635 42.2568 16.5108 41.5304 16.5108C40.8851 16.5108 40.2908 16.2928 39.8679 15.8202ZM39.1877 16.5C39.828 17.1505 40.6547 17.5253 41.5304 17.5253C42.5846 17.5253 43.5971 17.0138 44.152 16.124C44.5641 15.5643 44.7927 14.866 44.7927 14.1674C44.7927 12.3489 43.3242 10.8547 41.5304 10.8547C39.7367 10.8547 38.2682 12.3489 38.2682 14.1674C38.2682 15.051 38.5887 15.8914 39.1877 16.5Z" fill="#151F4F" stroke="#151F4F" stroke-width="0.2"/>
<path d="M49.4923 22.4481C49.4923 24.2666 50.9608 25.7608 52.7546 25.7608C54.5483 25.7608 56.0168 24.2666 56.0168 22.4481C56.0168 20.6297 54.5483 19.1355 52.7546 19.1355C50.9608 19.1355 49.4923 20.6297 49.4923 22.4481ZM50.4049 22.4934C50.4049 21.1456 51.4739 20.1047 52.7546 20.1047C54.0319 20.1047 55.0605 21.1425 55.1042 22.495C55.1034 23.842 54.0347 24.8821 52.7546 24.8821C51.4317 24.8821 50.4049 23.7983 50.4049 22.4934Z" fill="#151F4F" stroke="#151F4F" stroke-width="0.2"/>
<path d="M9.56947 28.4005L9.58091 28.4121L9.59545 28.4195C9.59847 28.421 9.60153 28.4226 9.60463 28.4242C9.68672 28.466 9.79456 28.5209 9.90798 28.5209C10.0335 28.5209 10.1467 28.4566 10.2465 28.3553L10.2465 28.3553L10.2481 28.3535L17.5971 20.5255L17.5976 20.526L17.6046 20.5164C17.7598 20.3063 17.7719 20.0232 17.5954 19.8439L17.5904 19.8388L17.5848 19.8345C17.377 19.6762 17.0959 19.6637 16.9184 19.8439L16.9184 19.8439L16.9166 19.8458L9.56764 27.7191L9.56715 27.7187L9.56029 27.728C9.40513 27.9381 9.39302 28.2212 9.56947 28.4005Z" fill="#151F4F" stroke="#151F4F" stroke-width="0.2"/>
<path d="M32.0181 22.9192L32.0181 22.9192L32.0167 22.9206C31.9272 23.0115 31.8878 23.141 31.8878 23.2622C31.8878 23.3834 31.9272 23.5129 32.0167 23.6038C32.1165 23.7052 32.2297 23.7694 32.3552 23.7694L32.359 23.7694C32.4494 23.7695 32.5748 23.7695 32.6932 23.6497L39.908 16.5461L39.908 16.5461L39.9091 16.545C39.9986 16.4541 40.038 16.3246 40.038 16.2034C40.038 16.0822 39.9986 15.9527 39.9091 15.8617C39.8194 15.7706 39.6911 15.7301 39.5706 15.7301C39.4504 15.7301 39.3225 15.7704 39.2328 15.861L32.0181 22.9192Z" fill="#151F4F" stroke="#151F4F" stroke-width="0.2"/>
<path d="M50.2008 21.1708L50.2075 21.1757L50.2149 21.1795C50.2343 21.1893 50.2516 21.1993 50.2695 21.2098L50.2738 21.2124C50.2899 21.2218 50.308 21.2324 50.3263 21.2417C50.3696 21.2637 50.4186 21.2808 50.4829 21.2808C50.5558 21.2808 50.631 21.2462 50.6909 21.2097C50.7542 21.1711 50.8162 21.1205 50.866 21.07L50.8709 21.0649L50.8752 21.0592C51.0445 20.8298 50.9833 20.5427 50.7662 20.3773L50.7662 20.3773L50.765 20.3764L44.0847 15.4447C43.857 15.2717 43.5724 15.3357 43.4098 15.5558C43.2405 15.7852 43.3017 16.0724 43.5188 16.2378L43.5188 16.2378L43.52 16.2387L50.2008 21.1708Z" fill="#151F4F" stroke="#151F4F" stroke-width="0.2"/>
<path d="M21.3042 20.0459L27.7501 24.2009C27.7843 24.2327 27.8219 24.251 27.8651 24.2597C27.903 24.2674 27.9454 24.2674 27.9847 24.2674L27.9908 24.2674C28.18 24.2674 28.2953 24.1345 28.3861 23.996C28.4498 23.899 28.4598 23.7671 28.4334 23.6528C28.4069 23.5384 28.3387 23.4197 28.2189 23.3567L21.7656 19.2421C21.6693 19.1776 21.5388 19.1676 21.4258 19.1946C21.3122 19.2217 21.1956 19.2913 21.1338 19.4119C21.0732 19.5085 21.064 19.6376 21.09 19.7499C21.1165 19.8642 21.1845 19.9828 21.3042 20.0459Z" fill="#151F4F" stroke="#151F4F" stroke-width="0.2"/>
</svg>
