<svg width="65" height="50" viewBox="0 0 65 50" fill="none" xmlns="http://www.w3.org/2000/svg">
<path d="M43.4903 33.3761L43.4906 33.3763C48.3298 36.7868 51.2445 42.2593 51.4145 48.1539H14.1515C14.3216 42.2587 17.2363 36.7404 22.0749 33.3301C23.8372 32.1244 25.7842 31.1975 27.8229 30.6415L27.8231 30.6414C31.0213 29.7608 34.4981 29.7608 37.6963 30.6414L37.6971 30.6416C39.7823 31.1977 41.7288 32.1245 43.4903 33.3761ZM13.676 49.0996H51.9366C52.1699 49.0996 52.4094 48.923 52.4094 48.6267C52.4094 42.2568 49.3182 36.2142 44.0714 32.5601C42.1978 31.2486 40.1835 30.3118 37.9825 29.703C34.6097 28.7661 30.9563 28.7661 27.5835 29.703C25.3827 30.3117 23.368 31.2486 21.5403 32.5608C16.3416 36.2608 13.2032 42.256 13.2032 48.6267C13.2032 48.86 13.3798 49.0996 13.676 49.0996Z" fill="#151F4F" stroke="#151F4F" strokeWidth="0.2"/>
<path d="M26.8674 28.6314L26.8682 28.6317C28.7449 29.5232 30.7168 29.9929 32.783 29.9929C34.8025 29.9929 36.7741 29.5232 38.6036 28.6788L38.6043 28.6785C41.7963 27.1764 44.3308 24.4076 45.5518 21.1218C45.9284 20.2269 46.1629 19.2404 46.3034 18.2569C46.3973 17.6461 46.4443 17.0354 46.4443 16.3782C46.4443 12.8573 45.0829 9.47718 42.6418 6.94202C40.0596 4.21919 36.5383 2.71689 32.783 2.71689C28.9813 2.71689 25.4597 4.21905 22.8773 6.98894C20.436 9.52445 19.1217 12.858 19.1217 16.3782C19.1217 16.989 19.1687 17.5997 19.2626 18.2104C19.4031 19.1936 19.6375 20.2265 20.0138 21.1676C21.2349 24.4543 23.6766 27.0829 26.8674 28.6314ZM23.5819 7.63888L23.5824 7.63838C25.9862 5.0496 29.2682 3.66253 32.783 3.66253C36.2969 3.66253 39.5334 5.04909 42.0317 7.59335C44.2971 9.95138 45.5452 13.0488 45.5452 16.3316C45.5452 16.9319 45.4991 17.486 45.4066 18.0873L45.4065 18.0876C45.2678 19.0124 45.0366 19.8911 44.7127 20.7704C43.5566 23.8222 41.1981 26.4115 38.24 27.7983C36.5282 28.5847 34.725 29.0006 32.8296 29.0006C30.8869 29.0006 29.0378 28.5844 27.3276 27.7525L27.3275 27.7524C24.3676 26.3187 22.1023 23.8682 20.9464 20.817C20.623 19.9391 20.3916 18.9674 20.2526 18.041L20.2526 18.041L20.2524 18.0394C20.1601 17.486 20.1139 16.8857 20.1139 16.3316C20.1139 13.0953 21.3622 9.99736 23.5819 7.63888Z" fill="#151F4F" stroke="#151F4F" strokeWidth="0.2"/>
<path d="M43.4901 33.3305L43.4964 33.335L43.5033 33.3384C43.5237 33.3487 43.5419 33.359 43.5607 33.3698L43.5652 33.3724C43.582 33.3822 43.6008 33.393 43.6198 33.4025C43.6646 33.4249 43.7149 33.4422 43.781 33.4422H64.0997C64.3879 33.4422 64.6191 33.211 64.6191 32.9228C64.6191 25.318 58.4228 19.1217 50.818 19.1217C48.7533 19.1217 46.7813 19.5441 44.9032 20.4362L44.9032 20.4362L44.9014 20.4371C44.7779 20.4988 44.718 20.619 44.675 20.7053C44.6734 20.7085 44.6718 20.7117 44.6702 20.7148L44.6698 20.7146L44.6662 20.7241C43.5101 23.7762 41.1513 26.3658 38.1929 27.7526L38.1929 27.7525L38.1906 27.7537C38.0672 27.8154 38.0073 27.9356 37.9643 28.0218C37.9627 28.0251 37.9611 28.0283 37.9595 28.0314L37.9595 28.0314L37.9582 28.0342C37.6742 28.6494 37.4858 29.31 37.3451 30.0138C37.2878 30.3001 37.4612 30.5367 37.6977 30.5963C39.7826 31.1524 41.7289 32.0791 43.4901 33.3305ZM38.0489 28.0761C38.0955 27.9829 38.1422 27.8897 38.2354 27.8431L37.7227 30.4995C37.5363 30.4529 37.3965 30.2664 37.4431 30.0334C37.5829 29.3344 37.7693 28.682 38.0489 28.0761ZM50.818 20.1605C57.7198 20.1605 63.3854 25.6547 63.6237 32.4966H43.9058C42.2047 31.3054 40.3687 30.4294 38.3983 29.8245C38.4874 29.4062 38.6146 28.9874 38.7801 28.5682C41.8025 27.0697 44.2688 24.4644 45.4906 21.3002C47.1458 20.5704 48.9366 20.1605 50.818 20.1605Z" fill="#151F4F" stroke="#151F4F" strokeWidth="0.2"/>
<path d="M60.4249 10.5064C60.4247 5.23227 56.1395 0.9 50.818 0.9C46.8618 0.9 43.2363 3.39564 41.8235 7.11601L41.8234 7.11598L41.8221 7.11989C41.7918 7.21082 41.793 7.31159 41.8137 7.40119C41.8342 7.49001 41.8762 7.57798 41.9387 7.64089C44.2039 9.99888 45.4519 13.0961 45.4519 16.3788C45.4519 16.9791 45.4058 17.5332 45.3133 18.1345L45.3121 18.142V18.1497C45.3121 18.3125 45.3678 18.4889 45.5431 18.6057L45.5449 18.6069C47.098 19.5953 48.934 20.1604 50.818 20.1604C56.139 20.1604 60.4718 15.8284 60.4249 10.5064ZM60.4249 10.5064C60.4249 10.5066 60.4249 10.5067 60.4249 10.5069H60.3249L60.4249 10.506C60.4249 10.5062 60.4249 10.5063 60.4249 10.5064ZM46.4904 16.3405L46.4908 16.3405V16.3322C46.4908 12.9263 45.2387 9.65912 42.9189 7.13031C44.2235 3.93996 47.4301 1.84564 50.8646 1.84564C55.656 1.84564 59.5259 5.71547 59.5259 10.5069C59.5259 15.2983 55.656 19.1681 50.8646 19.1681C49.2736 19.1681 47.7265 18.7195 46.3563 17.9096C46.401 17.4138 46.4457 16.8769 46.4904 16.3405Z" fill="#151F4F" stroke="#151F4F" strokeWidth="0.2"/>
<path d="M20.7109 20.5303L20.7109 20.5303L20.7091 20.5295C18.8319 19.6378 16.8134 19.1683 14.7011 19.1683C7.09629 19.1683 0.9 25.3646 0.9 32.9694C0.9 33.0951 0.961857 33.2125 1.0458 33.2964C1.12973 33.3804 1.24709 33.4422 1.37282 33.4422H21.7847H21.7882C21.8323 33.4422 21.8849 33.4422 21.9328 33.4354C21.978 33.4289 22.0352 33.4145 22.0805 33.3738C23.8409 32.1703 25.7856 31.2449 27.8217 30.6894C27.946 30.658 28.0469 30.5676 28.1093 30.4636C28.1715 30.3599 28.2038 30.2289 28.1736 30.1049C28.0323 29.399 27.7974 28.695 27.5643 28.0425L27.565 28.0423L27.5596 28.0314L27.5548 28.0219C27.5118 27.9356 27.4519 27.8154 27.3285 27.7537L27.3273 27.7532C24.3673 26.3194 22.102 23.8688 20.9461 20.8174L20.9466 20.8172L20.9421 20.8081C20.9405 20.8049 20.9389 20.8017 20.9373 20.7985C20.8943 20.7122 20.8344 20.5921 20.7109 20.5303ZM27.1127 29.827C25.146 30.4317 23.3132 31.3067 21.6592 32.4966H1.89537C2.13376 25.6545 7.79932 20.1606 14.6545 20.1606C16.537 20.1606 18.3742 20.5708 20.0755 21.3465C21.3413 24.5086 23.6691 27.0691 26.6924 28.5682C26.8575 28.9862 26.9859 29.4048 27.1127 29.827Z" fill="#151F4F" stroke="#151F4F" strokeWidth="0.2"/>
<path d="M23.6969 7.11987L23.6968 7.11989C23.7578 7.30289 23.692 7.47629 23.5919 7.62641L23.5873 7.63338L23.5815 7.63947C21.3618 9.99796 20.1135 13.0959 20.1135 16.3322C20.1135 16.8863 20.1597 17.4866 20.252 18.04L20.2533 18.0482V18.0565C20.2533 18.2192 20.1977 18.3955 20.0227 18.5123C20.0226 18.5124 20.0225 18.5124 20.0224 18.5125L19.9669 18.4293C18.3825 19.5012 16.565 20.0604 14.7009 20.0604C9.4348 20.0604 5.19398 15.773 5.19398 10.5535L23.6969 7.11987ZM23.6969 7.11987L23.6954 7.11601C22.2827 3.3959 18.7039 0.9 14.7009 0.9C9.37989 0.9 5.04713 5.23197 5.09398 10.5539L23.6969 7.11987ZM6.03962 10.5535C6.03962 5.76207 9.90945 1.89224 14.7009 1.89224C18.1814 1.89224 21.3434 3.98644 22.6932 7.22452C20.42 9.75219 19.1679 12.9728 19.1679 16.3788C19.1679 16.876 19.2113 17.4154 19.256 17.9112C17.8865 18.7655 16.3389 19.2147 14.7009 19.2147C9.90945 19.2147 6.03962 15.3449 6.03962 10.5535Z" fill="#151F4F" stroke="#151F4F" strokeWidth="0.2"/>
</svg>
